<?xml version="1.0" encoding="utf-8"?>
<!-- Generator: Adobe Illustrator 16.0.0, SVG Export Plug-In . SVG Version: 6.00 Build 0)  -->
<!DOCTYPE svg PUBLIC "-//W3C//DTD SVG 1.1//EN" "http://www.w3.org/Graphics/SVG/1.1/DTD/svg11.dtd">
<svg version="1.1" id="Outline_Icons" xmlns="http://www.w3.org/2000/svg" xmlns:xlink="http://www.w3.org/1999/xlink" x="0px"
	 y="0px" width="24px" height="24px" viewBox="0 0 24 24" enable-background="new 0 0 24 24" xml:space="preserve">
<g>
	<g>
		<path d="M12.5,24.004c-0.276,0-0.5-0.224-0.5-0.5v-23c0-0.276,0.224-0.5,0.5-0.5s0.5,0.224,0.5,0.5v23
			C13,23.78,12.776,24.004,12.5,24.004z"/>
	</g>
	<g>
		<path d="M12.5,24.004c-0.144,0-0.28-0.062-0.375-0.17l-11-12.5c-0.182-0.207-0.162-0.523,0.045-0.705
			c0.206-0.183,0.523-0.162,0.706,0.045L12.5,22.747l10.625-12.073c0.183-0.207,0.5-0.228,0.706-0.045
			c0.208,0.182,0.228,0.498,0.045,0.705l-11,12.5C12.78,23.942,12.644,24.004,12.5,24.004z"/>
	</g>
</g>
</svg>
