<?xml version="1.0" encoding="UTF-8" standalone="no"?>
<svg width="16px" height="16px" viewBox="0 0 16 16" version="1.1" xmlns="http://www.w3.org/2000/svg" xmlns:xlink="http://www.w3.org/1999/xlink" xmlns:sketch="http://www.bohemiancoding.com/sketch/ns">
    <!-- Generator: Sketch 3.4.2 (15857) - http://www.bohemiancoding.com/sketch -->
    <title>arrow_right_sm</title>
    <desc>Created with Sketch.</desc>
    <defs></defs>
    <g id="Page-1" stroke="none" stroke-width="1" fill="none" fill-rule="evenodd" sketch:type="MSPage">
        <g id="arrow_right_sm" sketch:type="MSArtboardGroup" fill="#474747">
            <path d="M13.8844938,7.45415217 L0.79325,7.45415217 C0.517107625,7.45415217 0.29325,7.6780098 0.29325,7.95415217 C0.29325,8.23029455 0.517107625,8.45415217 0.79325,8.45415217 L13.8844938,8.45415217 L7.01756877,14.7597807 C6.81417087,14.9465531 6.80069319,15.2628485 6.98746552,15.4662464 C7.17423785,15.6696443 7.49053332,15.683122 7.69393123,15.4963497 L15.5050912,8.32366717 C15.6053444,8.23222645 15.66825,8.1005355 15.66825,7.95415217 C15.66825,7.80776885 15.6053444,7.6760779 15.5050912,7.58463718 L7.69393123,0.411954651 C7.49053332,0.225182317 7.17423785,0.238660002 6.98746552,0.442057904 C6.80069319,0.645455806 6.81417087,0.961751276 7.01756877,1.14852361 L13.8844938,7.45415217 Z" id="Shape" sketch:type="MSShapeGroup"></path>
        </g>
    </g>
</svg>