<?xml version="1.0" encoding="UTF-8" standalone="no"?>
<svg width="16px" height="16px" viewBox="0 0 16 16" version="1.1" xmlns="http://www.w3.org/2000/svg" xmlns:xlink="http://www.w3.org/1999/xlink" xmlns:sketch="http://www.bohemiancoding.com/sketch/ns">
    <!-- Generator: Sketch 3.4.2 (15857) - http://www.bohemiancoding.com/sketch -->
    <title>arrow_up_sm</title>
    <desc>Created with Sketch.</desc>
    <defs></defs>
    <g id="Page-1" stroke="none" stroke-width="1" fill="none" fill-rule="evenodd" sketch:type="MSPage">
        <g id="arrow_up_sm" sketch:type="MSArtboardGroup" fill="#474747">
            <path d="M7.86089912,1.18181144 L7.10160523,1.18181144 L13.7972574,8.99431144 C13.9769565,9.20398465 14.2926051,9.22828351 14.5022783,9.04858444 C14.7119515,8.86888538 14.7362504,8.55323678 14.5565513,8.34356356 L7.86089912,0.531063563 C7.66134961,0.298228812 7.30115474,0.298228812 7.10160523,0.531063563 L0.405953057,8.34356356 C0.226253994,8.55323678 0.250552846,8.86888538 0.460226063,9.04858444 C0.66989928,9.22828351 0.98554788,9.20398465 1.16524694,8.99431144 L7.86089912,1.18181144 Z M6.98125217,0.8564375 L6.98125217,15.2314375 C6.98125217,15.5075799 7.2051098,15.7314375 7.48125217,15.7314375 C7.75739455,15.7314375 7.98125217,15.5075799 7.98125217,15.2314375 L7.98125217,0.8564375 C7.98125217,0.580295125 7.75739455,0.3564375 7.48125217,0.3564375 C7.2051098,0.3564375 6.98125217,0.580295125 6.98125217,0.8564375 L6.98125217,0.8564375 Z" id="Shape" sketch:type="MSShapeGroup"></path>
        </g>
    </g>
</svg>