<?xml version="1.0" encoding="utf-8"?>
<!-- Generator: Adobe Illustrator 16.0.0, SVG Export Plug-In . SVG Version: 6.00 Build 0)  -->
<!DOCTYPE svg PUBLIC "-//W3C//DTD SVG 1.1//EN" "http://www.w3.org/Graphics/SVG/1.1/DTD/svg11.dtd">
<svg version="1.1" id="Outline_Icons" xmlns="http://www.w3.org/2000/svg" xmlns:xlink="http://www.w3.org/1999/xlink" x="0px"
	 y="0px" width="24px" height="24px" viewBox="0 0 24 24" enable-background="new 0 0 24 24" xml:space="preserve">
<g>
	<g>
		<path d="M23.5,13.004h-23c-0.276,0-0.5-0.224-0.5-0.5s0.224-0.5,0.5-0.5h23c0.276,0,0.5,0.224,0.5,0.5S23.776,13.004,23.5,13.004z
			"/>
	</g>
	<g>
		<path d="M13,24.004c-0.118,0-0.235-0.041-0.33-0.125l-12.5-11C0.062,12.784,0,12.647,0,12.504s0.062-0.28,0.17-0.375l12.5-11
			c0.207-0.183,0.522-0.163,0.706,0.045c0.182,0.207,0.162,0.523-0.045,0.705L1.257,12.504L13.33,23.129
			c0.208,0.182,0.228,0.498,0.045,0.705C13.276,23.946,13.139,24.004,13,24.004z"/>
	</g>
</g>
</svg>
