<?xml version="1.0" encoding="utf-8"?>
<!-- Generator: Adobe Illustrator 16.0.0, SVG Export Plug-In . SVG Version: 6.00 Build 0)  -->
<!DOCTYPE svg PUBLIC "-//W3C//DTD SVG 1.1//EN" "http://www.w3.org/Graphics/SVG/1.1/DTD/svg11.dtd">
<svg version="1.1" id="Outline_Icons" xmlns="http://www.w3.org/2000/svg" xmlns:xlink="http://www.w3.org/1999/xlink" x="0px"
	 y="0px" width="24px" height="24px" viewBox="0 0 24 24" enable-background="new 0 0 24 24" xml:space="preserve">
<g>
	<path d="M12,0C5.383,0,0,5.383,0,12s5.383,12,12,12s12-5.383,12-12S18.617,0,12,0z M12,23C5.935,23,1,18.066,1,12
		C1,5.935,5.935,1,12,1s11,4.935,11,11C23,18.066,18.065,23,12,23z"/>
	<path d="M18.305,6.835C16.834,5.308,14.654,4.5,12,4.5c-4.136,0-7.5,3.365-7.5,7.5c0,4.136,3.364,7.5,7.5,7.5
		c1.319,0,2.616-0.347,3.75-1.004c0.239-0.138,0.321-0.444,0.182-0.683c-0.139-0.24-0.444-0.322-0.683-0.182
		C14.267,18.199,13.143,18.5,12,18.5c-3.584,0-6.5-2.916-6.5-6.5S8.416,5.5,12,5.5c2.376,0,4.307,0.702,5.584,2.029
		c1.031,1.072,1.623,2.558,1.623,4.077C19.207,13.251,18.434,15,17,15c-1,0-1-0.485-1-1V9c0-0.276-0.224-0.5-0.5-0.5S15,8.724,15,9
		v0.382C14.266,8.542,13.2,8,12,8c-2.206,0-4,1.794-4,4s1.794,4,4,4c1.229,0,2.317-0.569,3.052-1.445C15.225,15.511,15.875,16,17,16
		c1.858,0,3.207-1.848,3.207-4.394C20.207,9.831,19.514,8.092,18.305,6.835z M12,15c-1.654,0-3-1.346-3-3s1.346-3,3-3s3,1.346,3,3
		S13.654,15,12,15z"/>
</g>
</svg>
