<?xml version="1.0" encoding="UTF-8" standalone="no"?>
<svg width="24px" height="24px" viewBox="0 0 24 24" version="1.1" xmlns="http://www.w3.org/2000/svg" xmlns:xlink="http://www.w3.org/1999/xlink" xmlns:sketch="http://www.bohemiancoding.com/sketch/ns">
    <!-- Generator: Sketch 3.4.1 (15681) - http://www.bohemiancoding.com/sketch -->
    <title>circle_open</title>
    <desc>Created with Sketch.</desc>
    <defs></defs>
    <g id="Page-1" stroke="none" stroke-width="1" fill="none" fill-rule="evenodd" sketch:type="MSPage">
        <g id="circle_open" sketch:type="MSArtboardGroup" fill="#474747">
            <path d="M22,12 L22,12 C22,6.47700356 17.5224341,2 12,2 C6.47628475,2 2,6.47628475 2,12 C2,17.5224341 6.47700356,22 12,22 C17.5217153,22 22,17.5217153 22,12 L22,12 Z M23,12 C23,18.074 18.074,23 12,23 C5.924,23 1,18.074 1,12 C1,5.924 5.924,1 12,1 C18.074,1 23,5.924 23,12 L23,12 Z" id="Shape" sketch:type="MSShapeGroup"></path>
        </g>
    </g>
</svg>