<?xml version="1.0" encoding="UTF-8" standalone="no"?>
<svg width="16px" height="16px" viewBox="0 0 16 16" version="1.1" xmlns="http://www.w3.org/2000/svg" xmlns:xlink="http://www.w3.org/1999/xlink" xmlns:sketch="http://www.bohemiancoding.com/sketch/ns">
    <!-- Generator: Sketch 3.4.2 (15857) - http://www.bohemiancoding.com/sketch -->
    <title>close_sm</title>
    <desc>Created with Sketch.</desc>
    <defs></defs>
    <g id="Page-1" stroke="none" stroke-width="1" fill="none" fill-rule="evenodd" sketch:type="MSPage">
        <g id="close_sm" sketch:type="MSArtboardGroup" fill="#979797">
            <path d="M7.29289322,8 L1.14644661,1.85355339 C0.951184464,1.65829124 0.951184464,1.34170876 1.14644661,1.14644661 C1.34170876,0.951184464 1.65829124,0.951184464 1.85355339,1.14644661 L8,7.29289322 L14.1464466,1.14644661 C14.3417088,0.951184464 14.6582912,0.951184464 14.8535534,1.14644661 C15.0488155,1.34170876 15.0488155,1.65829124 14.8535534,1.85355339 L8.70710678,8 L14.8535534,14.1464466 C15.0488155,14.3417088 15.0488155,14.6582912 14.8535534,14.8535534 C14.6582912,15.0488155 14.3417088,15.0488155 14.1464466,14.8535534 L8,8.70710678 L1.85355339,14.8535534 C1.65829124,15.0488155 1.34170876,15.0488155 1.14644661,14.8535534 C0.951184464,14.6582912 0.951184464,14.3417088 1.14644661,14.1464466 L7.29289322,8 Z" id="Shape" sketch:type="MSShapeGroup"></path>
        </g>
    </g>
</svg>