<?xml version="1.0" encoding="utf-8"?>
<!-- Generator: Adobe Illustrator 16.0.0, SVG Export Plug-In . SVG Version: 6.00 Build 0)  -->
<!DOCTYPE svg PUBLIC "-//W3C//DTD SVG 1.1//EN" "http://www.w3.org/Graphics/SVG/1.1/DTD/svg11.dtd">
<svg version="1.1" id="Outline_Icons" xmlns="http://www.w3.org/2000/svg" xmlns:xlink="http://www.w3.org/1999/xlink" x="0px"
	 y="0px" width="24px" height="24px" viewBox="0 0 24 24" enable-background="new 0 0 24 24" xml:space="preserve">
<path d="M23.962,0.309c-0.051-0.122-0.148-0.22-0.271-0.27C23.63,0.014,23.565,0,23.5,0h-7C16.224,0,16,0.224,16,0.5
	S16.224,1,16.5,1h5.793L7.146,16.146c-0.195,0.195-0.195,0.512,0,0.707C7.244,16.951,7.372,17,7.5,17s0.256-0.049,0.354-0.146
	L23,1.707V7.5C23,7.776,23.224,8,23.5,8S24,7.776,24,7.5v-7C24,0.436,23.986,0.37,23.962,0.309z"/>
</svg>
