<svg xmlns="http://www.w3.org/2000/svg" class="icon" viewBox="0 0 24 24"><g><path stroke-linecap="butt"  d="M13.941 13.78L10 12.369v-2.306m-4 .125v2.182l-3.941 1.41A2.358 2.358 0 0 0 .5 16.012V17.5H11"/><ellipse cx="7.901" cy="6.053" rx="3.947" ry="4.737"/><path stroke-linecap="butt" d="M11.817 5.625l-.374.033c-1.343.259-2.208-.228-2.948-1.523-.444.851-1.832 1.523-2.973 1.523a3.166 3.166 0 0 1-1.528-.368"/><path d="M16.5 11.369v-1.306m-2.099-8.747c2.18 0 3.947 2.12 3.947 4.736s-1.768 4.737-3.947 4.737m3.916-5.164l-.374.033c-1.343.259-2.208-.228-2.948-1.523"/><circle cx="18.5" cy="18.5" r="5"/><path d="M18.5 16v5m2.5-2.5h-5"/></g></svg>
