<?xml version="1.0" encoding="utf-8"?>
<!-- Generator: Adobe Illustrator 16.0.0, SVG Export Plug-In . SVG Version: 6.00 Build 0)  -->
<!DOCTYPE svg PUBLIC "-//W3C//DTD SVG 1.1//EN" "http://www.w3.org/Graphics/SVG/1.1/DTD/svg11.dtd">
<svg version="1.1" id="Outline_Icons" xmlns="http://www.w3.org/2000/svg" xmlns:xlink="http://www.w3.org/1999/xlink" x="0px"
	 y="0px" width="24px" height="24px" viewBox="0 0 24 24" enable-background="new 0 0 24 24" xml:space="preserve">
<g>
	<path d="M18.5,13c-3.032,0-5.5,2.468-5.5,5.5s2.468,5.5,5.5,5.5s5.5-2.468,5.5-5.5S21.532,13,18.5,13z M18.5,23
		c-2.481,0-4.5-2.019-4.5-4.5s2.019-4.5,4.5-4.5s4.5,2.019,4.5,4.5S20.981,23,18.5,23z"/>
	<path d="M21,18h-2v-2c0-0.276-0.224-0.5-0.5-0.5S18,15.724,18,16v2h-2c-0.276,0-0.5,0.224-0.5,0.5S15.724,19,16,19h2v2
		c0,0.276,0.224,0.5,0.5,0.5S19,21.276,19,21v-2h2c0.276,0,0.5-0.224,0.5-0.5S21.276,18,21,18z"/>
	<path d="M20,6.5v-6c0-0.133-0.053-0.26-0.146-0.354S19.633,0,19.5,0c0,0,0,0-0.001,0l-6.258,0.008
		c-0.132,0-0.259,0.053-0.353,0.146L0.646,12.396c-0.195,0.195-0.195,0.512,0,0.707l6.25,6.25C6.99,19.447,7.117,19.5,7.25,19.5
		c0.174-0.005,0.264-0.054,0.357-0.15l12.25-12.5C19.948,6.757,20,6.631,20,6.5z M19,6.296L7.246,18.289L1.707,12.75L13.449,1.008
		L19,1.001V6.296z"/>
	<path d="M16,6c1.103,0,2-0.897,2-2s-0.897-2-2-2s-2,0.897-2,2S14.897,6,16,6z M16,3c0.552,0,1,0.448,1,1s-0.448,1-1,1s-1-0.448-1-1
		S15.448,3,16,3z"/>
</g>
</svg>
