<?xml version="1.0" encoding="utf-8"?>
<!-- Generator: Adobe Illustrator 16.0.0, SVG Export Plug-In . SVG Version: 6.00 Build 0)  -->
<!DOCTYPE svg PUBLIC "-//W3C//DTD SVG 1.1//EN" "http://www.w3.org/Graphics/SVG/1.1/DTD/svg11.dtd">
<svg version="1.1" id="Outline_Icons" xmlns="http://www.w3.org/2000/svg" xmlns:xlink="http://www.w3.org/1999/xlink" x="0px"
	 y="0px" width="24px" height="24px" viewBox="0 0 24 24" enable-background="new 0 0 24 24" xml:space="preserve">
<g>
	<path d="M11.982,14C15.852,14,19,10.849,19,6.976C19,3.13,15.861,0,12.003,0c-0.102,0-0.202,0.002-0.302,0.007
		C7.881,0.16,5,3.105,5,6.858C5,10.796,8.132,14,11.982,14z M11.955,1.001C11.971,1.001,11.987,1,12.003,1
		c0.017,0,0.032,0.002,0.049,0.002C12.617,1.64,13.081,2.307,13.436,3H10.57C10.925,2.306,11.389,1.639,11.955,1.001z M13.862,4
		c0.289,0.81,0.445,1.645,0.465,2.5H9.679c0.02-0.855,0.176-1.69,0.464-2.5H13.862z M17.976,6.5H15.31
		c-0.017-0.852-0.148-1.688-0.4-2.5h2.286C17.629,4.748,17.904,5.595,17.976,6.5z M11.983,13c-0.483-0.665-0.889-1.333-1.221-2
		h2.479c-0.331,0.667-0.737,1.334-1.22,1.998C12.009,12.998,11.997,13,11.983,13z M10.317,10C9.995,9.159,9.79,8.323,9.709,7.5
		h4.587c-0.081,0.823-0.286,1.659-0.609,2.5H10.317z M15.28,7.5h2.693c-0.079,0.906-0.359,1.753-0.795,2.5h-2.443
		C15.023,9.163,15.208,8.326,15.28,7.5z M8.696,6.5H6.017C6.07,5.59,6.321,4.743,6.736,4h2.36C8.844,4.812,8.713,5.648,8.696,6.5z
		 M8.726,7.5C8.797,8.326,8.982,9.163,9.271,10H6.852C6.416,9.253,6.125,8.407,6.033,7.5H8.726z M7.578,11h2.084
		c0.275,0.617,0.607,1.233,1,1.844C9.454,12.563,8.387,11.906,7.578,11z M13.346,12.838c0.391-0.609,0.722-1.223,0.997-1.838h2.104
		C15.637,11.9,14.563,12.554,13.346,12.838z M16.468,3h-1.938c-0.275-0.623-0.625-1.227-1.047-1.809
		C14.653,1.489,15.686,2.129,16.468,3z M10.541,1.167C10.111,1.757,9.756,2.368,9.477,3h-2.03C8.237,2.107,9.303,1.456,10.541,1.167
		z"/>
	<path d="M21.285,19.412c0.733-0.547,1.215-1.414,1.215-2.397c0-1.654-1.346-3-3-3s-3,1.346-3,3c0,0.976,0.475,1.835,1.199,2.384
		c-0.787,0.351-1.47,0.918-1.949,1.65c-0.479-0.731-1.163-1.298-1.952-1.647C14.523,18.854,15,17.992,15,17.015c0-1.654-1.346-3-3-3
		s-3,1.346-3,3c0,0.978,0.477,1.839,1.203,2.387c-0.789,0.351-1.472,0.917-1.952,1.649c-0.479-0.733-1.163-1.301-1.95-1.652
		C7.024,18.851,7.5,17.99,7.5,17.015c0-1.654-1.346-3-3-3s-3,1.346-3,3c0,0.983,0.482,1.85,1.215,2.397C1.15,20.132,0,21.732,0,23.5
		C0,23.776,0.224,24,0.5,24h23c0.276,0,0.5-0.224,0.5-0.5C24,21.732,22.85,20.132,21.285,19.412z M17.5,17.015c0-1.103,0.897-2,2-2
		s2,0.897,2,2c0,1.09-0.877,1.976-1.963,1.996c-0.013,0-0.024-0.004-0.037-0.004c-0.016,0-0.031,0.003-0.047,0.003
		C18.372,18.984,17.5,18.102,17.5,17.015z M10,17.015c0-1.103,0.897-2,2-2s2,0.897,2,2c0,1.099-0.891,1.992-1.988,1.999
		c-0.004,0-0.008-0.001-0.012-0.001s-0.008,0.001-0.012,0.001C10.891,19.007,10,18.114,10,17.015z M2.5,17.015c0-1.103,0.897-2,2-2
		s2,0.897,2,2c0,1.087-0.872,1.97-1.953,1.995c-0.016,0-0.031-0.003-0.047-0.003c-0.013,0-0.024,0.004-0.037,0.004
		C3.377,18.99,2.5,18.104,2.5,17.015z M1.044,23c0.259-1.489,1.635-2.968,3.418-2.989c0.013,0,0.025,0.004,0.038,0.004
		c0.015,0,0.028-0.004,0.043-0.004c1.443,0.018,2.74,0.944,3.237,2.322c0.143,0.396,0.798,0.396,0.94,0
		c0.5-1.384,1.812-2.314,3.269-2.319c0.004,0,0.007,0.001,0.011,0.001s0.007-0.001,0.011-0.001c1.458,0.004,2.771,0.935,3.269,2.317
		c0.143,0.397,0.798,0.397,0.94,0c0.496-1.375,1.793-2.302,3.237-2.32c0.015,0,0.028,0.004,0.043,0.004
		c0.013,0,0.025-0.004,0.038-0.004c1.783,0.021,3.159,1.5,3.418,2.989H1.044z"/>
</g>
</svg>
