<?xml version="1.0" encoding="utf-8"?>
<!-- Generator: Adobe Illustrator 16.0.0, SVG Export Plug-In . SVG Version: 6.00 Build 0)  -->
<!DOCTYPE svg PUBLIC "-//W3C//DTD SVG 1.1//EN" "http://www.w3.org/Graphics/SVG/1.1/DTD/svg11.dtd">
<svg version="1.1" id="Outline_Icons" xmlns="http://www.w3.org/2000/svg" xmlns:xlink="http://www.w3.org/1999/xlink" x="0px"
	 y="0px" width="24px" height="24px" viewBox="0 0 24 24" enable-background="new 0 0 24 24" xml:space="preserve">
<g>
	<path d="M12,0.876c-6.617,0-12,4.434-12,9.883c0,2.574,1.177,4.986,3.325,6.832l-2.41,4.811c-0.095,0.19-0.06,0.42,0.089,0.573
		c0.096,0.099,0.226,0.151,0.358,0.151c0.071,0,0.144-0.015,0.211-0.047l6.437-2.996c1.278,0.371,2.62,0.559,3.99,0.559
		c6.617,0,12-4.433,12-9.882C24,5.31,18.617,0.876,12,0.876z M12,19.641c-1.338,0-2.645-0.192-3.883-0.57
		c-0.118-0.036-0.246-0.028-0.357,0.025l-5.308,2.471l1.946-3.883c0.105-0.211,0.049-0.467-0.135-0.615
		C2.159,15.386,1,13.146,1,10.759c0-4.898,4.935-8.883,11-8.883s11,3.985,11,8.883C23,15.656,18.065,19.641,12,19.641z"/>
	<path d="M12.5,5.438C10.57,5.438,9,7.036,9,9c0,0.276,0.224,0.5,0.5,0.5S10,9.276,10,9c0-1.389,1.145-2.562,2.5-2.562
		c1.378,0,2.5,1.108,2.5,2.47c0,1.361-1.122,2.469-2.5,2.469c-0.276,0-0.5,0.224-0.5,0.5v1.249c0,0.276,0.224,0.5,0.5,0.5
		s0.5-0.224,0.5-0.5v-0.784c1.694-0.241,3-1.689,3-3.434C16,6.994,14.43,5.438,12.5,5.438z"/>
	<circle cx="12.5" cy="15.376" r="1"/>
</g>
</svg>
