<?xml version="1.0" encoding="UTF-8" standalone="no"?>
<svg width="24px" height="24px" viewBox="0 0 24 24" version="1.1" xmlns="http://www.w3.org/2000/svg" xmlns:xlink="http://www.w3.org/1999/xlink" xmlns:sketch="http://www.bohemiancoding.com/sketch/ns">
    <!-- Generator: Sketch 3.4.2 (15857) - http://www.bohemiancoding.com/sketch -->
    <title>Artboard</title>
    <desc>Created with Sketch.</desc>
    <defs></defs>
    <g id="Page-1" stroke="none" stroke-width="1" fill="none" fill-rule="evenodd" sketch:type="MSPage">
        <g id="Artboard" sketch:type="MSArtboardGroup" fill="#000000">
            <g id="star" sketch:type="MSLayerGroup" transform="translate(3.500000, 3.500000)">
                <g id="Outline_Icons" sketch:type="MSShapeGroup">
                    <path d="M16.476,6.634 C16.417,6.452 16.26,6.32 16.072,6.293 L11.18,5.586 L8.992,1.181 C8.822,0.84 8.264,0.842 8.096,1.181 L5.91,5.586 L1.018,6.293 C0.829,6.32 0.672,6.453 0.613,6.634 C0.554,6.815 0.604,7.014 0.741,7.147 L4.279,10.576 L3.444,15.415 C3.412,15.603 3.489,15.792 3.642,15.904 C3.796,16.016 4.001,16.031 4.168,15.944 L8.543,13.657 L12.92,15.944 C12.994,15.981 13.073,16 13.152,16 C13.256,16 13.359,15.968 13.447,15.904 C13.6,15.792 13.677,15.603 13.645,15.415 L12.81,10.576 L16.347,7.147 C16.485,7.015 16.534,6.815 16.476,6.634 L16.476,6.634 Z M11.925,10.042 C11.806,10.157 11.752,10.323 11.779,10.486 L12.487,14.59 L8.775,12.65 C8.703,12.612 8.623,12.593 8.544,12.593 C8.465,12.593 8.385,12.612 8.313,12.65 L4.603,14.589 L5.311,10.486 C5.338,10.323 5.285,10.157 5.165,10.042 L2.168,7.138 L6.313,6.54 C6.476,6.516 6.617,6.415 6.69,6.267 L8.544,2.53 L10.4,6.267 C10.473,6.414 10.614,6.516 10.777,6.539 L14.921,7.138 L11.925,10.042 L11.925,10.042 Z" id="Shape"></path>
                </g>
            </g>
        </g>
    </g>
</svg>