<?xml version="1.0" encoding="utf-8"?>
<!-- Generator: Adobe Illustrator 16.0.0, SVG Export Plug-In . SVG Version: 6.00 Build 0)  -->
<!DOCTYPE svg PUBLIC "-//W3C//DTD SVG 1.1//EN" "http://www.w3.org/Graphics/SVG/1.1/DTD/svg11.dtd">
<svg version="1.1" id="Outline_Icons" xmlns="http://www.w3.org/2000/svg" xmlns:xlink="http://www.w3.org/1999/xlink" x="0px"
	 y="0px" width="24px" height="24px" viewBox="0 0 24 24" enable-background="new 0 0 24 24" xml:space="preserve">
<g>
	<path d="M7.239,10.128c-0.211-0.176-0.526-0.149-0.704,0.063L4.01,13.216c-0.25-1.798,0.118-3.627,1.081-5.242
		C6.27,6,8.193,4.572,10.372,4.058c2.869-0.678,5.875,0.272,7.835,2.486c0.183,0.206,0.5,0.224,0.705,0.042
		c0.207-0.183,0.227-0.499,0.043-0.706c-2.203-2.489-5.579-3.561-8.813-2.796C7.702,3.661,5.548,5.256,4.232,7.461
		c-0.895,1.499-1.325,3.163-1.293,4.838l-1.598-2.38c-0.155-0.23-0.467-0.29-0.693-0.136c-0.229,0.153-0.291,0.464-0.137,0.694
		l2.787,4.151c0.088,0.13,0.231,0.212,0.389,0.221c0.009,0,0.018,0,0.026,0c0.147,0,0.288-0.065,0.384-0.18l3.205-3.838
		C7.479,10.62,7.451,10.305,7.239,10.128z"/>
	<path d="M23.915,14.221l-2.786-4.151c-0.088-0.13-0.231-0.212-0.389-0.22c-0.118-0.004-0.228,0.043-0.321,0.113
		c-0.017,0.01-0.029,0.021-0.045,0.033c-0.013,0.013-0.031,0.019-0.044,0.033l-0.053,0.063c-0.005,0.007-0.012,0.012-0.017,0.019
		l-3.137,3.755c-0.177,0.212-0.148,0.528,0.063,0.705c0.213,0.177,0.528,0.15,0.704-0.063l2.405-2.879
		c0.086,3.619-2.554,7.129-6.244,8c-2.694,0.639-5.487-0.144-7.465-2.093c-0.194-0.194-0.512-0.192-0.707,0.004
		c-0.193,0.197-0.191,0.513,0.006,0.707c1.714,1.689,3.971,2.6,6.305,2.6c0.694,0,1.396-0.081,2.092-0.245
		c4.039-0.954,6.893-4.552,7.021-8.476l1.78,2.653C23.182,14.922,23.34,15,23.5,15c0.097,0,0.193-0.027,0.278-0.085
		C24.008,14.761,24.069,14.451,23.915,14.221z"/>
</g>
</svg>
