<?xml version="1.0" encoding="utf-8"?>
<!-- Generator: Adobe Illustrator 16.0.0, SVG Export Plug-In . SVG Version: 6.00 Build 0)  -->
<!DOCTYPE svg PUBLIC "-//W3C//DTD SVG 1.1//EN" "http://www.w3.org/Graphics/SVG/1.1/DTD/svg11.dtd">
<svg version="1.1" id="Outline_Icons" xmlns="http://www.w3.org/2000/svg" xmlns:xlink="http://www.w3.org/1999/xlink" x="0px"
	 y="0px" width="24px" height="24px" viewBox="0 0 24 24" enable-background="new 0 0 24 24" xml:space="preserve">
<path d="M22.834,12.237c-0.528-3.161-2.256-5.928-4.865-7.79c-2.611-1.864-5.805-2.607-8.994-2.086
	C6.239,2.807,3.811,4.138,1.999,6.145V0.5c0-0.276-0.224-0.5-0.5-0.5s-0.5,0.224-0.5,0.5v7c0,0.25,0.187,0.449,0.427,0.485
	c0.005,0.001,0.009,0.002,0.014,0.003C1.46,7.99,1.478,8,1.499,8h7c0.276,0,0.5-0.224,0.5-0.5S8.775,7,8.499,7H2.573
	c1.675-1.943,3.969-3.23,6.562-3.652c2.928-0.474,5.858,0.204,8.254,1.914c2.392,1.707,3.976,4.242,4.46,7.141
	c0.483,2.897-0.189,5.811-1.896,8.203c-0.686,0.961-1.514,1.799-2.458,2.491c-0.224,0.163-0.271,0.476-0.108,0.698
	C17.483,23.929,17.636,24,17.789,24c0.103,0,0.206-0.031,0.295-0.097c1.031-0.755,1.934-1.669,2.683-2.718
	C22.628,18.577,23.362,15.398,22.834,12.237z"/>
</svg>
