<?xml version="1.0" encoding="utf-8"?>
<!-- Generator: Adobe Illustrator 16.0.0, SVG Export Plug-In . SVG Version: 6.00 Build 0)  -->
<!DOCTYPE svg PUBLIC "-//W3C//DTD SVG 1.1//EN" "http://www.w3.org/Graphics/SVG/1.1/DTD/svg11.dtd">
<svg version="1.1" id="Outline_Icons" xmlns="http://www.w3.org/2000/svg" xmlns:xlink="http://www.w3.org/1999/xlink" x="0px"
	 y="0px" width="24px" height="24px" viewBox="0 0 24 24" enable-background="new 0 0 24 24" xml:space="preserve">
<g>
	<path d="M11,9.153v7.652c0,0.277,0.224,0.5,0.5,0.5s0.5-0.223,0.5-0.5V9.153c0-0.276-0.224-0.5-0.5-0.5S11,8.877,11,9.153z"/>
	<path d="M22.892,23.166L11.947,1.276c-0.17-0.339-0.725-0.339-0.895,0l-11,22c-0.077,0.155-0.069,0.339,0.021,0.486
		C0.166,23.91,0.327,24,0.5,24h22c0.007,0,0.015,0,0.02,0c0.276,0,0.5-0.224,0.5-0.5C23.02,23.372,22.972,23.254,22.892,23.166z
		 M1.309,23L11.5,2.618L21.691,23H1.309z"/>
	<circle cx="11.5" cy="20" r="1"/>
</g>
</svg>
