<?xml version="1.0" encoding="utf-8"?>
<!-- Generator: Adobe Illustrator 16.0.0, SVG Export Plug-In . SVG Version: 6.00 Build 0)  -->
<!DOCTYPE svg PUBLIC "-//W3C//DTD SVG 1.1//EN" "http://www.w3.org/Graphics/SVG/1.1/DTD/svg11.dtd">
<svg version="1.1" id="Outline_Icons" xmlns="http://www.w3.org/2000/svg" xmlns:xlink="http://www.w3.org/1999/xlink" x="0px"
	 y="0px" width="24px" height="24px" viewBox="0 0 24 24" enable-background="new 0 0 24 24" xml:space="preserve">
<path d="M23.634,12.324l-3.111-7.309h0.707c0.276,0,0.5-0.224,0.5-0.5s-0.224-0.5-0.5-0.5h-8.033
	C12.858,3.423,12.229,3.02,11.5,3.02c-0.737,0-1.373,0.415-1.708,1.019H2.72c-0.276,0-0.5,0.224-0.5,0.5s0.224,0.5,0.5,0.5h0.731
	l-3.112,7.285c0,0.001,0,0.002-0.001,0.003c-0.021,0.048-0.028,0.103-0.032,0.158c-0.001,0.011-0.007,0.022-0.007,0.034
	c0,0.001-0.001,0.003-0.001,0.004c0,2.324,1.716,4.145,3.905,4.145s3.905-1.821,3.905-4.145c0-0.09-0.03-0.169-0.071-0.242
	L4.954,5.038h4.593C9.574,5.917,10.182,6.647,11,6.865V21.02H8.581c-0.276,0-0.5,0.224-0.5,0.5s0.224,0.5,0.5,0.5h5.811
	c0.276,0,0.5-0.224,0.5-0.5s-0.224-0.5-0.5-0.5H12V6.865c0.826-0.219,1.439-0.96,1.456-1.85h5.562l-3.116,7.309
	c-0.032,0.076-0.039,0.154-0.033,0.231c0.017,2.309,1.724,4.113,3.902,4.113c2.189,0,3.905-1.821,3.905-4.145
	C23.676,12.452,23.66,12.385,23.634,12.324z M4.202,5.825l2.639,6.198H1.555L4.202,5.825z M4.203,15.667
	c-1.498,0-2.663-1.106-2.872-2.645h5.744C6.866,14.561,5.701,15.667,4.203,15.667z M11.5,5.938c-0.528,0-0.959-0.43-0.959-0.959
	S10.972,4.02,11.5,4.02c0.529,0,0.96,0.43,0.96,0.959S12.029,5.938,11.5,5.938z M22.419,12.022h-5.302L19.771,5.8L22.419,12.022z
	 M19.771,15.667c-1.498,0-2.663-1.106-2.872-2.645h5.744C22.434,14.561,21.269,15.667,19.771,15.667z"/>
</svg>
