<svg xmlns="http://www.w3.org/2000/svg" width="24" height="24" viewBox="0 0 24 24"><g stroke="#000" stroke-linecap="round" stroke-linejoin="round" stroke-miterlimit="10" fill="none"><path d="M18.5 14.5v-8h-7.499l-.939-2h-4.562v10M17.5 4.5h-5.499l-.939-2h-4.562M16.5 2.5h-3.499l-.939-2h-4.562"/><path d="M23.5 23.5h-23v-7h7.5v1c0 1.1.899 2 2 2h4.5c1.101 0 2-.9 2-2v-1h7v7zM.5 16.5l3.5-6h1.5M18.5 10.5h1.5l3.5 6"/><path d="M13.468 11.656c.45-.307.746-.822.746-1.408 0-.938-.762-1.699-1.7-1.699-.94 0-1.7.762-1.7 1.7 0 .585.295 1.101.746 1.407-1.194.4-2.06 1.143-2.06 2.844h6.027c0-1.701-.866-2.443-2.059-2.844z"/></g></svg>