<?xml version="1.0" encoding="utf-8"?>
<!-- Generator: Adobe Illustrator 16.0.0, SVG Export Plug-In . SVG Version: 6.00 Build 0)  -->
<!DOCTYPE svg PUBLIC "-//W3C//DTD SVG 1.1//EN" "http://www.w3.org/Graphics/SVG/1.1/DTD/svg11.dtd">
<svg version="1.1" id="Outline_Icons" xmlns="http://www.w3.org/2000/svg" xmlns:xlink="http://www.w3.org/1999/xlink" x="0px"
	 y="0px" width="24px" height="24px" viewBox="0 0 24 24" enable-background="new 0 0 24 24" xml:space="preserve">
<g>
	<path d="M6.5,3h4.244l0.804,1.712C11.631,4.888,11.807,5,12.001,5H17.5C17.776,5,18,4.776,18,4.5S17.776,4,17.5,4h-5.182
		l-0.804-1.712C11.432,2.112,11.255,2,11.062,2H6.5C6.224,2,6,2.224,6,2.5S6.224,3,6.5,3z"/>
	<path d="M7.5,1h4.244l0.804,1.712C12.631,2.888,12.807,3,13.001,3H16.5C16.776,3,17,2.776,17,2.5S16.776,2,16.5,2h-3.182
		l-0.804-1.712C12.432,0.112,12.255,0,12.062,0H7.5C7.224,0,7,0.224,7,0.5S7.224,1,7.5,1z"/>
	<path d="M23.994,16.469c-0.002-0.034-0.011-0.064-0.02-0.097c-0.009-0.033-0.017-0.064-0.032-0.095
		c-0.005-0.009-0.005-0.02-0.01-0.029l-3.5-6C20.342,10.095,20.178,10,20,10h-1V6.5C19,6.224,18.776,6,18.5,6h-7.182l-0.804-1.712
		C10.432,4.112,10.255,4,10.062,4H5.5C5.224,4,5,4.224,5,4.5V10H4c-0.178,0-0.342,0.095-0.432,0.248l-3.5,6
		c-0.005,0.01-0.005,0.02-0.01,0.029c-0.015,0.03-0.023,0.062-0.032,0.095c-0.009,0.033-0.018,0.063-0.02,0.097
		C0.006,16.48,0,16.489,0,16.5v7C0,23.776,0.224,24,0.5,24h23c0.276,0,0.5-0.224,0.5-0.5v-7C24,16.489,23.994,16.48,23.994,16.469z
		 M4.287,11H5v3.5C5,14.776,5.224,15,5.5,15S6,14.776,6,14.5V5h3.744l0.804,1.712C10.631,6.888,10.807,7,11.001,7H18v7.5
		c0,0.276,0.224,0.5,0.5,0.5s0.5-0.224,0.5-0.5V11h0.713l2.917,5H16.5c-0.276,0-0.5,0.224-0.5,0.5v1c0,0.827-0.673,1.5-1.5,1.5H10
		c-0.827,0-1.5-0.673-1.5-1.5v-1C8.5,16.224,8.276,16,8,16H1.371L4.287,11z M23,23H1v-6h6.5v0.5c0,1.378,1.122,2.5,2.5,2.5h4.5
		c1.378,0,2.5-1.122,2.5-2.5V17h6V23z"/>
	<path d="M9.5,15h6.027c0.276,0,0.5-0.224,0.5-0.5c0-1.422-0.555-2.415-1.692-3.018c0.244-0.359,0.379-0.788,0.379-1.234
		c0-1.213-0.987-2.199-2.2-2.199s-2.2,0.987-2.2,2.2c0,0.446,0.135,0.875,0.378,1.233C9.555,12.085,9,13.078,9,14.5
		C9,14.776,9.224,15,9.5,15z M11.718,12.13c0.18-0.061,0.311-0.217,0.336-0.406s-0.057-0.375-0.214-0.481
		c-0.33-0.225-0.527-0.597-0.527-0.994c0-0.662,0.539-1.2,1.2-1.2s1.2,0.538,1.2,1.199c0,0.397-0.197,0.77-0.527,0.995
		c-0.157,0.107-0.24,0.294-0.214,0.481c0.026,0.188,0.156,0.345,0.336,0.406c1.05,0.352,1.565,0.91,1.689,1.87H10.03
		C10.153,13.04,10.668,12.482,11.718,12.13z"/>
</g>
</svg>
