<?xml version="1.0" encoding="utf-8"?>
<!-- Generator: Adobe Illustrator 16.0.0, SVG Export Plug-In . SVG Version: 6.00 Build 0)  -->
<!DOCTYPE svg PUBLIC "-//W3C//DTD SVG 1.1//EN" "http://www.w3.org/Graphics/SVG/1.1/DTD/svg11.dtd">
<svg version="1.1" id="Outline_Icons" xmlns="http://www.w3.org/2000/svg" xmlns:xlink="http://www.w3.org/1999/xlink" x="0px"
	 y="0px" width="24px" height="24px" viewBox="0 0 24 24" enable-background="new 0 0 24 24" xml:space="preserve">
<g>
	<path d="M23.5,0h-23C0.224,0,0,0.224,0,0.5v8C0,8.776,0.224,9,0.5,9H5v3c0,0.191,0.109,0.365,0.28,0.449
		C5.35,12.483,5.425,12.5,5.5,12.5c0.109,0,0.217-0.036,0.307-0.105L10.171,9H23.5C23.776,9,24,8.776,24,8.5v-8
		C24,0.224,23.776,0,23.5,0z M23,8H10C9.889,8,9.781,8.037,9.693,8.105L6,10.978V8.5C6,8.224,5.776,8,5.5,8H1V1h22V8z"/>
	<path d="M23.5,11h-13c-0.276,0-0.5,0.224-0.5,0.5s0.224,0.5,0.5,0.5H23v6h-4.5c-0.276,0-0.5,0.224-0.5,0.5v2.887l-3.668-3.26
		C14.241,18.045,14.123,18,14,18H1v-6h2c0.276,0,0.5-0.224,0.5-0.5S3.276,11,3,11H0.5C0.224,11,0,11.224,0,11.5v7
		C0,18.776,0.224,19,0.5,19h13.31l4.358,3.874C18.261,22.957,18.38,23,18.5,23c0.069,0,0.139-0.014,0.205-0.044
		C18.884,22.875,19,22.697,19,22.5V19h4.5c0.276,0,0.5-0.224,0.5-0.5v-7C24,11.224,23.776,11,23.5,11z"/>
</g>
</svg>
