<?xml version="1.0" encoding="utf-8"?>
<!-- Generator: Adobe Illustrator 16.0.0, SVG Export Plug-In . SVG Version: 6.00 Build 0)  -->
<!DOCTYPE svg PUBLIC "-//W3C//DTD SVG 1.1//EN" "http://www.w3.org/Graphics/SVG/1.1/DTD/svg11.dtd">
<svg version="1.1" id="Outline_Icons" xmlns="http://www.w3.org/2000/svg" xmlns:xlink="http://www.w3.org/1999/xlink" x="0px"
	 y="0px" width="24px" height="24px" viewBox="0 0 24 24" enable-background="new 0 0 24 24" xml:space="preserve">
<g>
	<path d="M6.25,14.457c-1.654,0-3,1.346-3,3c0,1.654,1.346,3,3,3s3-1.346,3-3C9.25,15.803,7.904,14.457,6.25,14.457z M6.25,19.457
		c-1.103,0-2-0.897-2-2s0.897-2,2-2s2,0.897,2,2S7.353,19.457,6.25,19.457z"/>
	<path d="M23.604,7.103l-2.146-2.146l1.146-1.146c0.362-0.361,0.561-0.841,0.562-1.352c0-0.512-0.199-0.993-0.562-1.356
		c-0.724-0.722-1.982-0.722-2.707,0L8.914,12.086c-0.829-0.413-1.742-0.629-2.664-0.629c-3.309,0-6,2.691-6,6s2.691,6,6,6
		s6-2.691,6-6c0-0.921-0.216-1.835-0.629-2.664l4.629-4.628l1.646,1.646c0.195,0.196,0.512,0.196,0.707,0l1.5-1.5
		c0.195-0.195,0.195-0.512,0-0.707l-1.646-1.646l0.793-0.793l2.146,2.146c0.195,0.196,0.512,0.196,0.707,0l1.5-1.5
		C23.799,7.615,23.799,7.298,23.604,7.103z M21.75,8.25l-2.146-2.146c-0.195-0.195-0.512-0.195-0.707,0l-1.5,1.5
		c-0.195,0.195-0.195,0.512,0,0.707l1.646,1.646L18.25,10.75l-1.646-1.646c-0.195-0.195-0.512-0.195-0.707,0l-5.245,5.244
		c-0.16,0.16-0.193,0.408-0.079,0.605c0.443,0.763,0.678,1.628,0.678,2.503c0,2.758-2.243,5-5,5s-5-2.242-5-5c0-2.757,2.243-5,5-5
		c0.875,0,1.741,0.234,2.504,0.678c0.195,0.113,0.444,0.081,0.604-0.079L20.603,1.811c0.346-0.345,0.949-0.344,1.293,0
		c0.173,0.173,0.268,0.403,0.268,0.647c0,0.244-0.095,0.474-0.268,0.646l-1.5,1.5c-0.195,0.195-0.195,0.512,0,0.707l2.146,2.146
		L21.75,8.25z"/>
</g>
</svg>
