<?xml version="1.0" encoding="UTF-8" standalone="no"?>
<svg width="16px" height="16px" viewBox="0 0 16 16" version="1.1" xmlns="http://www.w3.org/2000/svg" xmlns:xlink="http://www.w3.org/1999/xlink" xmlns:sketch="http://www.bohemiancoding.com/sketch/ns">
    <!-- Generator: Sketch 3.4.2 (15857) - http://www.bohemiancoding.com/sketch -->
    <title>arrow_down_sm</title>
    <desc>Created with Sketch.</desc>
    <defs></defs>
    <g id="Page-1" stroke="none" stroke-width="1" fill="none" fill-rule="evenodd" sketch:type="MSPage">
        <g id="arrow_down_sm" sketch:type="MSArtboardGroup" fill="#474747">
            <path d="M6.98125217,13.7918148 L6.98125217,0.7685625 C6.98125217,0.492420125 7.2051098,0.2685625 7.48125217,0.2685625 C7.75739455,0.2685625 7.98125217,0.492420125 7.98125217,0.7685625 L7.98125217,13.7918148 L13.7972574,7.00568856 C13.9769565,6.79601535 14.2926051,6.77171649 14.5022783,6.95141556 C14.7119515,7.13111462 14.7362504,7.44676322 14.5565513,7.65643644 L7.86301576,15.4664667 C7.77129915,15.5747926 7.63430669,15.6435625 7.48125217,15.6435625 C7.32819766,15.6435625 7.1912052,15.5747926 7.09948859,15.4664667 L0.405953057,7.65643644 C0.226253994,7.44676322 0.250552846,7.13111462 0.460226063,6.95141556 C0.66989928,6.77171649 0.98554788,6.79601535 1.16524694,7.00568856 L6.98125217,13.7918148 Z" id="Shape" sketch:type="MSShapeGroup"></path>
        </g>
    </g>
</svg>