<?xml version="1.0" encoding="utf-8"?>
<!-- Generator: Adobe Illustrator 16.0.0, SVG Export Plug-In . SVG Version: 6.00 Build 0)  -->
<!DOCTYPE svg PUBLIC "-//W3C//DTD SVG 1.1//EN" "http://www.w3.org/Graphics/SVG/1.1/DTD/svg11.dtd">
<svg version="1.1" id="Outline_Icons" xmlns="http://www.w3.org/2000/svg" xmlns:xlink="http://www.w3.org/1999/xlink" x="0px"
	 y="0px" width="24px" height="24px" viewBox="0 0 24 24" enable-background="new 0 0 24 24" xml:space="preserve">
<g>
	<g>
		<path d="M12,24.004c-6.617,0-12-5.383-12-12s5.383-12,12-12s12,5.383,12,12S18.617,24.004,12,24.004z M12,1.004
			c-6.065,0-11,4.935-11,11s4.935,11,11,11s11-4.935,11-11S18.065,1.004,12,1.004z"/>
	</g>
	<g>
		<path d="M15.5,19c-0.106,0-0.212-0.033-0.303-0.103l-8.5-6.496C6.573,12.307,6.5,12.16,6.5,12.004
			c0-0.155,0.072-0.303,0.196-0.397l8.5-6.504c0.219-0.167,0.534-0.125,0.701,0.094c0.168,0.219,0.126,0.533-0.093,0.701
			l-7.98,6.106l7.98,6.099c0.219,0.168,0.261,0.481,0.094,0.701C15.799,18.933,15.65,19,15.5,19z"/>
	</g>
</g>
</svg>
