<?xml version="1.0" encoding="utf-8"?>
<!-- Generator: Adobe Illustrator 16.0.0, SVG Export Plug-In . SVG Version: 6.00 Build 0)  -->
<!DOCTYPE svg PUBLIC "-//W3C//DTD SVG 1.1//EN" "http://www.w3.org/Graphics/SVG/1.1/DTD/svg11.dtd">
<svg version="1.1" id="Outline_Icons" xmlns="http://www.w3.org/2000/svg" xmlns:xlink="http://www.w3.org/1999/xlink" x="0px"
	 y="0px" width="24px" height="24px" viewBox="0 0 24 24" enable-background="new 0 0 24 24" xml:space="preserve">
<g>
	<g>
		<path d="M12,24.004c-6.617,0-12-5.383-12-12s5.383-12,12-12s12,5.383,12,12S18.617,24.004,12,24.004z M12,1.004
			c-6.065,0-11,4.935-11,11s4.935,11,11,11s11-4.935,11-11S18.065,1.004,12,1.004z"/>
	</g>
	<g>
		<path d="M18.5,16c-0.151,0-0.299-0.067-0.398-0.196L12,7.813l-6.103,7.99c-0.168,0.221-0.48,0.262-0.701,0.094
			c-0.219-0.168-0.261-0.481-0.094-0.701l6.5-8.51c0.189-0.248,0.605-0.248,0.795,0l6.5,8.51c0.167,0.22,0.125,0.533-0.094,0.701
			C18.713,15.967,18.606,16,18.5,16z"/>
	</g>
</g>
</svg>
