<svg xmlns="http://www.w3.org/2000/svg" width="24" height="24" viewBox="0 0 24 24"><path d="M13 14.5v-2.567c1.497-1.163 2.488-3.162 2.488-5.433 0-3.584-2.467-6.5-5.5-6.5s-5.5 2.916-5.5 6.5c0 2.282 1.002 4.29 2.512 5.45v2.197l-4.678 1.67A3.51 3.51 0 0 0 0 19.115V21.5a.5.5 0 0 0 .5.5h11v-1H1v-1.886c0-1.053.667-2 1.658-2.354l5.01-1.79A.5.5 0 0 0 8 14.5v-1.946A4.74 4.74 0 0 0 9.988 13c.71 0 1.388-.166 2.012-.457V14.5h1zM9.988 1c2.204 0 4.04 1.947 4.423 4.507H14.4c-1.45.28-2.352-.192-3.206-1.686a.45.45 0 0 0-.444-.25.498.498 0 0 0-.434.27C9.854 4.73 8.3 5.5 6.994 5.5c-.49 0-.934-.09-1.374-.27C6.086 2.81 7.866 1 9.988 1zm-4.5 5.5c0-.084.007-.166.01-.25.477.165.962.25 1.49.25 1.374 0 2.88-.653 3.735-1.55.797 1.11 1.737 1.636 2.93 1.636.264 0 .545-.034.835-.085 0 3.038-2.02 5.5-4.5 5.5s-4.5-2.462-4.5-5.5zm14.49 12.34l-.978.98v-3.59a.5.5 0 0 0-1 0v3.564l-.952-.952a.5.5 0 0 0-.707.707l1.78 1.78a.5.5 0 0 0 .38.18h.017a.51.51 0 0 0 .354-.146l1.818-1.818a.5.5 0 0 0-.706-.708z"/><path d="M18.5 13c-3.033 0-5.5 2.467-5.5 5.5s2.467 5.5 5.5 5.5 5.5-2.467 5.5-5.5-2.467-5.5-5.5-5.5zm0 10c-2.48 0-4.5-2.02-4.5-4.5s2.02-4.5 4.5-4.5 4.5 2.02 4.5 4.5-2.02 4.5-4.5 4.5z"/></svg>