<?xml version="1.0" encoding="utf-8"?>
<!-- Generator: Adobe Illustrator 16.0.0, SVG Export Plug-In . SVG Version: 6.00 Build 0)  -->
<!DOCTYPE svg PUBLIC "-//W3C//DTD SVG 1.1//EN" "http://www.w3.org/Graphics/SVG/1.1/DTD/svg11.dtd">
<svg version="1.1" id="Outline_Icons" xmlns="http://www.w3.org/2000/svg" xmlns:xlink="http://www.w3.org/1999/xlink" x="0px"
	 y="0px" width="24px" height="24px" viewBox="0 0 24 24" enable-background="new 0 0 24 24" xml:space="preserve">
<g>
	<path d="M13,14.5v-2.567c1.497-1.163,2.488-3.162,2.488-5.433c0-3.584-2.467-6.5-5.5-6.5s-5.5,2.916-5.5,6.5
		c0,2.282,1.002,4.289,2.512,5.449v2.198l-4.678,1.671C0.933,16.315,0,17.64,0,19.114V21.5C0,21.776,0.224,22,0.5,22h11v-1H1v-1.886
		c0-1.053,0.667-2,1.658-2.354l5.01-1.789C7.867,14.9,8,14.711,8,14.5v-1.946C8.618,12.838,9.287,13,9.988,13
		c0.71,0,1.388-0.166,2.012-0.457V14.5H13z M9.988,1c2.204,0,4.039,1.947,4.423,4.507c-0.006,0.001-0.011,0-0.018,0.001
		c-1.451,0.28-2.352-0.193-3.206-1.687c-0.09-0.159-0.221-0.26-0.444-0.252c-0.183,0.003-0.349,0.106-0.434,0.269
		C9.849,4.724,8.296,5.5,6.988,5.5c-0.49,0-0.934-0.091-1.374-0.272C6.086,2.808,7.866,1,9.988,1z M5.488,6.5
		c0-0.084,0.007-0.166,0.01-0.25C5.975,6.415,6.46,6.5,6.988,6.5c1.374,0,2.881-0.653,3.735-1.55
		c0.797,1.109,1.737,1.636,2.931,1.636c0.263,0,0.544-0.034,0.834-0.085c0,3.032-2.019,5.499-4.5,5.499S5.488,9.533,5.488,6.5z"/>
	<path d="M19.978,18.841L19,19.818v-3.591c0-0.276-0.224-0.5-0.5-0.5s-0.5,0.224-0.5,0.5v3.565l-0.952-0.952
		c-0.195-0.195-0.512-0.195-0.707,0s-0.195,0.512,0,0.707l1.779,1.779c0.092,0.111,0.225,0.186,0.38,0.186
		c0.002,0,0.004-0.001,0.006-0.001c0.002,0,0.004,0.001,0.006,0.001c0.128,0,0.256-0.049,0.354-0.146l1.818-1.818
		c0.195-0.195,0.195-0.512,0-0.707S20.173,18.646,19.978,18.841z"/>
	<path d="M18.5,13c-3.033,0-5.5,2.467-5.5,5.5s2.467,5.5,5.5,5.5s5.5-2.467,5.5-5.5S21.533,13,18.5,13z M18.5,23
		c-2.481,0-4.5-2.019-4.5-4.5s2.019-4.5,4.5-4.5s4.5,2.019,4.5,4.5S20.981,23,18.5,23z"/>
</g>
</svg>
