<svg xmlns="http://www.w3.org/2000/svg" width="24" height="24" viewBox="0 0 24 24"><path d="M12 0C5.383 0 0 5.383 0 12s5.383 12 12 12 12-5.383 12-12S18.617 0 12 0zm0 23C5.935 23 1 18.066 1 12 1 5.935 5.935 1 12 1s11 4.935 11 11c0 6.066-4.935 11-11 11z"/><path d="M18.305 6.835C16.835 5.308 14.655 4.5 12 4.5c-4.136 0-7.5 3.365-7.5 7.5 0 4.136 3.364 7.5 7.5 7.5 1.32 0 2.616-.347 3.75-1.004a.5.5 0 1 0-.5-.865 6.498 6.498 0 0 1-3.25.87c-3.584 0-6.5-2.91-6.5-6.5S8.416 5.5 12 5.5c2.376 0 4.307.702 5.584 2.03 1.03 1.07 1.623 2.557 1.623 4.076C19.207 13.25 18.434 15 17 15c-1 0-1-.485-1-1V9a.5.5 0 0 0-1 0v.382A3.975 3.975 0 0 0 12 8c-2.206 0-4 1.794-4 4s1.794 4 4 4c1.23 0 2.317-.57 3.052-1.445C15.225 15.51 15.875 16 17 16c1.858 0 3.207-1.848 3.207-4.394 0-1.775-.693-3.514-1.902-4.77zM12 15c-1.654 0-3-1.346-3-3s1.346-3 3-3 3 1.346 3 3-1.346 3-3 3z"/></svg>