<svg xmlns="http://www.w3.org/2000/svg" width="24" height="24" viewBox="0 0 24 24"><g stroke="#000" stroke-linejoin="round" stroke-miterlimit="10" fill="none"><path d="M23.5 10.759c0 5.181-5.148 9.382-11.5 9.382-1.418 0-2.775-.209-4.029-.592l-6.608 3.076 2.588-5.166c-2.13-1.703-3.45-4.076-3.45-6.7 0-5.183 5.148-9.383 11.5-9.383s11.499 4.2 11.499 9.383z"/><path stroke-linecap="round" d="M9.5 9c0-1.656 1.343-3.063 3-3.063 1.656 0 3 1.313 3 2.97s-1.344 2.969-3 2.969v1.249"/><path d="M13 15.376c0 .276-.224.5-.5.5s-.5-.224-.5-.5.224-.5.5-.5.5.224.5.5z"/></g></svg>