<?xml version="1.0" encoding="utf-8"?>
<!-- Generator: Adobe Illustrator 16.0.0, SVG Export Plug-In . SVG Version: 6.00 Build 0)  -->
<!DOCTYPE svg PUBLIC "-//W3C//DTD SVG 1.1//EN" "http://www.w3.org/Graphics/SVG/1.1/DTD/svg11.dtd">
<svg version="1.1" id="Outline_Icons" xmlns="http://www.w3.org/2000/svg" xmlns:xlink="http://www.w3.org/1999/xlink" x="0px"
	 y="0px" width="24px" height="24px" viewBox="0 0 24 24" enable-background="new 0 0 24 24" xml:space="preserve">
<g>
	<path d="M22.383,7.805c-0.959-0.925-2.202-1.442-3.529-1.473C17.613,3.994,15.153,2.5,12.5,2.5c-3.617,0-6.647,2.695-7.122,6.228
		c-1.031-0.069-2.054,0.243-2.87,0.907C1.55,10.413,1,11.569,1,12.805c0,3.449,3.029,3.987,3.958,4.069
		c0.249,0.019,0.517-0.178,0.542-0.454c0.024-0.275-0.179-0.518-0.454-0.542C3.908,15.777,2,15.243,2,12.805
		c0-0.934,0.415-1.806,1.139-2.395c0.727-0.589,1.669-0.817,2.584-0.627c0.143,0.03,0.29-0.004,0.406-0.092
		c0.115-0.088,0.187-0.222,0.195-0.367C6.518,6.058,9.23,3.5,12.5,3.5c2.377,0,4.572,1.393,5.594,3.548
		c0.086,0.18,0.228,0.296,0.471,0.285c1.16-0.051,2.284,0.38,3.125,1.191C22.534,9.34,23,10.435,23,11.609
		c0,3.721-3.713,4.265-3.87,4.287c-0.273,0.037-0.466,0.288-0.43,0.562c0.033,0.251,0.248,0.434,0.494,0.434
		c0.021,0,0.044-0.001,0.065-0.004c0.048-0.006,4.74-0.671,4.74-5.278C24,10.161,23.426,8.81,22.383,7.805z"/>
	<path d="M12,11.195c-3.032,0-5.5,2.467-5.5,5.5s2.468,5.5,5.5,5.5s5.5-2.467,5.5-5.5S15.032,11.195,12,11.195z M12,21.195
		c-2.481,0-4.5-2.019-4.5-4.5s2.019-4.5,4.5-4.5s4.5,2.019,4.5,4.5S14.481,21.195,12,21.195z"/>
	<path d="M13.646,15.342L11.5,17.488l-1.146-1.146c-0.195-0.195-0.512-0.195-0.707,0s-0.195,0.512,0,0.707l1.5,1.5
		c0.098,0.098,0.226,0.146,0.354,0.146s0.256-0.049,0.354-0.146l2.5-2.5c0.195-0.195,0.195-0.512,0-0.707
		S13.842,15.146,13.646,15.342z"/>
</g>
</svg>
