<svg xmlns="http://www.w3.org/2000/svg" width="24" height="24" viewBox="0 0 24 24"><path d="M1.63.922a.5.5 0 0 0-.706.707l21.448 21.44a.498.498 0 0 0 .708 0 .5.5 0 0 0 0-.708L1.63.92zm7.65 4.673A6.418 6.418 0 0 1 12 5a6.526 6.526 0 0 1 5.87 3.723.51.51 0 0 0 .47.285 4.497 4.497 0 0 1 3.282 1.25 4.466 4.466 0 0 1 1.38 3.242c0 1.327-.446 2.407-1.325 3.21a.5.5 0 1 0 .676.74C23.447 16.447 24 15.12 24 13.5a5.455 5.455 0 0 0-1.685-3.962 5.432 5.432 0 0 0-3.687-1.53A7.53 7.53 0 0 0 12 4c-1.1 0-2.155.23-3.14.688a.5.5 0 0 0 .42.907zM15 18H4.493c.01.006-1.634.017-2.66-.996C1.28 16.46 1 15.702 1 14.75a3.25 3.25 0 0 1 3.92-3.18.5.5 0 0 0 .6-.46c.04-.655.175-1.294.4-1.898a.497.497 0 0 0-.29-.643.503.503 0 0 0-.644.29 7.47 7.47 0 0 0-.412 1.65 4.23 4.23 0 0 0-3.005.94A4.23 4.23 0 0 0 0 14.75c0 1.23.38 2.23 1.13 2.967C2.394 18.962 4.263 19 4.482 19H15a.5.5 0 0 0 0-1z"/></svg>