<svg xmlns="http://www.w3.org/2000/svg" width="24" height="24" viewBox="0 0 24 24"><path d="M18.628 8.006A7.534 7.534 0 0 0 12 4a7.502 7.502 0 0 0-7.427 6.51C2.12 10.32 0 12.297 0 14.75c0 2.177 1.19 3.22 2.188 3.71a5.6 5.6 0 0 0 2.3.54l14.576-.004C19.114 18.99 24 18.298 24 13.5a5.5 5.5 0 0 0-5.372-5.494zM19 18H4.494l-.005.5V18C4.13 18 1 17.91 1 14.75a3.252 3.252 0 0 1 3.92-3.18.498.498 0 0 0 .6-.46A6.5 6.5 0 0 1 12 5a6.526 6.526 0 0 1 5.868 3.723c.086.18.273.3.47.285l.174-.003A4.497 4.497 0 0 1 23 13.5c0 3.912-3.9 4.482-4 4.5z"/></svg>