<?xml version="1.0" encoding="utf-8"?>
<!-- Generator: Adobe Illustrator 16.0.0, SVG Export Plug-In . SVG Version: 6.00 Build 0)  -->
<!DOCTYPE svg PUBLIC "-//W3C//DTD SVG 1.1//EN" "http://www.w3.org/Graphics/SVG/1.1/DTD/svg11.dtd">
<svg version="1.1" id="Outline_Icons" xmlns="http://www.w3.org/2000/svg" xmlns:xlink="http://www.w3.org/1999/xlink" x="0px"
	 y="0px" width="24px" height="24px" viewBox="0 0 24 24" enable-background="new 0 0 24 24" xml:space="preserve">
<path d="M18.628,8.006C17.337,5.562,14.77,4,12,4c-3.777,0-6.941,2.819-7.427,6.511C2.12,10.32,0,12.296,0,14.75
	c0,2.177,1.19,3.219,2.188,3.709C3.237,18.974,4.289,19,4.489,19l14.575-0.004C19.114,18.989,24,18.298,24,13.5
	C24,10.509,21.601,8.068,18.628,8.006z M19,18H4.494l-0.005,0.5V18C4.132,18,1,17.909,1,14.75c0-1.793,1.456-3.251,3.245-3.251
	c0.225,0,0.451,0.023,0.675,0.07c0.139,0.029,0.289-0.004,0.405-0.092c0.115-0.088,0.187-0.222,0.195-0.368
	C5.723,7.683,8.569,5,12,5c2.493,0,4.797,1.461,5.868,3.723c0.086,0.18,0.273,0.299,0.471,0.285l0.173-0.003
	C20.986,9.005,23,11.021,23,13.5C23,17.412,19.101,17.982,19,18z"/>
</svg>
