<svg xmlns="http://www.w3.org/2000/svg" width="24" height="24" viewBox="0 0 24 24"><path d="M22.383 7.804a5.222 5.222 0 0 0-3.528-1.472A7.235 7.235 0 0 0 12.5 2.5a7.196 7.196 0 0 0-7.12 6.23 4.07 4.07 0 0 0-2.87.905A4.065 4.065 0 0 0 1 12.805c0 3.332 2.897 3.943 3.785 4.05a.5.5 0 0 0 .12-.993C3.82 15.73 2 15.158 2 12.805c0-.933.415-1.806 1.14-2.395s1.667-.817 2.584-.626a.5.5 0 0 0 .6-.46A6.194 6.194 0 0 1 12.5 3.5a6.227 6.227 0 0 1 5.595 3.548c.086.18.22.296.47.285a4.217 4.217 0 0 1 3.124 1.19A4.255 4.255 0 0 1 23 11.61c0 2.523-1.66 3.61-3.053 4.08a.5.5 0 1 0 .32.947C21.66 16.167 24 14.892 24 11.61c0-1.45-.574-2.8-1.617-3.806z"/><path d="M15.302 18.796c-.67.89-1.69 1.4-2.802 1.4-1.85 0-3.355-1.448-3.477-3.27l.623.624a.498.498 0 0 0 .708 0 .5.5 0 0 0 0-.707l-1.5-1.5a.5.5 0 0 0-.71 0l-1.497 1.5a.5.5 0 0 0 .707.707l.665-.666c.1 2.393 2.06 4.312 4.48 4.312 1.43 0 2.74-.656 3.6-1.8a.5.5 0 1 0-.8-.6zm2.344-2.952l-.665.666c-.1-2.393-2.06-4.312-4.48-4.312-1.43 0-2.74.656-3.6 1.8a.5.5 0 1 0 .8.6 3.47 3.47 0 0 1 2.8-1.4c1.85 0 3.36 1.448 3.48 3.27l-.62-.624a.5.5 0 0 0-.708.707l1.5 1.5a.52.52 0 0 0 .353.15.51.51 0 0 0 .355-.144l1.5-1.5a.5.5 0 0 0-.708-.706z"/></svg>