<svg xmlns="http://www.w3.org/2000/svg" width="24" height="24" viewBox="0 0 24 24"><g stroke="#000" stroke-linecap="round" stroke-linejoin="round" stroke-miterlimit="10" fill="none"><path d="M20.106 16.163c1.264-.425 3.394-1.582 3.394-4.554 0-2.676-2.207-4.875-4.953-4.775-1.074-2.264-3.373-3.834-6.047-3.834-3.562 0-6.467 2.783-6.674 6.295-2.232-.467-4.326 1.232-4.326 3.51 0 2.836 2.318 3.43 3.346 3.555M9.301 14.297c.729-.972 1.892-1.6 3.199-1.6 2.21 0 4 1.791 4 4v1M15.701 19.097c-.73.972-1.893 1.601-3.201 1.601-2.209 0-4-1.791-4-4v-1M7 17.197l1.5-1.5 1.5 1.5M18 16.197l-1.5 1.5-1.5-1.5"/></g></svg>