<?xml version="1.0" encoding="utf-8"?>
<!-- Generator: Adobe Illustrator 16.0.0, SVG Export Plug-In . SVG Version: 6.00 Build 0)  -->
<!DOCTYPE svg PUBLIC "-//W3C//DTD SVG 1.1//EN" "http://www.w3.org/Graphics/SVG/1.1/DTD/svg11.dtd">
<svg version="1.1" id="Outline_Icons" xmlns="http://www.w3.org/2000/svg" xmlns:xlink="http://www.w3.org/1999/xlink" x="0px"
	 y="0px" width="24px" height="24px" viewBox="0 0 24 24" enable-background="new 0 0 24 24" xml:space="preserve">
<g>
	<path d="M1.631,0.922c-0.195-0.195-0.512-0.195-0.707,0s-0.195,0.512,0,0.707l21.448,21.448c0.098,0.098,0.226,0.146,0.354,0.146
		s0.256-0.049,0.354-0.146c0.195-0.195,0.195-0.512,0-0.707L1.631,0.922z"/>
	<path d="M9.281,5.595C10.133,5.2,11.048,5,12.001,5c2.493,0,4.797,1.461,5.868,3.723c0.085,0.18,0.279,0.289,0.471,0.285
		c1.227-0.036,2.398,0.398,3.282,1.25c0.889,0.857,1.379,2.008,1.379,3.242c0,1.327-0.445,2.407-1.324,3.211
		c-0.203,0.187-0.218,0.502-0.031,0.706c0.099,0.108,0.233,0.163,0.369,0.163c0.121,0,0.241-0.043,0.338-0.131
		c1.094-1.001,1.648-2.33,1.648-3.949c0-1.508-0.599-2.915-1.686-3.962c-1.002-0.966-2.301-1.503-3.687-1.531
		C17.338,5.562,14.771,4,12.001,4c-1.1,0-2.156,0.231-3.14,0.688C8.61,4.804,8.502,5.102,8.618,5.352
		C8.733,5.602,9.033,5.711,9.281,5.595z"/>
	<path d="M15,18H4.493c0.011,0.006-1.634,0.017-2.661-0.996c-0.552-0.543-0.831-1.302-0.831-2.254c0-0.983,0.438-1.902,1.199-2.521
		c0.765-0.621,1.756-0.86,2.72-0.66c0.143,0.03,0.291-0.004,0.406-0.092c0.115-0.088,0.187-0.223,0.195-0.368
		c0.039-0.654,0.174-1.293,0.4-1.897C6.02,8.954,5.889,8.666,5.63,8.569C5.373,8.474,5.083,8.603,4.986,8.861
		c-0.199,0.531-0.337,1.084-0.412,1.651c-1.077-0.085-2.152,0.247-3.005,0.941c-0.997,0.81-1.568,2.012-1.568,3.297
		c0,1.23,0.38,2.229,1.129,2.967C2.394,18.962,4.263,19,4.482,19c0.009,0,0.016,0,0.019,0H15c0.276,0,0.5-0.224,0.5-0.5
		S15.276,18,15,18z"/>
</g>
</svg>
