<?xml version="1.0" encoding="utf-8"?>
<!-- Generator: Adobe Illustrator 16.0.0, SVG Export Plug-In . SVG Version: 6.00 Build 0)  -->
<!DOCTYPE svg PUBLIC "-//W3C//DTD SVG 1.1//EN" "http://www.w3.org/Graphics/SVG/1.1/DTD/svg11.dtd">
<svg version="1.1" id="Outline_Icons" xmlns="http://www.w3.org/2000/svg" xmlns:xlink="http://www.w3.org/1999/xlink" x="0px"
	 y="0px" width="24px" height="24px" viewBox="0 0 24 24" enable-background="new 0 0 24 24" xml:space="preserve">
<g>
	<path d="M22.383,7.804c-0.959-0.925-2.202-1.441-3.528-1.472C17.612,3.994,15.153,2.5,12.5,2.5c-3.617,0-6.647,2.695-7.121,6.229
		c-1.032-0.075-2.055,0.243-2.87,0.906C1.55,10.413,1,11.569,1,12.805c0,3.332,2.897,3.943,3.785,4.051
		c0.021,0.002,0.041,0.003,0.062,0.003c0.249,0,0.465-0.186,0.495-0.439c0.033-0.274-0.161-0.523-0.436-0.557
		C3.82,15.731,2,15.158,2,12.805c0-0.933,0.415-1.806,1.14-2.395s1.667-0.817,2.584-0.626c0.142,0.029,0.29-0.003,0.406-0.092
		C6.245,9.604,6.316,9.47,6.325,9.324C6.518,6.059,9.23,3.5,12.5,3.5c2.376,0,4.572,1.393,5.595,3.548
		c0.086,0.18,0.219,0.296,0.471,0.285c1.166-0.051,2.283,0.38,3.123,1.19C22.534,9.339,23,10.435,23,11.609
		c0,2.524-1.66,3.612-3.053,4.08c-0.262,0.088-0.402,0.372-0.314,0.633c0.089,0.262,0.372,0.403,0.633,0.315
		C21.66,16.168,24,14.892,24,11.609C24,10.161,23.426,8.81,22.383,7.804z"/>
	<path d="M15.302,18.796c-0.67,0.89-1.69,1.401-2.802,1.401c-1.851,0-3.355-1.449-3.477-3.27l0.623,0.623
		c0.098,0.098,0.226,0.146,0.354,0.146s0.256-0.049,0.354-0.146c0.195-0.195,0.195-0.512,0-0.707l-1.499-1.5
		c-0.047-0.046-0.103-0.083-0.163-0.108c-0.123-0.051-0.26-0.051-0.383,0c-0.061,0.025-0.116,0.062-0.163,0.108l-1.499,1.5
		c-0.195,0.195-0.195,0.512,0,0.707s0.512,0.195,0.707,0l0.665-0.666c0.102,2.393,2.064,4.312,4.481,4.312
		c1.429,0,2.741-0.656,3.601-1.8c0.166-0.221,0.122-0.534-0.099-0.7C15.78,18.532,15.468,18.576,15.302,18.796z"/>
	<path d="M17.646,15.844l-0.665,0.666c-0.102-2.393-2.064-4.312-4.481-4.312c-1.429,0-2.74,0.656-3.599,1.799
		c-0.166,0.221-0.122,0.534,0.1,0.7c0.221,0.166,0.534,0.122,0.699-0.1c0.668-0.89,1.688-1.4,2.8-1.4
		c1.851,0,3.355,1.449,3.477,3.27l-0.623-0.623c-0.195-0.195-0.512-0.195-0.707,0s-0.195,0.512,0,0.707l1.499,1.5
		c0.047,0.046,0.103,0.083,0.163,0.108c0.062,0.025,0.126,0.039,0.191,0.039s0.13-0.013,0.191-0.039
		c0.061-0.025,0.116-0.062,0.163-0.108l1.499-1.5c0.195-0.195,0.195-0.512,0-0.707S17.842,15.648,17.646,15.844z"/>
</g>
</svg>
