<?xml version="1.0" encoding="utf-8"?>
<!-- Generator: Adobe Illustrator 16.0.0, SVG Export Plug-In . SVG Version: 6.00 Build 0)  -->
<!DOCTYPE svg PUBLIC "-//W3C//DTD SVG 1.1//EN" "http://www.w3.org/Graphics/SVG/1.1/DTD/svg11.dtd">
<svg version="1.1" id="Outline_Icons" xmlns="http://www.w3.org/2000/svg" xmlns:xlink="http://www.w3.org/1999/xlink" x="0px"
	 y="0px" width="24px" height="24px" viewBox="0 0 24 24" enable-background="new 0 0 24 24" xml:space="preserve">
<path d="M20.961,6.308c-0.025-0.061-0.062-0.116-0.108-0.162l-5.999-5.999c-0.046-0.046-0.101-0.083-0.162-0.108
	C14.632,0.014,14.567,0,14.5,0h-8C6.224,0,6,0.224,6,0.5V3H3.5C3.224,3,3,3.224,3,3.5v20C3,23.776,3.224,24,3.5,24h14
	c0.276,0,0.5-0.224,0.5-0.5V21h2.5c0.276,0,0.5-0.224,0.5-0.5v-14C21,6.433,20.986,6.368,20.961,6.308z M15,1.707L19.293,6H15V1.707
	z M17,23H4V4h2v16.5C6,20.776,6.224,21,6.5,21H17V23z M7,20V1h7v5.5C14,6.776,14.224,7,14.5,7H20v13H7z"/>
</svg>
