<svg xmlns="http://www.w3.org/2000/svg" width="24" height="24" viewBox="0 0 24 24"><path d="M11.5 0C5.16 0 0 5.16 0 11.5S5.16 23 11.5 23 23 17.84 23 11.5 17.84 0 11.5 0zm0 22C5.71 22 1 17.29 1 11.5S5.71 1 11.5 1 22 5.71 22 11.5 17.29 22 11.5 22z"/><path d="M13.5 9a.5.5 0 0 0 1 0A2.997 2.997 0 0 0 12 6.05V5a.5.5 0 0 0-1 0v1.05A3 3 0 0 0 8.5 9a3 3 0 0 0 2.5 2.95v3.978a2 2 0 0 1-1.5-1.93.5.5 0 1 0-1 .002 2.997 2.997 0 0 0 2.5 2.95V18a.5.5 0 0 0 1 0v-1.05A3 3 0 0 0 14.5 14a3 3 0 0 0-2.5-2.95V7.07A2 2 0 0 1 13.5 9zm-4 0A2 2 0 0 1 11 7.07v3.858c-.86-.223-1.5-1-1.5-1.928zm4 5a2 2 0 0 1-1.5 1.93v-3.86c.86.223 1.5 1 1.5 1.928z"/></svg>