<?xml version="1.0" encoding="utf-8"?>
<!-- Generator: Adobe Illustrator 16.0.0, SVG Export Plug-In . SVG Version: 6.00 Build 0)  -->
<!DOCTYPE svg PUBLIC "-//W3C//DTD SVG 1.1//EN" "http://www.w3.org/Graphics/SVG/1.1/DTD/svg11.dtd">
<svg version="1.1" id="Outline_Icons" xmlns="http://www.w3.org/2000/svg" xmlns:xlink="http://www.w3.org/1999/xlink" x="0px"
	 y="0px" width="24px" height="24px" viewBox="0 0 24 24" enable-background="new 0 0 24 24" xml:space="preserve">
<path d="M12,11.5v-8c2.206,0,4,1.794,4,4C16,7.776,16.224,8,16.5,8S17,7.776,17,7.5c0-2.757-2.243-5-5-5v-2
	C12,0.224,11.776,0,11.5,0S11,0.224,11,0.5v2.101C8.721,3.065,7,5.085,7,7.5s1.721,4.435,4,4.899v7.959c-1.721-0.447-3-2-3-3.858
	C8,16.224,7.776,16,7.5,16S7,16.224,7,16.5c0,2.415,1.721,4.435,4,4.899V23.5c0,0.276,0.224,0.5,0.5,0.5s0.5-0.224,0.5-0.5v-2
	c2.757,0,5-2.243,5-5S14.757,11.5,12,11.5z M8,7.5c0-1.858,1.279-3.411,3-3.858v7.716C9.279,10.911,8,9.358,8,7.5z M12,20.5v-8
	c2.206,0,4,1.794,4,4S14.206,20.5,12,20.5z"/>
</svg>
