<?xml version="1.0" encoding="utf-8"?>
<!-- Generator: Adobe Illustrator 16.0.0, SVG Export Plug-In . SVG Version: 6.00 Build 0)  -->
<!DOCTYPE svg PUBLIC "-//W3C//DTD SVG 1.1//EN" "http://www.w3.org/Graphics/SVG/1.1/DTD/svg11.dtd">
<svg version="1.1" id="Outline_Icons" xmlns="http://www.w3.org/2000/svg" xmlns:xlink="http://www.w3.org/1999/xlink" x="0px"
	 y="0px" width="24px" height="24px" viewBox="0 0 24 24" enable-background="new 0 0 24 24" xml:space="preserve">
<g>
	<path d="M11.5,0C5.159,0,0,5.159,0,11.5S5.159,23,11.5,23S23,17.841,23,11.5S17.841,0,11.5,0z M11.5,22C5.71,22,1,17.29,1,11.5
		S5.71,1,11.5,1S22,5.71,22,11.5S17.29,22,11.5,22z"/>
	<path d="M13.5,9c0,0.276,0.224,0.5,0.5,0.5s0.5-0.224,0.5-0.5c0-1.483-1.084-2.71-2.5-2.949V5c0-0.276-0.224-0.5-0.5-0.5
		S11,4.724,11,5v1.051C9.584,6.29,8.5,7.517,8.5,9s1.084,2.71,2.5,2.949v3.979c-0.86-0.224-1.5-1-1.5-1.929
		c0-0.276-0.224-0.5-0.5-0.5S8.5,13.724,8.5,14c0,1.483,1.084,2.71,2.5,2.949V18c0,0.276,0.224,0.5,0.5,0.5S12,18.276,12,18v-1.051
		c1.416-0.239,2.5-1.466,2.5-2.949s-1.084-2.71-2.5-2.949V7.071C12.86,7.295,13.5,8.071,13.5,9z M9.5,9
		c0-0.929,0.64-1.705,1.5-1.929v3.857C10.14,10.705,9.5,9.929,9.5,9z M13.5,14c0,0.929-0.64,1.705-1.5,1.929v-3.857
		C12.86,12.295,13.5,13.071,13.5,14z"/>
</g>
</svg>
