<svg xmlns="http://www.w3.org/2000/svg" width="24" height="24"><path d="M21.383 7.914a5.217 5.217 0 0 0-3.53-1.472A7.227 7.227 0 0 0 11.5 2.61a7.197 7.197 0 0 0-7.123 6.227 4.063 4.063 0 0 0-2.868.904A4.07 4.07 0 0 0 0 12.92c0 1.18.365 2.14 1.087 2.85C2.302 16.962 4.1 17 4.31 17h1.922a.5.5 0 1 0 0-1H4.32c-.07.017-1.574.002-2.536-.95-.52-.517-.784-1.236-.784-2.14a3.09 3.09 0 0 1 3.722-3.02.5.5 0 0 0 .6-.46A6.197 6.197 0 0 1 11.5 3.61a6.222 6.222 0 0 1 5.593 3.55c.086.18.22.294.47.285a4.23 4.23 0 0 1 3.126 1.19A4.25 4.25 0 0 1 22 11.717c0 3.723-3.712 4.266-3.805 4.283H16.74a.5.5 0 0 0 0 1l1.52-.004c.048-.006 4.74-.67 4.74-5.28a5.238 5.238 0 0 0-1.617-3.802z"/><path d="M14.146 18.45L12 20.595v-8.793a.5.5 0 0 0-1 0v8.793L8.854 18.45a.5.5 0 0 0-.707.707l3 3a.52.52 0 0 0 .353.147.51.51 0 0 0 .354-.147l3-3a.5.5 0 0 0-.708-.708z"/></svg>