<svg width="24" height="24" xmlns="http://www.w3.org/2000/svg"><title>dropdown</title><g fill="none" fill-rule="evenodd"><path d="M21.995 8H2.005A1 1 0 0 0 1 8.997v5.006A1 1 0 0 0 2.005 15h19.99A1 1 0 0 0 23 14.003V8.997A1 1 0 0 0 21.995 8zm0-1C23.102 7 24 7.896 24 8.997v5.006A2 2 0 0 1 21.995 16H2.005A2.002 2.002 0 0 1 0 14.003V8.997A2 2 0 0 1 2.005 7h19.99z" fill="#474747"/><path d="M14.646 10.354l3 3a.5.5 0 0 0 .708 0l3-3a.5.5 0 0 0-.708-.708l-3 3h.708l-3-3a.5.5 0 0 0-.708.708z" fill="#000"/></g></svg>