<svg xmlns="http://www.w3.org/2000/svg" width="24" height="24" viewBox="0 0 24 24"><path d="M23.25 2.894L21.128.77c-.943-.942-2.592-.942-3.536 0l-.707.708L2.247 16.12s-.003 0-.004.003c0 .002 0 .003-.003.004l-.248.25a.5.5 0 0 0-.133.238L.34 23.077a.5.5 0 0 0 .6.6l6.467-1.516a.5.5 0 0 0 .238-.13l.248-.25h.004l.003-.002 13.2-13.2c.004-.002.01-.004.014-.01l.01-.014 1.404-1.403c.005-.006.01-.007.014-.01s.005-.01.01-.014l.696-.697a2.504 2.504 0 0 0 0-3.536zM20.763 7.5L16.53 3.25l.708-.71 4.244 4.244-.72.72zM7.546 20.718l-4.242-4.242 12.52-12.52 4.232 4.252-12.51 12.51zm-4.823-3.41l3.99 3.992L1.5 22.52l1.223-5.212zm19.82-11.586l-.355.355-4.244-4.244.354-.353c.565-.566 1.555-.567 2.122 0l2.122 2.12a1.503 1.503 0 0 1 0 2.12z"/></svg>