<svg xmlns="http://www.w3.org/2000/svg" width="24" height="24" viewBox="0 0 24 24"><path d="M23.892 11.69C23.676 11.417 18.52 5 12 5S.324 11.417.108 11.69a.5.5 0 0 0 0 .62C.324 12.584 5.48 19 12 19s11.676-6.417 11.892-6.69a.5.5 0 0 0 0-.62zM12 18c-5.247 0-9.734-4.73-10.845-6C2.265 10.73 6.753 6 12 6s9.734 4.73 10.845 6c-1.11 1.27-5.598 6-10.845 6z"/><path d="M12 7.5c-2.48 0-4.5 2.02-4.5 4.5 0 2.482 2.02 4.5 4.5 4.5s4.5-2.018 4.5-4.5c0-2.48-2.02-4.5-4.5-4.5zm0 8c-1.93 0-3.5-1.57-3.5-3.5s1.57-3.5 3.5-3.5 3.5 1.57 3.5 3.5-1.57 3.5-3.5 3.5z"/></svg>