<?xml version="1.0" encoding="utf-8"?>
<!-- Generator: Adobe Illustrator 16.0.0, SVG Export Plug-In . SVG Version: 6.00 Build 0)  -->
<!DOCTYPE svg PUBLIC "-//W3C//DTD SVG 1.1//EN" "http://www.w3.org/Graphics/SVG/1.1/DTD/svg11.dtd">
<svg version="1.1" id="Outline_Icons" xmlns="http://www.w3.org/2000/svg" xmlns:xlink="http://www.w3.org/1999/xlink" x="0px"
	 y="0px" width="24px" height="24px" viewBox="0 0 24 24" enable-background="new 0 0 24 24" xml:space="preserve">
<g>
	<path d="M23.892,11.69c-0.065-0.082-1.614-2.023-4.082-3.807c-0.224-0.162-0.537-0.111-0.698,0.112
		c-0.162,0.224-0.111,0.536,0.112,0.699c1.785,1.29,3.09,2.696,3.621,3.306c-1.11,1.27-5.598,6-10.846,6
		c-0.931,0-1.892-0.148-2.856-0.443C8.878,17.479,8.6,17.626,8.52,17.89c-0.08,0.264,0.069,0.543,0.333,0.625
		C9.911,18.836,10.97,19,12,19c6.519,0,11.676-6.417,11.892-6.689C24.036,12.128,24.036,11.872,23.892,11.69z"/>
	<path d="M4.467,16.201c0.155,0,0.308-0.071,0.405-0.207c0.162-0.224,0.112-0.537-0.111-0.698C2.984,14.009,1.684,12.609,1.154,12
		C2.264,10.73,6.752,6,12,6c0.776,0,1.577,0.104,2.38,0.31c0.268,0.069,0.541-0.093,0.608-0.36c0.068-0.268-0.093-0.54-0.36-0.608
		C13.744,5.115,12.859,5,12,5C5.481,5,0.324,11.417,0.108,11.69c-0.144,0.182-0.144,0.438,0,0.621
		c0.064,0.082,1.608,2.015,4.066,3.795C4.263,16.17,4.366,16.201,4.467,16.201z"/>
	<path d="M7.5,12c0,0.276,0.224,0.5,0.5,0.5s0.5-0.224,0.5-0.5c0-1.93,1.57-3.5,3.5-3.5c0.276,0,0.5-0.224,0.5-0.5
		S12.276,7.5,12,7.5C9.519,7.5,7.5,9.519,7.5,12z"/>
	<path d="M15.5,12c0,1.93-1.57,3.5-3.5,3.5c-0.276,0-0.5,0.224-0.5,0.5s0.224,0.5,0.5,0.5c2.481,0,4.5-2.018,4.5-4.5
		c0-0.276-0.224-0.5-0.5-0.5S15.5,11.724,15.5,12z"/>
	<path d="M22.104,1.896c-0.195-0.195-0.512-0.195-0.707,0l-19.5,19.5c-0.195,0.196-0.195,0.512,0,0.707
		c0.098,0.098,0.226,0.146,0.354,0.146s0.256-0.049,0.354-0.146l19.5-19.5C22.299,2.408,22.299,2.093,22.104,1.896z"/>
</g>
</svg>
