<svg xmlns="http://www.w3.org/2000/svg" width="24" height="24" viewBox="0 0 24 24"><path d="M16 13h1V5.5a.5.5 0 0 0-.147-.354l-5-5A.495.495 0 0 0 11.5 0H.5a.5.5 0 0 0-.5.5v21a.5.5 0 0 0 .5.5h9v-1H1V1h10v4.5a.5.5 0 0 0 .5.5H16v7zM12 1.707L15.293 5H12V1.707zm11.854 12.94l-2.5-2.5a.514.514 0 0 0-.707 0l-7.5 7.5a.49.49 0 0 0-.117.198c-.002.007-.01.012-.01.02l-1 3.5a.5.5 0 0 0 .617.618l3.5-1c.007-.002.012-.01.02-.01a.49.49 0 0 0 .197-.117l7.5-7.502a.5.5 0 0 0 0-.708zM16 21.797L14.207 20 19 15.207 20.795 17 16 21.795zm-2.253-.84l1.298 1.3-1.817.52.52-1.82zM21.5 16.29l-1.79-1.79L21 13.207 22.795 15 21.5 16.293z"/></svg>