<?xml version="1.0" encoding="utf-8"?>
<!-- Generator: Adobe Illustrator 16.0.0, SVG Export Plug-In . SVG Version: 6.00 Build 0)  -->
<!DOCTYPE svg PUBLIC "-//W3C//DTD SVG 1.1//EN" "http://www.w3.org/Graphics/SVG/1.1/DTD/svg11.dtd">
<svg version="1.1" id="Outline_Icons" xmlns="http://www.w3.org/2000/svg" xmlns:xlink="http://www.w3.org/1999/xlink" x="0px"
	 y="0px" width="24px" height="24px" viewBox="0 0 24 24" enable-background="new 0 0 24 24" xml:space="preserve">
<g>
	<path d="M16,13h1V5.5c0-0.067-0.014-0.132-0.039-0.192c-0.025-0.061-0.062-0.116-0.108-0.162l-4.999-4.999
		c-0.046-0.046-0.101-0.083-0.162-0.108C11.632,0.014,11.567,0,11.5,0h-11C0.224,0,0,0.224,0,0.5v21C0,21.776,0.224,22,0.5,22h9v-1
		H1V1h10v4.5C11,5.776,11.224,6,11.5,6H16V13z M12,1.707L15.293,5H12V1.707z"/>
	<path d="M23.854,14.646l-2.5-2.5c-0.188-0.188-0.52-0.188-0.707,0l-7.501,7.502c-0.057,0.057-0.092,0.125-0.116,0.197
		c-0.002,0.007-0.009,0.012-0.011,0.02l-1,3.5c-0.05,0.174-0.001,0.362,0.127,0.491c0.095,0.095,0.223,0.146,0.354,0.146
		c0.046,0,0.092-0.006,0.137-0.019l3.5-1c0.007-0.002,0.012-0.009,0.02-0.011c0.072-0.024,0.14-0.059,0.197-0.116l7.501-7.502
		C24.05,15.158,24.05,14.842,23.854,14.646z M16,21.795l-1.793-1.793l4.794-4.795L20.794,17L16,21.795z M13.747,20.957l1.298,1.298
		l-1.817,0.52L13.747,20.957z M21.501,16.293L19.708,14.5l1.293-1.293L22.794,15L21.501,16.293z"/>
</g>
</svg>
