<svg xmlns="http://www.w3.org/2000/svg" width="24" height="24"><path d="M20.93 4.01a.504.504 0 0 0-.16-.174A12 12 0 0 0 15.484.52l-.04-.01A11.953 11.953 0 0 0 12 0C5.383 0 0 5.383 0 12s5.383 12 12 12 12-5.383 12-12c0-3.07-1.168-5.865-3.07-7.99zm-.983.406c-.16.62-.7 2.294-2.02 3.056-1.772-.346-3.476.622-3.844 1.07-.237.29-.155.547-.11.644.067.14.24.257.406.298.16.188.46.938.63 1.638a.503.503 0 0 0 .13.232c.482.485 1.18.4 1.63.266.06.535-.7 1.383-1.44 2.158-.56.577-.84.867-.84 1.222 0 .415.304.68.526.873.075.064.205.172.217.15 0 0-.017.043-.098.124-.65.648-1.3.878-1.306.88a.5.5 0 0 0-.34.473c0 1.308-.817 1.98-2.43 2-.336-.25-1.05-1.632-1.07-2 0-.132.1-.333.197-.526.143-.284.304-.606.304-.974 0-.562-.62-1.304-1.004-1.708-.03-.618-.21-1.07-.538-1.382-.566-.532-1.41-.484-2.224-.438-.24.013-.486.028-.734.028-.98 0-1-1.44-1-1.5 0-.03.024-3.095 2.098-3.51C8.545 7.2 8.97 7.47 9 7.5c0 .133.053.26.146.354.894.894 2.25.58 3.34.325.395-.1.768-.18 1.014-.18a.5.5 0 0 0 .495-.43c.19-1.33.28-3.01-.372-3.48-.242-.18-.55-.19-.847-.04-.362.18-.7.21-.926.08-.252-.14-.33-.45-.353-.686-.06-.64 1.948-1.52 3.837-1.933a11.03 11.03 0 0 1 4.613 2.9zM12 23C5.935 23 1 18.066 1 12 1 5.935 5.935 1 12 1c.425 0 .842.03 1.254.077-1.366.493-2.86 1.3-2.752 2.47.062.67.37 1.19.863 1.466.476.265 1.085.266 1.698.008.087.36.084 1.18-.008 2.02-.25.04-.518.1-.795.17-.84.2-1.783.417-2.31.03a1.095 1.095 0 0 0-.346-.484c-.51-.42-1.395-.497-2.702-.236C4.032 7.083 4 10.84 4 11c0 .865.418 2.5 2 2.5.267 0 .534-.015.793-.03.63-.036 1.227-.07 1.478.167.16.143.23.434.23.863 0 .132.06.26.15.354.43.424.83.975.86 1.146 0 .132-.1.333-.197.526-.142.284-.303.606-.303.974 0 .507 1.025 3 2 3 2.09 0 3.343-.966 3.486-2.665.327-.158.85-.463 1.368-.98.268-.267.398-.547.388-.834-.016-.43-.33-.7-.558-.9-.04-.03-.09-.08-.13-.1.118-.14.334-.37.5-.54.94-.976 2.513-2.61 1.3-3.824a.5.5 0 0 0-.577-.094c-.21.105-.627.22-.84.145-.245-.93-.502-1.464-.732-1.774.55-.312 1.62-.703 2.676-.44.11.03.237.017.344-.036 1.417-.71 2.146-2.16 2.493-3.13A10.928 10.928 0 0 1 23 12c0 6.066-4.935 11-11 11z"/></svg>