<svg xmlns="http://www.w3.org/2000/svg" width="24" height="24" viewBox="0 0 24 24"><g stroke="#000" stroke-linejoin="round" stroke-miterlimit="10" fill="none"><path d="M18.5 6.976c0 3.604-2.918 6.524-6.518 6.524s-6.482-3.038-6.482-6.642c0-3.509 2.753-6.213 6.221-6.353l.282-.005c3.6 0 6.497 2.872 6.497 6.476zM11.721.506c-3.392 3.674-3.392 8.467 0 12.989M12.285.506c3.392 3.674 3.392 8.466 0 12.987M6.574 10.5h10.894M6.453 3.5h11.043M5.5 7h13"/><circle stroke-linecap="round" cx="4.5" cy="17.015" r="2.5"/><circle stroke-linecap="round" cx="12" cy="17.015" r="2.5"/><circle stroke-linecap="round" cx="19.5" cy="17.015" r="2.5"/><path stroke-linecap="round" d="M19.5 19.507c-1.733 0-3.194 1.112-3.75 2.654-.556-1.542-2.017-2.648-3.75-2.648s-3.194 1.109-3.75 2.65c-.556-1.541-2.017-2.656-3.75-2.656-2.21 0-4 1.993-4 3.993h23c0-2-1.79-3.993-4-3.993z"/></g></svg>