<svg xmlns="http://www.w3.org/2000/svg" width="24" height="24" viewBox="0 0 24 24"><g stroke="#000" stroke-linejoin="round" stroke-miterlimit="10" fill="none"><path d="M13.941 13.78l-3.941-1.411v-2.306M6 10.188v2.182l-3.941 1.41c-.944.338-1.559 1.231-1.559 2.232v1.488h10.5"/><ellipse cx="7.901" cy="6.053" rx="3.947" ry="4.737"/><path d="M11.817 5.625l-.374.033c-1.343.259-2.208-.228-2.948-1.523-.444.851-1.832 1.523-2.973 1.523-.562 0-1.044-.115-1.528-.368"/><path stroke-linecap="round" d="M16.5 11.369v-1.306M14.401 1.316c2.18 0 3.947 2.12 3.947 4.736s-1.768 4.737-3.947 4.737M18.317 5.625l-.374.033c-1.343.259-2.208-.228-2.948-1.523"/><circle cx="18.5" cy="18.5" r="5"/><path stroke-linecap="round" d="M18.5 16v5M21 18.5h-5"/></g></svg>