<svg xmlns="http://www.w3.org/2000/svg" width="24" height="24" viewBox="0 0 24 24"><path d="M20.5 13.5a.5.5 0 0 0-.5.5v9h-5v-6.5a.5.5 0 0 0-.5-.5h-5a.5.5 0 0 0-.5.5V23H4v-9.5a.5.5 0 0 0-1 0v10a.5.5 0 0 0 .5.5h6a.5.5 0 0 0 .5-.5V17h4v6.5a.5.5 0 0 0 .5.5h6a.5.5 0 0 0 .5-.5V14a.5.5 0 0 0-.5-.5z"/><path d="M23.854 12.647l-11.5-11.5a.5.5 0 0 0-.707 0l-11.5 11.5a.5.5 0 0 0 .707.707L12 2.208l11.146 11.146a.498.498 0 0 0 .708 0 .5.5 0 0 0 0-.707zM16 3h3v3a.5.5 0 0 0 1 0V2.5a.5.5 0 0 0-.5-.5H16a.5.5 0 0 0 0 1z"/></svg>