<svg xmlns="http://www.w3.org/2000/svg" width="24" height="24" viewBox="0 0 24 24"><path d="M15 23H.5a.5.5 0 0 0 0 1H15a.5.5 0 0 0 0-1zM.5 3H15a.5.5 0 0 0 0-1H.5a.5.5 0 0 0 0 1zm0 3H15a.5.5 0 0 0 0-1H.5a.5.5 0 0 0 0 1zm0 3h8a.5.5 0 0 0 0-1h-8a.5.5 0 0 0 0 1zm0 3h8a.5.5 0 0 0 0-1h-8a.5.5 0 0 0 0 1zm0 3h8a.5.5 0 0 0 0-1h-8a.5.5 0 0 0 0 1zm0 3h8a.5.5 0 0 0 0-1h-8a.5.5 0 0 0 0 1zM15 20H.5a.5.5 0 0 0 0 1H15a.5.5 0 0 0 0-1zm8.838-7.368l-6-5.5A.5.5 0 0 0 17 7.5V10h-5.5a.5.5 0 0 0-.5.5v5a.5.5 0 0 0 .5.5H17v2.5a.5.5 0 0 0 .838.368l6-5.5a.5.5 0 0 0 0-.736zM18 17.362V15.5a.5.5 0 0 0-.5-.5H12v-4h5.5a.5.5 0 0 0 .5-.5V8.637L22.76 13 18 17.363z"/></svg>