<?xml version="1.0" encoding="utf-8"?>
<!-- Generator: Adobe Illustrator 16.0.0, SVG Export Plug-In . SVG Version: 6.00 Build 0)  -->
<!DOCTYPE svg PUBLIC "-//W3C//DTD SVG 1.1//EN" "http://www.w3.org/Graphics/SVG/1.1/DTD/svg11.dtd">
<svg version="1.1" id="Outline_Icons" xmlns="http://www.w3.org/2000/svg" xmlns:xlink="http://www.w3.org/1999/xlink" x="0px"
	 y="0px" width="24px" height="24px" viewBox="0 0 24 24" enable-background="new 0 0 24 24" xml:space="preserve">
<g>
	<path d="M9,3h14.5C23.776,3,24,2.776,24,2.5S23.776,2,23.5,2H9C8.724,2,8.5,2.224,8.5,2.5S8.724,3,9,3z"/>
	<path d="M23.5,23H9c-0.276,0-0.5,0.224-0.5,0.5S8.724,24,9,24h14.5c0.276,0,0.5-0.224,0.5-0.5S23.776,23,23.5,23z"/>
	<path d="M23.5,20H9c-0.276,0-0.5,0.224-0.5,0.5S8.724,21,9,21h14.5c0.276,0,0.5-0.224,0.5-0.5S23.776,20,23.5,20z"/>
	<path d="M23.5,17h-8c-0.276,0-0.5,0.224-0.5,0.5s0.224,0.5,0.5,0.5h8c0.276,0,0.5-0.224,0.5-0.5S23.776,17,23.5,17z"/>
	<path d="M23.5,14h-8c-0.276,0-0.5,0.224-0.5,0.5s0.224,0.5,0.5,0.5h8c0.276,0,0.5-0.224,0.5-0.5S23.776,14,23.5,14z"/>
	<path d="M23.5,11h-8c-0.276,0-0.5,0.224-0.5,0.5s0.224,0.5,0.5,0.5h8c0.276,0,0.5-0.224,0.5-0.5S23.776,11,23.5,11z"/>
	<path d="M23.5,8h-8C15.224,8,15,8.224,15,8.5S15.224,9,15.5,9h8C23.776,9,24,8.776,24,8.5S23.776,8,23.5,8z"/>
	<path d="M23.5,5H9C8.724,5,8.5,5.224,8.5,5.5S8.724,6,9,6h14.5C23.776,6,24,5.776,24,5.5S23.776,5,23.5,5z"/>
	<path d="M13,15.5v-5c0-0.276-0.224-0.5-0.5-0.5H7V7.5c0-0.198-0.117-0.378-0.299-0.458c-0.179-0.078-0.393-0.045-0.539,0.09l-6,5.5
		C0.059,12.727,0,12.859,0,13s0.059,0.273,0.162,0.368l6,5.5C6.256,18.955,6.377,19,6.5,19c0.068,0,0.137-0.014,0.201-0.042
		C6.883,18.878,7,18.698,7,18.5V16h5.5C12.776,16,13,15.776,13,15.5z M12,15H6.5C6.224,15,6,15.224,6,15.5v1.863L1.24,13L6,8.637
		V10.5C6,10.776,6.224,11,6.5,11H12V15z"/>
</g>
</svg>
