<?xml version="1.0" encoding="utf-8"?>
<!-- Generator: Adobe Illustrator 16.0.0, SVG Export Plug-In . SVG Version: 6.00 Build 0)  -->
<!DOCTYPE svg PUBLIC "-//W3C//DTD SVG 1.1//EN" "http://www.w3.org/Graphics/SVG/1.1/DTD/svg11.dtd">
<svg version="1.1" id="Outline_Icons" xmlns="http://www.w3.org/2000/svg" xmlns:xlink="http://www.w3.org/1999/xlink" x="0px"
	 y="0px" width="24px" height="24px" viewBox="0 0 24 24" enable-background="new 0 0 24 24" xml:space="preserve">
<g>
	<path d="M15,23H0.5C0.224,23,0,23.224,0,23.5S0.224,24,0.5,24H15c0.276,0,0.5-0.224,0.5-0.5S15.276,23,15,23z"/>
	<path d="M0.5,3H15c0.276,0,0.5-0.224,0.5-0.5S15.276,2,15,2H0.5C0.224,2,0,2.224,0,2.5S0.224,3,0.5,3z"/>
	<path d="M0.5,6H15c0.276,0,0.5-0.224,0.5-0.5S15.276,5,15,5H0.5C0.224,5,0,5.224,0,5.5S0.224,6,0.5,6z"/>
	<path d="M0.5,9h8C8.776,9,9,8.776,9,8.5S8.776,8,8.5,8h-8C0.224,8,0,8.224,0,8.5S0.224,9,0.5,9z"/>
	<path d="M0.5,12h8C8.776,12,9,11.776,9,11.5S8.776,11,8.5,11h-8C0.224,11,0,11.224,0,11.5S0.224,12,0.5,12z"/>
	<path d="M0.5,15h8C8.776,15,9,14.776,9,14.5S8.776,14,8.5,14h-8C0.224,14,0,14.224,0,14.5S0.224,15,0.5,15z"/>
	<path d="M0.5,18h8C8.776,18,9,17.776,9,17.5S8.776,17,8.5,17h-8C0.224,17,0,17.224,0,17.5S0.224,18,0.5,18z"/>
	<path d="M15,20H0.5C0.224,20,0,20.224,0,20.5S0.224,21,0.5,21H15c0.276,0,0.5-0.224,0.5-0.5S15.276,20,15,20z"/>
	<path d="M23.838,12.632l-6-5.5c-0.146-0.135-0.358-0.169-0.539-0.09C17.117,7.122,17,7.302,17,7.5V10h-5.5
		c-0.276,0-0.5,0.224-0.5,0.5v5c0,0.276,0.224,0.5,0.5,0.5H17v2.5c0,0.198,0.117,0.378,0.299,0.458C17.363,18.986,17.432,19,17.5,19
		c0.123,0,0.244-0.045,0.338-0.132l6-5.5C23.941,13.273,24,13.141,24,13S23.941,12.727,23.838,12.632z M18,17.363V15.5
		c0-0.276-0.224-0.5-0.5-0.5H12v-4h5.5c0.276,0,0.5-0.224,0.5-0.5V8.637L22.76,13L18,17.363z"/>
</g>
</svg>
