<svg xmlns="http://www.w3.org/2000/svg" width="24" height="24" viewBox="0 0 24 24"><path d="M9 3h14.5a.5.5 0 0 0 0-1H9a.5.5 0 0 0 0 1zm14.5 20H9a.5.5 0 0 0 0 1h14.5a.5.5 0 0 0 0-1zm0-3H9a.5.5 0 0 0 0 1h14.5a.5.5 0 0 0 0-1zm0-3h-8a.5.5 0 0 0 0 1h8a.5.5 0 0 0 0-1zm0-3h-8a.5.5 0 0 0 0 1h8a.5.5 0 0 0 0-1zm0-3h-8a.5.5 0 0 0 0 1h8a.5.5 0 0 0 0-1zm0-3h-8a.5.5 0 0 0 0 1h8a.5.5 0 0 0 0-1zm0-3H9a.5.5 0 0 0 0 1h14.5a.5.5 0 0 0 0-1zM13 15.5v-5a.5.5 0 0 0-.5-.5H7V7.5a.5.5 0 0 0-.838-.368l-6 5.5a.5.5 0 0 0 0 .736l6 5.5a.496.496 0 0 0 .54.09A.5.5 0 0 0 7 18.5V16h5.5a.5.5 0 0 0 .5-.5zm-1-.5H6.5a.5.5 0 0 0-.5.5v1.863L1.24 13 6 8.637V10.5a.5.5 0 0 0 .5.5H12v4z"/></svg>