<?xml version="1.0" encoding="utf-8"?>
<!-- Generator: Adobe Illustrator 16.0.0, SVG Export Plug-In . SVG Version: 6.00 Build 0)  -->
<!DOCTYPE svg PUBLIC "-//W3C//DTD SVG 1.1//EN" "http://www.w3.org/Graphics/SVG/1.1/DTD/svg11.dtd">
<svg version="1.1" id="Outline_Icons" xmlns="http://www.w3.org/2000/svg" xmlns:xlink="http://www.w3.org/1999/xlink" x="0px"
	 y="0px" width="24px" height="24px" viewBox="0 0 24 24" enable-background="new 0 0 24 24" xml:space="preserve">
<g>
	<path d="M1,16.012c0-0.79,0.493-1.498,1.227-1.761l3.941-1.411C6.367,12.769,6.5,12.58,6.5,12.369v-1.371
		c0.443,0.175,0.909,0.292,1.401,0.292c0.565,0,1.101-0.137,1.599-0.364v1.443c0,0.211,0.133,0.399,0.332,0.471l3.941,1.411
		l0.337-0.941l-3.61-1.292v-1.733c1.115-0.953,1.849-2.489,1.849-4.231c0-2.887-1.995-5.236-4.447-5.236S3.454,3.166,3.454,6.053
		c0,1.845,0.818,3.462,2.046,4.395v1.569L1.89,13.31C0.76,13.714,0,14.8,0,16.012V17.5C0,17.776,0.224,18,0.5,18H11v-1H1V16.012z
		 M7.901,1.816c1.656,0,3.042,1.444,3.371,3.361C10.217,5.36,9.569,5.006,8.929,3.887c-0.09-0.159-0.227-0.26-0.444-0.252
		C8.303,3.638,8.136,3.741,8.052,3.903C7.709,4.56,6.503,5.158,5.522,5.158c-0.347,0-0.647-0.07-0.943-0.177
		C4.969,3.166,6.304,1.816,7.901,1.816z M4.454,6.053c0-0.016,0.004-0.03,0.004-0.045c0.336,0.098,0.685,0.15,1.064,0.15
		c1.064,0,2.229-0.487,2.936-1.168c0.634,0.838,1.38,1.237,2.32,1.237c0.177,0,0.37-0.029,0.561-0.057
		C11.287,8.451,9.77,10.29,7.901,10.29C6,10.29,4.454,8.389,4.454,6.053z"/>
	<path d="M14.401,10.29c-0.276,0-0.5,0.224-0.5,0.5s0.224,0.5,0.5,0.5c0.565,0,1.101-0.137,1.599-0.364v0.443
		c0,0.276,0.224,0.5,0.5,0.5s0.5-0.224,0.5-0.5v-1.085c1.115-0.953,1.849-2.489,1.849-4.231c0-0.153-0.027-0.297-0.038-0.447
		c-0.001-0.015,0.005-0.028,0.003-0.043c-0.001-0.01-0.008-0.018-0.009-0.027c-0.225-2.642-2.101-4.719-4.403-4.719
		c-0.276,0-0.5,0.224-0.5,0.5s0.224,0.5,0.5,0.5c1.656,0,3.042,1.444,3.371,3.361c-1.06,0.183-1.703-0.171-2.343-1.291
		c-0.137-0.24-0.442-0.323-0.682-0.186s-0.323,0.442-0.186,0.682c0.717,1.254,1.574,1.844,2.717,1.844
		c0.177,0,0.37-0.029,0.561-0.057C17.787,8.451,16.27,10.29,14.401,10.29z"/>
	<path d="M18.5,13c-3.033,0-5.5,2.467-5.5,5.5s2.467,5.5,5.5,5.5s5.5-2.467,5.5-5.5S21.533,13,18.5,13z M18.5,23
		c-2.481,0-4.5-2.019-4.5-4.5s2.019-4.5,4.5-4.5s4.5,2.019,4.5,4.5S20.981,23,18.5,23z"/>
	<path d="M21,18h-2v-2c0-0.276-0.224-0.5-0.5-0.5S18,15.724,18,16v2h-2c-0.276,0-0.5,0.224-0.5,0.5S15.724,19,16,19h2v2
		c0,0.276,0.224,0.5,0.5,0.5S19,21.276,19,21v-2h2c0.276,0,0.5-0.224,0.5-0.5S21.276,18,21,18z"/>
</g>
</svg>
