<svg xmlns="http://www.w3.org/2000/svg" width="24" height="24" viewBox="0 0 24 24"><path d="M1 16.012c0-.79.493-1.498 1.227-1.76l3.94-1.412a.5.5 0 0 0 .333-.47v-1.372a3.8 3.8 0 0 0 1.4.292 3.84 3.84 0 0 0 1.6-.364v1.443a.5.5 0 0 0 .332.47l3.94 1.41.338-.94-3.61-1.3v-1.73c1.115-.952 1.85-2.49 1.85-4.23 0-2.887-1.997-5.236-4.45-5.236S3.454 3.164 3.454 6.05c0 1.846.818 3.463 2.046 4.396v1.57L1.89 13.31A2.87 2.87 0 0 0 0 16.012V17.5a.5.5 0 0 0 .5.5H11v-1H1v-.988zM7.9 1.816c1.657 0 3.043 1.444 3.372 3.36-1.055.184-1.703-.17-2.343-1.29a.456.456 0 0 0-.45-.25.498.498 0 0 0-.435.267c-.34.657-1.55 1.255-2.53 1.255-.347 0-.647-.07-.943-.177.39-1.81 1.724-3.16 3.32-3.16zM4.455 6.053c0-.016.004-.03.004-.045a3.7 3.7 0 0 0 1.06.15c1.06 0 2.23-.487 2.933-1.168.633.838 1.38 1.237 2.32 1.237.176 0 .37-.03.56-.057-.05 2.28-1.57 4.12-3.438 4.12-1.9 0-3.447-1.9-3.447-4.237zM14.4 10.29a.5.5 0 0 0 0 1 3.84 3.84 0 0 0 1.6-.364v.443a.5.5 0 0 0 1 0v-1.09c1.115-.957 1.85-2.49 1.85-4.23 0-.158-.028-.3-.04-.45 0-.017.006-.03.004-.045 0-.01-.008-.018-.01-.027-.224-2.64-2.1-4.72-4.402-4.72a.5.5 0 0 0 0 1c1.656 0 3.042 1.445 3.37 3.362-1.06.183-1.702-.17-2.342-1.29a.5.5 0 1 0-.868.495C15.28 5.63 16.136 6.22 17.28 6.22c.17 0 .37-.03.56-.057-.06 2.28-1.57 4.12-3.44 4.12zM18.5 13c-3.033 0-5.5 2.467-5.5 5.5s2.467 5.5 5.5 5.5 5.5-2.467 5.5-5.5-2.467-5.5-5.5-5.5zm0 10c-2.48 0-4.5-2.02-4.5-4.5s2.02-4.5 4.5-4.5 4.5 2.02 4.5 4.5-2.02 4.5-4.5 4.5z"/><path d="M21 18h-2v-2a.5.5 0 0 0-1 0v2h-2a.5.5 0 0 0 0 1h2v2a.5.5 0 0 0 1 0v-2h2a.5.5 0 0 0 0-1z"/></svg>