<svg xmlns="http://www.w3.org/2000/svg" width="24" height="24" viewBox="0 0 24 24"><g stroke="#000" stroke-linecap="round" stroke-linejoin="round" stroke-miterlimit="10" fill="none"><circle cx="6.25" cy="17.457" r="2.5"/><path d="M21.75 8.957l1.5-1.5-2.5-2.5 1.5-1.5c.553-.551.553-1.447 0-2-.553-.551-1.447-.551-2 0l-11.245 11.245c-.811-.471-1.75-.745-2.755-.745-3.037 0-5.5 2.463-5.5 5.5 0 3.038 2.463 5.5 5.5 5.5s5.5-2.462 5.5-5.5c0-1.005-.274-1.944-.745-2.755l5.245-5.244 2 1.999 1.5-1.5-2-2 1.5-1.5 2.5 2.5z"/></g></svg>