<svg xmlns="http://www.w3.org/2000/svg" width="24" height="24"><path d="M18.5 13c-3.032 0-5.5 2.468-5.5 5.5s2.468 5.5 5.5 5.5 5.5-2.468 5.5-5.5-2.468-5.5-5.5-5.5zm0 10c-2.48 0-4.5-2.02-4.5-4.5s2.02-4.5 4.5-4.5 4.5 2.02 4.5 4.5-2.02 4.5-4.5 4.5z"/><path d="M21 18h-2v-2a.5.5 0 0 0-1 0v2h-2a.5.5 0 0 0 0 1h2v2a.5.5 0 0 0 1 0v-2h2a.5.5 0 0 0 0-1zM20 6.5v-6a.498.498 0 0 0-.5-.5l-6.26.008a.503.503 0 0 0-.352.146L.646 12.396a.5.5 0 0 0 0 .707l6.25 6.25a.5.5 0 0 0 .354.147.453.453 0 0 0 .357-.15l12.25-12.5A.502.502 0 0 0 20 6.5zm-1-.204L7.246 18.29l-5.54-5.54L13.45 1.008 19 1v5.296z"/><path d="M16 6c1.103 0 2-.897 2-2s-.897-2-2-2-2 .897-2 2 .897 2 2 2zm0-3a1 1 0 1 1 0 2 1 1 0 0 1 0-2z"/></svg>