<?xml version="1.0" encoding="utf-8"?>
<!-- Generator: Adobe Illustrator 16.0.0, SVG Export Plug-In . SVG Version: 6.00 Build 0)  -->
<!DOCTYPE svg PUBLIC "-//W3C//DTD SVG 1.1//EN" "http://www.w3.org/Graphics/SVG/1.1/DTD/svg11.dtd">
<svg version="1.1" id="Outline_Icons" xmlns="http://www.w3.org/2000/svg" xmlns:xlink="http://www.w3.org/1999/xlink" x="0px"
	 y="0px" width="24px" height="24px" viewBox="0 0 24 24" enable-background="new 0 0 24 24" xml:space="preserve">
<g>
	<path d="M12.001,16.243l-3.183,3.181c-0.944,0.945-2.592,0.945-3.536,0l-0.707-0.707c-0.472-0.472-0.731-1.1-0.731-1.767
		c0-0.668,0.26-1.296,0.731-1.768l4.597-4.597c0.975-0.975,2.562-0.975,3.536,0l0.707,0.708c0.195,0.195,0.512,0.195,0.707,0
		c0.195-0.195,0.195-0.512,0-0.708l-0.707-0.708c-1.364-1.365-3.586-1.365-4.95,0l-4.597,4.597c-0.661,0.66-1.024,1.539-1.024,2.475
		c0,0.934,0.364,1.813,1.024,2.474l0.707,0.707c0.661,0.661,1.541,1.025,2.476,1.025s1.814-0.364,2.475-1.025l3.183-3.182
		c0.195-0.195,0.195-0.512,0-0.707C12.513,16.047,12.196,16.047,12.001,16.243z"/>
	<path d="M20.132,4.575l-0.707-0.707c-1.364-1.364-3.585-1.364-4.949,0l-3.182,3.181c-0.195,0.196-0.195,0.511,0,0.707
		c0.195,0.195,0.512,0.195,0.707,0l3.182-3.181c0.975-0.974,2.561-0.974,3.535,0l0.707,0.708c0.472,0.472,0.732,1.1,0.732,1.767
		c0,0.668-0.26,1.296-0.732,1.769l-4.596,4.595c-0.473,0.473-1.1,0.733-1.768,0.733h0c-0.667,0-1.294-0.26-1.766-0.732
		c-0.195-0.196-0.513-0.195-0.707,0c-0.196,0.195-0.196,0.511-0.001,0.707c0.661,0.663,1.539,1.026,2.474,1.026h0
		c0.935,0,1.814-0.364,2.475-1.025l4.596-4.596c0.661-0.66,1.025-1.54,1.025-2.475C21.157,6.115,20.793,5.236,20.132,4.575z"/>
</g>
</svg>
