<svg xmlns="http://www.w3.org/2000/svg" width="24" height="24"><path d="M12 16.243l-3.182 3.18c-.944.946-2.592.946-3.536 0l-.707-.706a2.482 2.482 0 0 1-.73-1.767c0-.668.26-1.296.73-1.768l4.597-4.597a2.503 2.503 0 0 1 3.536 0l.707.708a.5.5 0 0 0 .707-.708l-.707-.708a3.504 3.504 0 0 0-4.95 0l-4.597 4.597a3.473 3.473 0 0 0-1.024 2.475 3.48 3.48 0 0 0 1.024 2.47l.707.7c.66.66 1.54 1.025 2.476 1.025s1.82-.364 2.48-1.025l3.188-3.182a.5.5 0 1 0-.71-.706z"/><path d="M20.132 4.575l-.707-.707a3.504 3.504 0 0 0-4.95 0l-3.18 3.18a.5.5 0 0 0 .706.708l3.19-3.18a2.504 2.504 0 0 1 3.537 0l.707.707c.47.472.73 1.1.73 1.767a2.49 2.49 0 0 1-.73 1.77l-4.597 4.594c-.473.473-1.1.733-1.77.733a2.48 2.48 0 0 1-1.764-.732.5.5 0 1 0-.71.707 3.468 3.468 0 0 0 2.476 1.026 3.48 3.48 0 0 0 2.477-1.025l4.596-4.596a3.475 3.475 0 0 0 1.024-2.475 3.48 3.48 0 0 0-1.025-2.477z"/></svg>