<svg xmlns="http://www.w3.org/2000/svg" width="24" height="24"><path d="M2.5 2a2.5 2.5 0 0 0 0 5 2.5 2.5 0 0 0 0-5zm0 4C1.673 6 1 5.327 1 4.5S1.673 3 2.5 3 4 3.673 4 4.5 3.327 6 2.5 6zm6.07-1.072H23.5a.5.5 0 0 0 0-1H8.57a.5.5 0 0 0 0 1zM2.5 10a2.5 2.5 0 0 0 0 5 2.5 2.5 0 0 0 0-5zm0 4c-.827 0-1.5-.673-1.5-1.5S1.673 11 2.5 11s1.5.673 1.5 1.5S3.327 14 2.5 14zm21-2.072H8.57a.5.5 0 0 0 0 1H23.5a.5.5 0 0 0 0-1zM2.5 18a2.5 2.5 0 0 0 0 5 2.5 2.5 0 0 0 0-5zm0 4c-.827 0-1.5-.673-1.5-1.5S1.673 19 2.5 19s1.5.673 1.5 1.5S3.327 22 2.5 22zm21-2.073H8.57a.5.5 0 0 0 0 1H23.5a.5.5 0 0 0 0-1z"/></svg>