<?xml version="1.0" encoding="utf-8"?>
<!-- Generator: Adobe Illustrator 16.0.0, SVG Export Plug-In . SVG Version: 6.00 Build 0)  -->
<!DOCTYPE svg PUBLIC "-//W3C//DTD SVG 1.1//EN" "http://www.w3.org/Graphics/SVG/1.1/DTD/svg11.dtd">
<svg version="1.1" id="Outline_Icons" xmlns="http://www.w3.org/2000/svg" xmlns:xlink="http://www.w3.org/1999/xlink" x="0px"
	 y="0px" width="24px" height="24px" viewBox="0 0 24 24" enable-background="new 0 0 24 24" xml:space="preserve">
<g>
	<path d="M6.5,5h17C23.776,5,24,4.776,24,4.5S23.776,4,23.5,4h-17C6.224,4,6,4.224,6,4.5S6.224,5,6.5,5z"/>
	<path d="M23.5,12h-17C6.224,12,6,12.224,6,12.5S6.224,13,6.5,13h17c0.276,0,0.5-0.224,0.5-0.5S23.776,12,23.5,12z"/>
	<path d="M23.5,20h-17C6.224,20,6,20.224,6,20.5S6.224,21,6.5,21h17c0.276,0,0.5-0.224,0.5-0.5S23.776,20,23.5,20z"/>
	<path d="M0.85,4.395L1.5,3.76V6.5C1.5,6.776,1.724,7,2,7s0.5-0.224,0.5-0.5V2.573c0-0.201-0.12-0.383-0.306-0.461
		C2.01,2.035,1.795,2.074,1.65,2.216L0.15,3.68c-0.197,0.192-0.201,0.509-0.008,0.707C0.335,4.583,0.651,4.589,0.85,4.395z"/>
	<path d="M2.569,14H1.533c0.254-0.298,0.465-0.521,0.64-0.703C2.688,12.756,3,12.429,3,11.537c0-0.817-0.673-1.482-1.5-1.482
		c-0.821,0-1.465,0.647-1.465,1.474c0,0.276,0.224,0.5,0.5,0.5s0.5-0.224,0.5-0.5c0-0.279,0.191-0.474,0.465-0.474
		c0.28,0,0.5,0.212,0.5,0.482c0,0.491-0.084,0.58-0.551,1.07c-0.321,0.336-0.761,0.798-1.352,1.595
		c-0.112,0.152-0.129,0.354-0.044,0.522C0.139,14.894,0.312,15,0.5,15h2.069c0.276,0,0.5-0.224,0.5-0.5S2.846,14,2.569,14z"/>
	<path d="M2.24,19.71l0.609-0.938c0.101-0.153,0.108-0.35,0.021-0.511C2.783,18.101,2.614,18,2.431,18H0.5C0.224,18,0,18.224,0,18.5
		S0.224,19,0.5,19h1.009l-0.497,0.765c-0.101,0.153-0.108,0.35-0.021,0.511c0.087,0.161,0.256,0.262,0.439,0.262
		c0.428,0,0.5,0.12,0.5,0.481S1.858,21.5,1.431,21.5H0.5C0.224,21.5,0,21.724,0,22s0.224,0.5,0.5,0.5h0.931
		c0.953,0,1.5-0.54,1.5-1.481C2.931,20.39,2.687,19.939,2.24,19.71z"/>
</g>
</svg>
