<svg xmlns="http://www.w3.org/2000/svg" width="24" height="24"><path d="M6.5 5h17a.5.5 0 0 0 0-1h-17a.5.5 0 0 0 0 1zm17 7h-17a.5.5 0 0 0 0 1h17a.5.5 0 0 0 0-1zm0 8h-17a.5.5 0 0 0 0 1h17a.5.5 0 0 0 0-1zM.85 4.395l.65-.635V6.5a.5.5 0 0 0 1 0V2.573a.5.5 0 0 0-.85-.357L.15 3.68a.5.5 0 0 0 .7.715zM2.57 14H1.532c.254-.298.465-.52.64-.703.515-.54.827-.868.827-1.76 0-.817-.68-1.482-1.5-1.482S.03 10.702.03 11.53a.5.5 0 0 0 1 0c0-.28.19-.48.464-.48.28 0 .5.21.5.48 0 .49-.085.58-.55 1.07a15.13 15.13 0 0 0-1.35 1.6.5.5 0 0 0 .406.8h2.07a.5.5 0 0 0 0-1zm-.33 5.71l.61-.938A.5.5 0 0 0 2.43 18H.5a.5.5 0 0 0 0 1h1.01l-.498.765a.5.5 0 0 0 .418.773c.428 0 .5.12.5.48s-.072.482-.5.482H.5a.5.5 0 0 0 0 1h.93c.954 0 1.5-.54 1.5-1.48 0-.63-.243-1.08-.69-1.31z"/></svg>