<svg xmlns="http://www.w3.org/2000/svg" width="24" height="24" viewBox="0 0 24 24"><path d="M16 7c0-2.206-1.794-4-4-4S8 4.794 8 7s1.794 4 4 4 4-1.794 4-4zM9 7c0-1.654 1.346-3 3-3s3 1.346 3 3-1.346 3-3 3-3-1.346-3-3z"/><path d="M12 22.024a.497.497 0 0 0 .417-.225c.284-.43 6.938-10.557 6.938-14.45C19.355 3.3 16.055 0 12 0S4.645 3.3 4.645 7.356c0 3.892 6.655 14.015 6.938 14.443a.5.5 0 0 0 .417.22zM12 1a6.363 6.363 0 0 1 6.355 6.356c0 3.066-4.88 10.937-6.355 13.247-1.476-2.31-6.355-10.18-6.355-13.247A6.363 6.363 0 0 1 12 1z"/><path d="M17.042 19.2a.5.5 0 0 0-.084.996c4.558.385 5.93 1.124 6.05 1.256C22.716 22.007 18.786 23 12 23 5.215 23 1.285 22.007.99 21.548c.12-.227 1.484-.963 6.01-1.348a.5.5 0 0 0 .456-.54.493.493 0 0 0-.54-.457C2.326 19.593 0 20.367 0 21.5 0 23.93 10.772 24 12 24s12-.07 12-2.5c0-1.137-2.34-1.91-6.958-2.3z"/></svg>