<?xml version="1.0" encoding="utf-8"?>
<!-- Generator: Adobe Illustrator 16.0.0, SVG Export Plug-In . SVG Version: 6.00 Build 0)  -->
<!DOCTYPE svg PUBLIC "-//W3C//DTD SVG 1.1//EN" "http://www.w3.org/Graphics/SVG/1.1/DTD/svg11.dtd">
<svg version="1.1" id="Outline_Icons" xmlns="http://www.w3.org/2000/svg" xmlns:xlink="http://www.w3.org/1999/xlink" x="0px"
	 y="0px" width="24px" height="24px" viewBox="0 0 24 24" enable-background="new 0 0 24 24" xml:space="preserve">
<g>
	<path d="M16,7c0-2.206-1.794-4-4-4S8,4.794,8,7s1.794,4,4,4S16,9.206,16,7z M9,7c0-1.654,1.346-3,3-3s3,1.346,3,3s-1.346,3-3,3
		S9,8.654,9,7z"/>
	<path d="M12,22.024c0.168,0,0.325-0.084,0.417-0.225c0.284-0.429,6.938-10.551,6.938-14.443C19.355,3.3,16.056,0,12,0
		S4.645,3.3,4.645,7.356c0,3.892,6.655,14.015,6.938,14.443C11.675,21.939,11.832,22.024,12,22.024z M12,1
		c3.504,0,6.355,2.851,6.355,6.356c0,3.066-4.88,10.937-6.355,13.247c-1.476-2.31-6.355-10.181-6.355-13.247
		C5.645,3.851,8.496,1,12,1z"/>
	<path d="M17.042,19.201c-0.265-0.027-0.517,0.181-0.54,0.456c-0.023,0.275,0.181,0.517,0.456,0.54
		c4.558,0.384,5.93,1.123,6.051,1.255C22.715,22.007,18.785,23,12,23c-6.785,0-10.715-0.993-11.009-1.452
		C1.111,21.321,2.474,20.585,7,20.2c0.275-0.023,0.479-0.265,0.456-0.541c-0.023-0.275-0.264-0.489-0.541-0.456
		C2.327,19.594,0,20.367,0,21.5C0,23.93,10.772,24,12,24s12-0.07,12-2.5C24,20.363,21.659,19.589,17.042,19.201z"/>
</g>
</svg>
