<svg xmlns="http://www.w3.org/2000/svg" width="24" height="24" viewBox="0 0 24 24"><path d="M12.146 16.146a.5.5 0 0 0 .708.708l4-4a.5.5 0 0 0 .108-.545.49.49 0 0 0-.108-.17l-4-4a.5.5 0 0 0-.707.708L15.293 12H1.5a.5.5 0 0 0 0 1h13.793l-3.147 3.146z"/><path d="M12.5 1C8 1 3.89 3.647 2.027 7.744a.5.5 0 0 0 .91.414A10.527 10.527 0 0 1 12.5 2C18.29 2 23 6.71 23 12.5S18.29 23 12.5 23c-4.13 0-7.894-2.437-9.586-6.207a.5.5 0 1 0-.912.41A11.523 11.523 0 0 0 12.5 24C18.84 24 24 18.84 24 12.5S18.84 1 12.5 1z"/></svg>