<?xml version="1.0" encoding="utf-8"?>
<!-- Generator: Adobe Illustrator 16.0.0, SVG Export Plug-In . SVG Version: 6.00 Build 0)  -->
<!DOCTYPE svg PUBLIC "-//W3C//DTD SVG 1.1//EN" "http://www.w3.org/Graphics/SVG/1.1/DTD/svg11.dtd">
<svg version="1.1" id="Outline_Icons" xmlns="http://www.w3.org/2000/svg" xmlns:xlink="http://www.w3.org/1999/xlink" x="0px"
	 y="0px" width="24px" height="24px" viewBox="0 0 24 24" enable-background="new 0 0 24 24" xml:space="preserve">
<path d="M17.5,8h-4.098l4.521-7.235c0.097-0.154,0.102-0.349,0.014-0.507C17.849,0.099,17.682,0,17.5,0h-8
	C9.271,0,9.071,0.156,9.015,0.379l-3,12c-0.038,0.149-0.004,0.308,0.091,0.429C6.201,12.929,6.346,13,6.5,13h3.345L7.018,23.369
	c-0.064,0.236,0.052,0.484,0.275,0.586C7.36,23.986,7.43,24,7.5,24c0.163,0,0.321-0.08,0.416-0.223l10-15
	c0.102-0.154,0.112-0.351,0.025-0.513S17.685,8,17.5,8z M8.793,20.659l2.189-8.028c0.041-0.149,0.009-0.311-0.085-0.435
	C10.803,12.073,10.656,12,10.5,12H7.141l2.75-11h6.707l-4.521,7.235c-0.097,0.154-0.102,0.349-0.014,0.508
	C12.151,8.902,12.318,9,12.5,9h4.066L8.793,20.659z"/>
</svg>
