<svg xmlns="http://www.w3.org/2000/svg" width="24" height="24"><path d="M11.982 14C15.852 14 19 10.85 19 6.976 19 3.13 15.86 0 12.003 0a6.03 6.03 0 0 0-.302.007C7.88.16 5 3.105 5 6.857 5 10.797 8.132 14 11.982 14zm-.027-13h.048l.05.002A9.688 9.688 0 0 1 13.435 3H10.57c.355-.694.82-1.36 1.385-2zm1.907 3c.29.81.445 1.645.465 2.5H9.68a7.98 7.98 0 0 1 .463-2.5h3.72zm4.114 2.5H15.31a9.008 9.008 0 0 0-.4-2.5h2.286c.433.748.708 1.595.78 2.5zM11.983 13a14.103 14.103 0 0 1-1.22-2h2.478a13.93 13.93 0 0 1-1.22 1.998l-.03.002zm-1.666-3a9.636 9.636 0 0 1-.608-2.5h4.58a9.598 9.598 0 0 1-.61 2.5h-3.37zm4.963-2.5h2.693a5.978 5.978 0 0 1-.795 2.5h-2.443c.288-.837.473-1.674.545-2.5zm-6.584-1h-2.68a5.81 5.81 0 0 1 .72-2.5h2.36a9.008 9.008 0 0 0-.4 2.5zm.03 1c.07.826.256 1.663.545 2.5H6.86a6.193 6.193 0 0 1-.82-2.5h2.69zM7.578 11h2.084c.275.617.607 1.233 1 1.844A5.946 5.946 0 0 1 7.578 11zm5.768 1.838A14.1 14.1 0 0 0 14.343 11h2.104a6.012 6.012 0 0 1-3.1 1.838zM16.468 3H14.53a9.88 9.88 0 0 0-1.047-1.81A6.005 6.005 0 0 1 16.468 3zM10.54 1.167A9.86 9.86 0 0 0 9.477 3h-2.03a5.902 5.902 0 0 1 3.094-1.833zm10.745 18.245a2.988 2.988 0 0 0 1.215-2.397c0-1.654-1.346-3-3-3s-3 1.346-3 3c0 .976.475 1.835 1.2 2.384a4.53 4.53 0 0 0-1.95 1.65 4.513 4.513 0 0 0-1.952-1.65A2.99 2.99 0 0 0 15 17.01c0-1.654-1.346-3-3-3s-3 1.346-3 3c0 .978.477 1.84 1.203 2.387a4.53 4.53 0 0 0-1.952 1.65A4.53 4.53 0 0 0 6.3 19.4a2.99 2.99 0 0 0 1.2-2.386c0-1.654-1.345-3-3-3s-3 1.346-3 3c0 .983.483 1.85 1.216 2.397C1.15 20.14 0 21.74 0 23.5a.5.5 0 0 0 .5.5h23a.5.5 0 0 0 .5-.5c0-1.768-1.15-3.368-2.715-4.088zM17.5 17.015c0-1.103.897-2 2-2s2 .897 2 2a2 2 0 0 1-1.963 1.996H19.5l-.047.01a2 2 0 0 1-1.953-2zm-7.5 0c0-1.103.897-2 2-2s2 .897 2 2c0 1.1-.89 1.992-1.988 2L12 19.012h-.012A2.002 2.002 0 0 1 10 17.016zm-7.5 0c0-1.103.897-2 2-2s2 .897 2 2a2 2 0 0 1-1.953 1.995c-.016 0-.03-.003-.047-.003-.013 0-.024.004-.037.004A2 2 0 0 1 2.5 17.02zM1.044 23c.26-1.49 1.635-2.968 3.418-2.99.013 0 .025.005.038.005.015 0 .028-.004.043-.004a3.504 3.504 0 0 1 3.237 2.33c.143.4.798.4.94 0a3.505 3.505 0 0 1 3.27-2.32l.01.005h.01a3.502 3.502 0 0 1 3.27 2.315c.143.397.798.397.94 0a3.504 3.504 0 0 1 3.237-2.32c.015 0 .028.004.043.004.013 0 .025-.005.038-.005 1.783.02 3.16 1.5 3.418 2.99H1.044z"/></svg>