<svg width="24" height="24" viewBox="0 0 24 24" xmlns="http://www.w3.org/2000/svg"><title>page_break</title><g fill="#474747" fill-rule="evenodd"><path d="M4 12V.5l-.5.5h11l-.354-.146 6 6L20 6.5V12l.676-.468-4-1.5a.5.5 0 0 0-.53.114l-3 3 .666-.036-5-4a.5.5 0 0 0-.76.166l-2 4 .672-.223-3-1.5L4 12zm-1 0a.5.5 0 0 0 .276.447l3 1.5a.5.5 0 0 0 .67-.223l2-4-.758.166 5 4a.5.5 0 0 0 .666-.036l3-3-.53.114 4 1.5A.5.5 0 0 0 21 12V6.5a.5.5 0 0 0-.146-.354l-6-6A.5.5 0 0 0 14.5 0h-11a.5.5 0 0 0-.5.5V12z"/><path d="M20 15.5v8l.5-.5h-17l.5.5v-8l-.748.434 3.5 2a.5.5 0 0 0 .695-.21l2-4-.766.16 4.6 3.81a.5.5 0 0 0 .67-.027l3.35-3.263-.54.104 3.556 1.455L20 15.5zm1 0a.5.5 0 0 0-.31-.463l-3.554-1.454a.5.5 0 0 0-.538.104l-3.35 3.264.67-.02-4.6-3.81a.5.5 0 0 0-.765.16l-2 4 .695-.21-3.5-2A.5.5 0 0 0 3 15.5v8a.5.5 0 0 0 .5.5h17a.5.5 0 0 0 .5-.5v-8zm-7-15v6a.5.5 0 0 0 .5.5h6a.5.5 0 1 0 0-1h-6l.5.5v-6a.5.5 0 1 0-1 0z"/></g></svg>