<?xml version="1.0" encoding="utf-8"?>
<!-- Generator: Adobe Illustrator 16.0.0, SVG Export Plug-In . SVG Version: 6.00 Build 0)  -->
<!DOCTYPE svg PUBLIC "-//W3C//DTD SVG 1.1//EN" "http://www.w3.org/Graphics/SVG/1.1/DTD/svg11.dtd">
<svg version="1.1" id="Outline_Icons" xmlns="http://www.w3.org/2000/svg" xmlns:xlink="http://www.w3.org/1999/xlink" x="0px"
	 y="0px" width="24px" height="24px" viewBox="0 0 24 24" enable-background="new 0 0 24 24" xml:space="preserve">
<path d="M23.5,0h-17C2.916,0,0,2.916,0,6.5S2.916,13,6.5,13H10v10.5c0,0.276,0.224,0.5,0.5,0.5s0.5-0.224,0.5-0.5V1h6v22.5
	c0,0.276,0.224,0.5,0.5,0.5s0.5-0.224,0.5-0.5V1h5.5C23.776,1,24,0.776,24,0.5S23.776,0,23.5,0z M10,12H6.5C3.468,12,1,9.532,1,6.5
	S3.468,1,6.5,1H10V12z"/>
</svg>
