<svg xmlns="http://www.w3.org/2000/svg" width="24" height="24" viewBox="0 0 24 24"><path d="M22.176 17.516l-2.453-2.453c-1.06-1.062-2.915-1.064-3.98 0l-.495.496a54.3 54.3 0 0 1-6.806-6.81l.497-.5a2.817 2.817 0 0 0 0-3.978l-2.46-2.45C5.42.76 3.57.76 2.5 1.824L1.166 3.17A3.98 3.98 0 0 0 .66 8.164 54.187 54.187 0 0 0 15.835 23.34c.652.432 1.41.66 2.19.66a3.942 3.942 0 0 0 2.805-1.16l1.346-1.347c.53-.53.824-1.237.824-1.99a2.79 2.79 0 0 0-.824-1.987zm-.707 3.27l-1.35 1.346c-.97.972-2.586 1.134-3.738.374A53.187 53.187 0 0 1 1.492 7.613a2.98 2.98 0 0 1 .377-3.736L3.21 2.53a1.814 1.814 0 0 1 2.565 0L8.23 4.985a1.815 1.815 0 0 1 0 2.563l-.817.818a.5.5 0 0 0-.033.67 55.01 55.01 0 0 0 7.585 7.584.5.5 0 0 0 .67-.033l.817-.817c.687-.686 1.88-.686 2.565 0l2.453 2.453a1.806 1.806 0 0 1 0 2.563z"/></svg>