<?xml version="1.0" encoding="utf-8"?>
<!-- Generator: Adobe Illustrator 16.0.0, SVG Export Plug-In . SVG Version: 6.00 Build 0)  -->
<!DOCTYPE svg PUBLIC "-//W3C//DTD SVG 1.1//EN" "http://www.w3.org/Graphics/SVG/1.1/DTD/svg11.dtd">
<svg version="1.1" id="Outline_Icons" xmlns="http://www.w3.org/2000/svg" xmlns:xlink="http://www.w3.org/1999/xlink" x="0px"
	 y="0px" width="24px" height="24px" viewBox="0 0 24 24" enable-background="new 0 0 24 24" xml:space="preserve">
<g>
	<path d="M20.961,6.308c-0.025-0.061-0.062-0.116-0.108-0.162l-5.999-5.999c-0.046-0.046-0.101-0.083-0.162-0.108
		C14.632,0.014,14.567,0,14.5,0h-11C3.224,0,3,0.224,3,0.5v23C3,23.776,3.224,24,3.5,24h17c0.276,0,0.5-0.224,0.5-0.5v-17
		C21,6.433,20.986,6.368,20.961,6.308z M15,1.707L19.293,6H15V1.707z M4,23V1h10v5.5C14,6.776,14.224,7,14.5,7H20v16H4z"/>
	<path d="M7.5,8H12c0.276,0,0.5-0.224,0.5-0.5S12.276,7,12,7H7.5C7.224,7,7,7.224,7,7.5S7.224,8,7.5,8z"/>
	<path d="M16.5,10h-9C7.224,10,7,10.224,7,10.5S7.224,11,7.5,11h9c0.276,0,0.5-0.224,0.5-0.5S16.776,10,16.5,10z"/>
	<path d="M16.5,13h-9C7.224,13,7,13.224,7,13.5S7.224,14,7.5,14h9c0.276,0,0.5-0.224,0.5-0.5S16.776,13,16.5,13z"/>
	<path d="M16.5,16h-9C7.224,16,7,16.224,7,16.5S7.224,17,7.5,17h9c0.276,0,0.5-0.224,0.5-0.5S16.776,16,16.5,16z"/>
	<path d="M16.5,19h-9C7.224,19,7,19.224,7,19.5S7.224,20,7.5,20h9c0.276,0,0.5-0.224,0.5-0.5S16.776,19,16.5,19z"/>
</g>
</svg>
