<svg xmlns="http://www.w3.org/2000/svg" width="24" height="24"><path d="M20.96 6.308a.495.495 0 0 0-.107-.162l-6-6A.495.495 0 0 0 14.5 0h-11a.5.5 0 0 0-.5.5v23a.5.5 0 0 0 .5.5h17a.5.5 0 0 0 .5-.5v-17a.5.5 0 0 0-.04-.192zM15 1.708L19.293 6H15V1.707zM4 23V1h10v5.5a.5.5 0 0 0 .5.5H20v16H4z"/><path d="M7.5 8H12a.5.5 0 0 0 0-1H7.5a.5.5 0 0 0 0 1zm9 2h-9a.5.5 0 0 0 0 1h9a.5.5 0 0 0 0-1zm0 3h-9a.5.5 0 0 0 0 1h9a.5.5 0 0 0 0-1zm0 3h-9a.5.5 0 0 0 0 1h9a.5.5 0 0 0 0-1zm0 3h-9a.5.5 0 0 0 0 1h9a.5.5 0 0 0 0-1z"/></svg>