<svg xmlns="http://www.w3.org/2000/svg" width="24" height="24" viewBox="0 0 24 24"><path d="M12 .876C5.383.876 0 5.31 0 10.76c0 2.573 1.177 4.985 3.325 6.83l-2.41 4.812a.5.5 0 0 0 .658.677l6.437-3c1.278.37 2.62.56 3.99.56 6.617 0 12-4.437 12-9.886 0-5.446-5.383-9.88-12-9.88zm0 18.765a13.22 13.22 0 0 1-3.883-.57.495.495 0 0 0-.357.03l-5.308 2.47 1.946-3.88a.502.502 0 0 0-.135-.616C2.16 15.386 1 13.146 1 10.76c0-4.9 4.935-8.884 11-8.884S23 5.86 23 10.76c0 4.896-4.935 8.88-11 8.88z"/><path d="M12.5 5.438C10.57 5.438 9 7.036 9 9a.5.5 0 0 0 1 0c0-1.39 1.145-2.562 2.5-2.562 1.378 0 2.5 1.108 2.5 2.47 0 1.36-1.122 2.47-2.5 2.47a.5.5 0 0 0-.5.5v1.248a.5.5 0 0 0 1 0v-.784c1.694-.24 3-1.69 3-3.434 0-1.914-1.57-3.47-3.5-3.47z"/><circle cx="12.5" cy="15.376" r="1"/></svg>