<?xml version="1.0" encoding="UTF-8" standalone="no"?>
<svg width="24px" height="24px" viewBox="0 0 24 24" version="1.1" xmlns="http://www.w3.org/2000/svg" xmlns:xlink="http://www.w3.org/1999/xlink" xmlns:sketch="http://www.bohemiancoding.com/sketch/ns">
    <!-- Generator: Sketch 3.4.1 (15681) - http://www.bohemiancoding.com/sketch -->
    <title>radio_buttons</title>
    <desc>Created with Sketch.</desc>
    <defs></defs>
    <g id="Page-1" stroke="none" stroke-width="1" fill="none" fill-rule="evenodd" sketch:type="MSPage">
        <g id="radio_buttons" sketch:type="MSArtboardGroup" fill="#474747">
            <path d="M12,23 L12,23 C14.209139,23 16,21.209139 16,19 C16,16.790861 14.209139,15 12,15 C9.790861,15 8,16.790861 8,19 C8,21.209139 9.790861,23 12,23 L12,23 Z M12,24 L12,24 C9.23857625,24 7,21.7614237 7,19 C7,16.2385763 9.23857625,14 12,14 C14.7614237,14 17,16.2385763 17,19 C17,21.7614237 14.7614237,24 12,24 L12,24 Z" id="Shape" sketch:type="MSShapeGroup"></path>
            <circle id="Oval-3" sketch:type="MSShapeGroup" cx="12" cy="5" r="2"></circle>
            <path d="M12,9 L12,9 C14.209139,9 16,7.209139 16,5 C16,2.790861 14.209139,1 12,1 C9.790861,1 8,2.790861 8,5 C8,7.209139 9.790861,9 12,9 L12,9 Z M12,10 L12,10 C9.23857625,10 7,7.76142375 7,5 C7,2.23857625 9.23857625,0 12,0 C14.7614237,0 17,2.23857625 17,5 C17,7.76142375 14.7614237,10 12,10 L12,10 Z" id="Shape" sketch:type="MSShapeGroup"></path>
        </g>
    </g>
</svg>