<?xml version="1.0" encoding="utf-8"?>
<!-- Generator: Adobe Illustrator 16.0.0, SVG Export Plug-In . SVG Version: 6.00 Build 0)  -->
<!DOCTYPE svg PUBLIC "-//W3C//DTD SVG 1.1//EN" "http://www.w3.org/Graphics/SVG/1.1/DTD/svg11.dtd">
<svg version="1.1" id="Outline_Icons" xmlns="http://www.w3.org/2000/svg" xmlns:xlink="http://www.w3.org/1999/xlink" x="0px"
	 y="0px" width="24px" height="24px" viewBox="0 0 24 24" enable-background="new 0 0 24 24" xml:space="preserve">
<g>
	<path d="M11.5,0C5.159,0,0,5.159,0,11.5S5.159,23,11.5,23S23,17.841,23,11.5S17.841,0,11.5,0z M11.5,22C5.71,22,1,17.29,1,11.5
		S5.71,1,11.5,1S22,5.71,22,11.5S17.29,22,11.5,22z"/>
	<path d="M16.096,6.904c-0.195-0.195-0.512-0.195-0.707,0L11.5,10.793L7.61,6.904c-0.195-0.195-0.512-0.195-0.707,0
		s-0.195,0.512,0,0.707l3.889,3.889l-3.889,3.889c-0.195,0.195-0.195,0.512,0,0.707c0.098,0.098,0.226,0.146,0.354,0.146
		s0.256-0.049,0.354-0.146l3.89-3.889l3.889,3.889c0.098,0.098,0.226,0.146,0.354,0.146s0.256-0.049,0.354-0.146
		c0.195-0.195,0.195-0.512,0-0.707L12.207,11.5l3.889-3.889C16.291,7.416,16.291,7.1,16.096,6.904z"/>
</g>
</svg>
