<?xml version="1.0" encoding="utf-8"?>
<!-- Generator: Adobe Illustrator 16.0.0, SVG Export Plug-In . SVG Version: 6.00 Build 0)  -->
<!DOCTYPE svg PUBLIC "-//W3C//DTD SVG 1.1//EN" "http://www.w3.org/Graphics/SVG/1.1/DTD/svg11.dtd">
<svg version="1.1" id="Outline_Icons" xmlns="http://www.w3.org/2000/svg" xmlns:xlink="http://www.w3.org/1999/xlink" x="0px"
	 y="0px" width="24px" height="24px" viewBox="0 0 24 24" enable-background="new 0 0 24 24" xml:space="preserve">
<path d="M23.5,12.081H12.843l5.34-9.249C18.321,2.593,18.239,2.287,18,2.149c-0.237-0.138-0.545-0.057-0.683,0.183L12,11.541
	l-5.317-9.21C6.545,2.092,6.238,2.009,6,2.148C5.761,2.286,5.679,2.592,5.817,2.831l5.341,9.25H0.5c-0.276,0-0.5,0.224-0.5,0.5
	s0.224,0.5,0.5,0.5h10.611L5.817,22.25C5.679,22.489,5.761,22.795,6,22.933C6.079,22.979,6.165,23,6.25,23
	c0.172,0,0.341-0.09,0.433-0.25L12,13.54l5.317,9.209c0.092,0.16,0.261,0.25,0.433,0.25c0.085,0,0.171-0.021,0.25-0.067
	c0.239-0.138,0.321-0.443,0.183-0.683l-5.293-9.168H23.5c0.276,0,0.5-0.224,0.5-0.5S23.776,12.081,23.5,12.081z"/>
</svg>
