<?xml version="1.0" encoding="UTF-8" standalone="no"?>
<svg width="24px" height="24px" viewBox="0 0 24 24" version="1.1" xmlns="http://www.w3.org/2000/svg" xmlns:xlink="http://www.w3.org/1999/xlink" xmlns:sketch="http://www.bohemiancoding.com/sketch/ns">
    <!-- Generator: Sketch 3.4.1 (15681) - http://www.bohemiancoding.com/sketch -->
    <title>section_break</title>
    <desc>Created with Sketch.</desc>
    <defs></defs>
    <g id="Page-1" stroke="none" stroke-width="1" fill="none" fill-rule="evenodd" sketch:type="MSPage">
        <g id="section_break" sketch:type="MSArtboardGroup" fill="#474747">
            <path d="M0.5,12 L3.5,12 C3.77614237,12 4,11.7761424 4,11.5 C4,11.2238576 3.77614237,11 3.5,11 L0.5,11 C0.223857625,11 0,11.2238576 0,11.5 C0,11.7761424 0.223857625,12 0.5,12 L0.5,12 Z" id="Shape" sketch:type="MSShapeGroup"></path>
            <path d="M5.5,12 L8.5,12 C8.77614237,12 9,11.7761424 9,11.5 C9,11.2238576 8.77614237,11 8.5,11 L5.5,11 C5.22385763,11 5,11.2238576 5,11.5 C5,11.7761424 5.22385763,12 5.5,12 L5.5,12 Z" id="Shape" sketch:type="MSShapeGroup"></path>
            <path d="M10.5,12 L13.5,12 C13.7761424,12 14,11.7761424 14,11.5 C14,11.2238576 13.7761424,11 13.5,11 L10.5,11 C10.2238576,11 10,11.2238576 10,11.5 C10,11.7761424 10.2238576,12 10.5,12 L10.5,12 Z" id="Shape" sketch:type="MSShapeGroup"></path>
            <path d="M15.5,12 L18.5,12 C18.7761424,12 19,11.7761424 19,11.5 C19,11.2238576 18.7761424,11 18.5,11 L15.5,11 C15.2238576,11 15,11.2238576 15,11.5 C15,11.7761424 15.2238576,12 15.5,12 L15.5,12 Z" id="Shape" sketch:type="MSShapeGroup"></path>
            <path d="M20.5,12 L23.5,12 C23.7761424,12 24,11.7761424 24,11.5 C24,11.2238576 23.7761424,11 23.5,11 L20.5,11 C20.2238576,11 20,11.2238576 20,11.5 C20,11.7761424 20.2238576,12 20.5,12 L20.5,12 Z" id="Shape" sketch:type="MSShapeGroup"></path>
        </g>
    </g>
</svg>