<svg xmlns="http://www.w3.org/2000/svg" width="24" height="24" viewBox="0 0 24 24"><path d="M23.5 12H19a.5.5 0 0 0 0 1h4v8H1v-8h6a.5.5 0 0 0 0-1H.5a.5.5 0 0 0-.5.5v9a.5.5 0 0 0 .5.5h23a.5.5 0 0 0 .5-.5v-9a.5.5 0 0 0-.5-.5z"/><path d="M8.212 17.5a.506.506 0 0 0 .197-.04l4.94-2.116.003-.003a.512.512 0 0 0 .157-.1l8.84-8.84a.5.5 0 0 0 0-.71l-2.83-2.83a.5.5 0 0 0-.705 0l-8.84 8.84a.495.495 0 0 0-.105.16l-.002.006v.004L7.75 16.81a.497.497 0 0 0 .46.696zm9.124-11.745l2.12 2.12-6.295 6.298-2.12-2.122 6.3-6.29zm1.836-1.836l2.12 2.12-1.128 1.13-2.12-2.127 1.128-1.13zm-8.67 9.002l1.783 1.785-3.122 1.337 1.34-3.123z"/></svg>