<svg xmlns="http://www.w3.org/2000/svg" width="24" height="24" viewBox="0 0 24 24"><path d="M4.02 1.107C2.283 1.107.973 2.36.973 4.02.973 5.69 2.285 7 3.96 7h.03c1.738 0 3.048-1.266 3.048-2.958-.04-1.7-1.308-2.935-3.018-2.935zM3.99 6h-.03C2.67 6 1.974 4.98 1.974 4.02c0-1.126.842-1.913 2.047-1.913 1.36 0 2 1.015 2.02 1.947C6.04 5.02 5.34 6 3.99 6zM6.5 8h-5a.5.5 0 0 0-.5.5v13a.5.5 0 0 0 .5.5h5a.5.5 0 0 0 .5-.5v-13a.5.5 0 0 0-.5-.5zM6 21H2V9h4v12zM17.438 8.042a6.69 6.69 0 0 0-3.438.97V8.5a.5.5 0 0 0-.5-.5h-5a.502.502 0 0 0-.5.53c.058.972 0 12.848 0 12.968a.502.502 0 0 0 .5.502h5a.5.5 0 0 0 .5-.5v-7c0-.827.673-1.5 1.5-1.5s1.5.673 1.5 1.5v7a.5.5 0 0 0 .5.5h5a.5.5 0 0 0 .5-.5v-6.654c0-4.197-2.13-6.804-5.562-6.804zM22 21h-4v-6.5c0-1.378-1.122-2.5-2.5-2.5S13 13.122 13 14.5V21H9.002c.01-2.076.042-9.785.01-12H13v.985a.5.5 0 0 0 .84.365c.015-.013 1.43-1.31 3.6-1.31 2.855 0 4.56 2.17 4.56 5.805V21z"/></svg>