<svg xmlns="http://www.w3.org/2000/svg" width="24" height="24"><path d="M19.14 7.165A.5.5 0 0 0 18.767 7H15V5.595c0-.282.058-.605.512-.605H18.5a.5.5 0 0 0 .5-.5V.548a.5.5 0 0 0-.5-.5L14.17.035C9.373.035 9 4.107 9 5.355V7H6.5a.5.5 0 0 0-.5.5v4a.5.5 0 0 0 .5.5H9v11.5a.5.5 0 0 0 .5.5h5a.5.5 0 0 0 .5-.5V12h3.35a.5.5 0 0 0 .498-.448l.417-4a.5.5 0 0 0-.126-.387zM17.9 11h-3.4a.5.5 0 0 0-.5.5V23h-4V11.5a.5.5 0 0 0-.5-.5H7V8h2.5a.5.5 0 0 0 .5-.5V5.355c0-1.613.542-4.32 4.17-4.32l3.83.012V3.99h-2.488c-.698 0-1.512.42-1.512 1.605V7.5a.5.5 0 0 0 .5.5h3.713l-.313 3z"/></svg>