<svg xmlns="http://www.w3.org/2000/svg" width="24" height="24" viewBox="0 0 24 24"><path d="M9.07 14.47a5.16 5.16 0 0 0-1.454-.22H7.56c-2.385 0-4.4 1.46-4.4 3.192 0 1.84 1.78 3.282 4.054 3.282 3.687 0 4.46-1.736 4.46-3.193a2.77 2.77 0 0 0-.077-.64c-.224-.872-.958-1.372-1.978-2.07l-.41-.28a.595.595 0 0 0-.14-.062zm1.555 2.658c.033.14.05.275.05.404 0 .542 0 2.193-3.462 2.193-1.712 0-3.053-1.002-3.053-2.282 0-1.148 1.62-2.193 3.4-2.193v-.5l.05.5c.38.004.748.057 1.097.157l.35.24c.898.61 1.44.98 1.568 1.48z"/><path d="M13.71 1H7.607a6.65 6.65 0 0 0-2.173.375c-2.423.833-4.116 2.92-4.116 5.077 0 2.83 2.073 5.05 4.908 5.37a2.85 2.85 0 0 0 .09.926c-2.644.2-4.968 1.588-5.905 3.583A4.14 4.14 0 0 0 0 18.1c0 .586.15 1.15.445 1.682.654 1.17 2.024 2.068 3.857 2.53.917.232 1.9.35 2.923.35.926 0 1.812-.12 2.633-.358 2.638-.765 4.342-2.735 4.342-5.018 0-2.13-.714-3.467-2.546-4.764-.622-.44-1.086-.983-1.192-1.17.007-.208.08-.343.795-.9 1.353-1.06 2.098-2.464 2.098-3.958 0-.966-.217-1.87-.62-2.626a1.02 1.02 0 0 0 .183-.104l1.362-.987a.972.972 0 0 0 .36-1.097.974.974 0 0 0-.93-.678zm-1.366 1.947h-.488a.5.5 0 0 0-.384.82c.57.684.885 1.65.885 2.724 0 1.18-.61 2.31-1.713 3.17-.96.75-1.18 1.08-1.18 1.79.03.59 1.1 1.53 1.614 1.89 1.568 1.11 2.124 2.146 2.124 3.95 0 1.827-1.42 3.42-3.62 4.058-1.556.45-3.455.4-5.034 0-1.564-.394-2.71-1.12-3.23-2.048A2.42 2.42 0 0 1 1 18.1c0-.44.107-.89.32-1.34.85-1.815 3.123-3.034 5.733-3.034a.5.5 0 0 0 .434-.748 1.917 1.917 0 0 1-.196-1.49.502.502 0 0 0-.47-.624c-2.602-.06-4.5-1.914-4.5-4.41 0-1.736 1.42-3.435 3.44-4.132A5.662 5.662 0 0 1 7.61 2l6.088-.037-1.352.984z"/><path d="M6.782 2.823h-.004c-.618 0-1.188.262-1.603.737-.598.682-.854 1.733-.702 2.883.27 2.07 1.776 3.793 3.393 3.84.636 0 1.196-.255 1.617-.736.603-.687.872-1.786.72-2.94-.27-2.072-1.746-3.734-3.367-3.783h-.054zm2.43 3.915c.113.86-.072 1.683-.48 2.15a1.096 1.096 0 0 1-.873.395c-1.08-.03-2.2-1.42-2.4-2.97-.116-.865.052-1.627.46-2.094.23-.27.515-.4.85-.4v-.5l.04.5c1.095.03 2.193 1.37 2.395 2.912zM23.5 9H21V6.5a.5.5 0 0 0-.5-.5h-2a.5.5 0 0 0-.5.5V9h-2.5a.5.5 0 0 0-.5.5v2a.5.5 0 0 0 .5.5H18v2.5a.5.5 0 0 0 .5.5h2a.5.5 0 0 0 .5-.5V12h2.5a.5.5 0 0 0 .5-.5v-2a.5.5 0 0 0-.5-.5zm-.5 2h-2.5a.5.5 0 0 0-.5.5V14h-1v-2.5a.5.5 0 0 0-.5-.5H16v-1h2.5a.5.5 0 0 0 .5-.5V7h1v2.5a.5.5 0 0 0 .5.5H23v1z"/></svg>