<?xml version="1.0" encoding="utf-8"?>
<!-- Generator: Adobe Illustrator 16.0.0, SVG Export Plug-In . SVG Version: 6.00 Build 0)  -->
<!DOCTYPE svg PUBLIC "-//W3C//DTD SVG 1.1//EN" "http://www.w3.org/Graphics/SVG/1.1/DTD/svg11.dtd">
<svg version="1.1" id="Outline_Icons" xmlns="http://www.w3.org/2000/svg" xmlns:xlink="http://www.w3.org/1999/xlink" x="0px"
	 y="0px" width="24px" height="24px" viewBox="0 0 24 24" enable-background="new 0 0 24 24" xml:space="preserve">
<path d="M19.476,9.634c-0.059-0.182-0.216-0.314-0.404-0.341L14.18,8.586l-2.188-4.405c-0.17-0.341-0.728-0.339-0.896,0L8.91,8.586
	L4.018,9.293C3.829,9.32,3.672,9.453,3.613,9.634c-0.059,0.181-0.009,0.38,0.128,0.513l3.538,3.429l-0.835,4.839
	c-0.032,0.188,0.045,0.377,0.198,0.489c0.154,0.112,0.359,0.127,0.526,0.04l4.375-2.287l4.377,2.287
	C15.994,18.981,16.073,19,16.152,19c0.104,0,0.207-0.032,0.295-0.096c0.153-0.112,0.23-0.301,0.198-0.489l-0.835-4.839l3.537-3.429
	C19.485,10.015,19.534,9.815,19.476,9.634z M14.925,13.042c-0.119,0.115-0.173,0.281-0.146,0.444l0.708,4.104l-3.712-1.94
	c-0.072-0.038-0.152-0.057-0.231-0.057s-0.159,0.019-0.231,0.057l-3.71,1.939l0.708-4.103c0.027-0.163-0.026-0.329-0.146-0.444
	l-2.997-2.904l4.145-0.598c0.163-0.024,0.304-0.125,0.377-0.273l1.854-3.737L13.4,9.267c0.073,0.147,0.214,0.249,0.377,0.272
	l4.144,0.599L14.925,13.042z"/>
</svg>
