<svg width="24" height="24" xmlns="http://www.w3.org/2000/svg"><title>Artboard</title><path d="M19.976 10.134a.5.5 0 0 0-.404-.34l-4.892-.708-2.188-4.405c-.17-.34-.728-.33-.896 0L9.41 9.09l-4.892.707a.5.5 0 0 0-.277.854l3.54 3.43-.83 4.84a.5.5 0 0 0 .727.53l4.375-2.29 4.377 2.29a.5.5 0 0 0 .726-.53l-.835-4.84 3.538-3.43a.5.5 0 0 0 .13-.51zm-4.55 3.408a.503.503 0 0 0-.147.444l.7 4.104-3.71-1.94a.496.496 0 0 0-.46 0L8.1 18.09l.71-4.104a.5.5 0 0 0-.146-.444l-2.997-2.904 4.145-.598a.5.5 0 0 0 .377-.273l1.85-3.737 1.86 3.737a.5.5 0 0 0 .372.272l4.144.59-2.99 2.903z" fill-rule="evenodd"/></svg>