<?xml version="1.0" encoding="utf-8"?>
<!-- Generator: Adobe Illustrator 16.0.0, SVG Export Plug-In . SVG Version: 6.00 Build 0)  -->
<!DOCTYPE svg PUBLIC "-//W3C//DTD SVG 1.1//EN" "http://www.w3.org/Graphics/SVG/1.1/DTD/svg11.dtd">
<svg version="1.1" id="Outline_Icons" xmlns="http://www.w3.org/2000/svg" xmlns:xlink="http://www.w3.org/1999/xlink" x="0px"
	 y="0px" width="24px" height="24px" viewBox="0 0 24 24" enable-background="new 0 0 24 24" xml:space="preserve">
<path d="M23.5,13H13.22c-0.823-0.61-1.728-1.166-2.623-1.715C7.976,9.678,5.5,8.16,5.5,5.5C5.5,2.252,8.944,2,10,2
	c3.988,0,4.5,1.604,4.5,3v1c0,0.276,0.224,0.5,0.5,0.5s0.5-0.224,0.5-0.5V5c0-2.654-1.851-4-5.5-4C6.607,1,4.5,2.725,4.5,5.5
	c0,3.22,2.833,4.957,5.573,6.638c0.469,0.288,0.933,0.573,1.381,0.862H0.5C0.224,13,0,13.224,0,13.5S0.224,14,0.5,14h12.383
	c1.522,1.182,2.617,2.547,2.617,4.5c0,3.317-2.841,4.5-5.5,4.5c-2.509,0-5.5-0.694-5.5-4v-1c0-0.276-0.224-0.5-0.5-0.5
	S3.5,17.724,3.5,18v1c0,3.225,2.309,5,6.5,5c3.948,0,6.5-2.159,6.5-5.5c0-1.912-0.854-3.325-2.085-4.5H23.5
	c0.276,0,0.5-0.224,0.5-0.5S23.776,13,23.5,13z"/>
</svg>
