<svg xmlns="http://www.w3.org/2000/svg" width="24" height="24"><path d="M23.5 13H13.22c-.823-.61-1.728-1.166-2.623-1.715C7.977 9.678 5.5 8.16 5.5 5.5 5.5 2.252 8.944 2 10 2c3.988 0 4.5 1.604 4.5 3v1a.5.5 0 0 0 1 0V5c0-2.654-1.85-4-5.5-4-3.393 0-5.5 1.725-5.5 4.5 0 3.22 2.833 4.957 5.573 6.638.47.288.933.573 1.38.862H.5a.5.5 0 0 0 0 1h12.383c1.522 1.182 2.617 2.547 2.617 4.5 0 3.317-2.84 4.5-5.5 4.5-2.51 0-5.5-.694-5.5-4v-1a.5.5 0 0 0-1 0v1c0 3.225 2.31 5 6.5 5 3.948 0 6.5-2.16 6.5-5.5 0-1.912-.854-3.325-2.085-4.5H23.5a.5.5 0 0 0 0-1z"/></svg>