<svg xmlns="http://www.w3.org/2000/svg" width="24" height="24" viewBox="0 0 24 24"><path d="M7.24 10.128a.5.5 0 0 0-.705.063L4.01 13.22a8.024 8.024 0 0 1 1.08-5.242C6.27 6 8.194 4.572 10.373 4.058a7.998 7.998 0 0 1 7.835 2.486.5.5 0 0 0 .748-.664 8.988 8.988 0 0 0-8.813-2.796c-2.44.577-4.594 2.172-5.91 4.377A9.06 9.06 0 0 0 2.94 12.3l-1.6-2.38a.5.5 0 1 0-.83.557l2.788 4.15c.088.13.23.213.39.222h.025a.5.5 0 0 0 .384-.18l3.205-3.84a.498.498 0 0 0-.063-.707zm16.675 4.092l-2.786-4.15a.5.5 0 0 0-.39-.22.51.51 0 0 0-.32.113c-.02.01-.03.02-.05.033-.014.013-.03.02-.045.033l-.054.06c-.004.004-.01.01-.016.02l-3.138 3.75a.502.502 0 0 0 .062.706.5.5 0 0 0 .703-.063l2.405-2.88c.086 3.62-2.554 7.13-6.244 8a7.965 7.965 0 0 1-7.463-2.092.5.5 0 1 0-.7.71 8.96 8.96 0 0 0 8.395 2.357c4.04-.954 6.893-4.55 7.02-8.476l1.78 2.654c.1.14.258.22.418.22a.5.5 0 0 0 .415-.78z"/></svg>