<?xml version="1.0" encoding="utf-8"?>
<!-- Generator: Adobe Illustrator 19.1.0, SVG Export Plug-In . SVG Version: 6.00 Build 0)  -->
<svg version="1.1" id="Layer_1" xmlns:sketch="http://www.bohemiancoding.com/sketch/ns"
	 xmlns="http://www.w3.org/2000/svg" xmlns:xlink="http://www.w3.org/1999/xlink" x="0px" y="0px" viewBox="-293 385 24 24"
	 style="enable-background:new -293 385 24 24;" xml:space="preserve">
<style type="text/css">
	.st0{fill:none;}
	.st1{fill:#474747;}
</style>
<title>table</title>
<desc>Created with Sketch.</desc>
<g>
	<path class="st0" d="M-292,389v3h6v-4h-5C-291.6,388-292,388.4-292,389z"/>
	<rect x="-285" y="403" class="st0" width="8" height="3"/>
	<rect x="-292" y="393" class="st0" width="6" height="4"/>
	<rect x="-292" y="398" class="st0" width="6" height="4"/>
	<rect x="-285" y="398" class="st0" width="8" height="4"/>
	<path class="st0" d="M-292,405c0,0.5,0.5,1,1,1h5v-3h-6V405z"/>
	<polygon class="st0" points="-276,393 -276,397 -270.5,397 -270,397 -270,393 -270.5,393 	"/>
	<path class="st0" d="M-271,388h-5v4h5.5h0.5v-3C-270,388.4-270.5,388-271,388z"/>
	<rect x="-285" y="393" class="st0" width="8" height="4"/>
	<polygon class="st0" points="-276,398 -276,402 -270.5,402 -270,402 -270,398 -270.5,398 	"/>
	<rect x="-285" y="388" class="st0" width="8" height="4"/>
	<path class="st0" d="M-276,403v3h5c0.6,0,1-0.4,1-1v-2h-0.5H-276z"/>
	<g>
		<rect x="-285" y="403" class="st0" width="8" height="3"/>
		<rect x="-285" y="393" class="st0" width="8" height="4"/>
		<path class="st0" d="M-292,389v3h6v-4h-5C-291.6,388-292,388.4-292,389z"/>
		<rect x="-285" y="398" class="st0" width="8" height="4"/>
		<path class="st0" d="M-292,405c0,0.5,0.5,1,1,1h5v-3h-6V405z"/>
		<rect x="-292" y="398" class="st0" width="6" height="4"/>
		<rect x="-292" y="393" class="st0" width="6" height="4"/>
		<path class="st0" d="M-271,388h-5v4h5.5h0.5v-3C-270,388.4-270.5,388-271,388z"/>
		<polygon class="st0" points="-276,393 -276,397 -270.5,397 -270,397 -270,393 -270.5,393 		"/>
		<polygon class="st0" points="-276,398 -276,402 -270.5,402 -270,402 -270,398 -270.5,398 		"/>
		<rect x="-285" y="388" class="st0" width="8" height="4"/>
		<path class="st0" d="M-276,403v3h5c0.6,0,1-0.4,1-1v-2h-0.5H-276z"/>
		<path class="st1" d="M-271,387h-20c-1.1,0-2,0.9-2,2v3v1v4v1v4v1v2c0,1.1,0.9,2,2,2h20c1.1,0,2-0.9,2-2v-16
			C-269,387.9-269.9,387-271,387z M-286,406h-5c-0.6,0-1-0.4-1-1v-2h6V406z M-286,402h-6v-4h6V402z M-286,397h-6v-4h6V397z
			 M-286,392h-6v-3c0-0.5,0.4-1,1-1h5V392z M-277,406h-8v-3h8V406z M-277,402h-8v-4h8V402z M-277,397h-8v-4h8V397z M-277,392h-8v-4
			h8V392z M-270,405c0,0.5-0.4,1-1,1h-5v-3h5.5h0.5V405z M-270,402h-0.5h-5.5v-4h5.5h0.5V402z M-270,397h-0.5h-5.5v-4h5.5h0.5V397z
			 M-270,392h-0.5h-5.5v-4h5c0.6,0,1,0.4,1,1V392z"/>
	</g>
</g>
</svg>
