<?xml version="1.0" encoding="UTF-8" standalone="no"?>
<svg width="24px" height="24px" viewBox="0 0 24 24" version="1.1" xmlns="http://www.w3.org/2000/svg" xmlns:xlink="http://www.w3.org/1999/xlink" xmlns:sketch="http://www.bohemiancoding.com/sketch/ns">
    <!-- Generator: Sketch 3.4.1 (15681) - http://www.bohemiancoding.com/sketch -->
    <title>table</title>
    <desc>Created with Sketch.</desc>
    <defs></defs>
    <g id="Page-1" stroke="none" stroke-width="1" fill="none" fill-rule="evenodd" sketch:type="MSPage">
        <g id="table" sketch:type="MSArtboardGroup" fill="#474747">
            <g id="(fake)-table" sketch:type="MSLayerGroup" transform="translate(0.000000, 2.000000)">
                <path d="M1,1.99079514 L1,1.99079514 L1,18.0092049 C1,18.5508341 1.45127785,19 2.00494659,19 L21.9950534,19 C22.5520073,19 23,18.5550745 23,18.0092049 L23,1.99079514 C23,1.44916585 22.5487222,1 21.9950534,1 L2.00494659,1 C1.4479927,1 1,1.44492552 1,1.99079514 L1,1.99079514 Z M0,1.99079514 C0,0.891309342 0.897026226,0 2.00494659,0 L21.9950534,0 C23.1023548,0 24,0.898212381 24,1.99079514 L24,18.0092049 C24,19.1086907 23.1029738,20 21.9950534,20 L2.00494659,20 C0.897645164,20 0,19.1017876 0,18.0092049 L0,1.99079514 L0,1.99079514 Z" id="Shape" sketch:type="MSShapeGroup"></path>
                <path d="M16,0.555555556 L16,19.4444444 L16,19.9444444 L17,19.9444444 L17,19.4444444 L17,0.555555556 L17,0.0555555556 L16,0.0555555556 L16,0.555555556 L16,0.555555556 Z" id="Shape" sketch:type="MSShapeGroup"></path>
                <path d="M7,0.555555556 L7,19.4444444 L7,19.9444444 L8,19.9444444 L8,19.4444444 L8,0.555555556 L8,0.0555555556 L7,0.0555555556 L7,0.555555556 L7,0.555555556 Z" id="Shape" sketch:type="MSShapeGroup"></path>
                <path d="M0.5,6 L22.5227146,6 L23.0227146,6 L23.0227146,5 L22.5227146,5 L0.5,5 L0,5 L0,6 L0.5,6 L0.5,6 Z" id="Shape" sketch:type="MSShapeGroup"></path>
                <path d="M0.5,11 L22.5227146,11 L23.0227146,11 L23.0227146,10 L22.5227146,10 L0.5,10 L0,10 L0,11 L0.5,11 L0.5,11 Z" id="Shape" sketch:type="MSShapeGroup"></path>
                <path d="M0.5,16 L22.5227146,16 L23.0227146,16 L23.0227146,15 L22.5227146,15 L0.5,15 L0,15 L0,16 L0.5,16 L0.5,16 Z" id="Shape" sketch:type="MSShapeGroup"></path>
            </g>
        </g>
    </g>
</svg>