<?xml version="1.0" encoding="utf-8"?>
<!-- Generator: Adobe Illustrator 16.0.0, SVG Export Plug-In . SVG Version: 6.00 Build 0)  -->
<!DOCTYPE svg PUBLIC "-//W3C//DTD SVG 1.1//EN" "http://www.w3.org/Graphics/SVG/1.1/DTD/svg11.dtd">
<svg version="1.1" id="Outline_Icons" xmlns="http://www.w3.org/2000/svg" xmlns:xlink="http://www.w3.org/1999/xlink" x="0px"
	 y="0px" width="24px" height="24px" viewBox="0 0 24 24" enable-background="new 0 0 24 24" xml:space="preserve">
<g>
	<path d="M12,0C5.383,0,0,5.383,0,12s5.383,12,12,12s12-5.383,12-12S18.617,0,12,0z M12,23C5.935,23,1,18.066,1,12
		C1,5.935,5.935,1,12,1s11,4.935,11,11C23,18.066,18.065,23,12,23z"/>
	<path d="M12,11.78V6.5C12,6.224,11.776,6,11.5,6S11,6.224,11,6.5V12c0,0.14,0.059,0.274,0.162,0.369l6,5.5
		C17.258,17.957,17.379,18,17.5,18c0.135,0,0.27-0.055,0.369-0.162c0.187-0.204,0.173-0.52-0.031-0.707L12,11.78z"/>
</g>
</svg>
