<svg xmlns="http://www.w3.org/2000/svg" width="24" height="24" viewBox="0 0 24 24"><path d="M19.677 17.318L15 15.648V13.34c1.433-1.174 2.375-3.13 2.375-5.342 0-3.584-2.467-6.5-5.5-6.5s-5.5 2.916-5.5 6.5c0 2.338 1.053 4.385 2.625 5.53v2.118l-4.678 1.67A3.506 3.506 0 0 0 2 20.616V22.5a.5.5 0 0 0 .5.5h19a.5.5 0 0 0 .5-.5v-1.886a3.51 3.51 0 0 0-2.323-3.296zM11.875 2.5c2.204 0 4.04 1.947 4.423 4.507-.007 0-.01 0-.018.002-1.452.28-2.353-.2-3.206-1.69-.09-.16-.232-.236-.444-.25a.498.498 0 0 0-.434.27c-.46.88-2.013 1.66-3.32 1.66A3.5 3.5 0 0 1 7.5 6.74c.465-2.43 2.25-4.24 4.373-4.24zM7.375 8c0-.08.007-.16.01-.24.47.157.954.24 1.49.24 1.374 0 2.88-.653 3.735-1.55.797 1.11 1.737 1.635 2.93 1.635.265 0 .545-.034.835-.085 0 3.033-2.02 5.5-4.5 5.5s-4.5-2.467-4.5-5.5zM21 22H3v-1.386c0-1.054.667-2 1.66-2.354l5.008-1.79A.5.5 0 0 0 10 16v-1.897a4.728 4.728 0 0 0 1.875.397c.753 0 1.47-.18 2.125-.506V16c0 .21.133.4.332.47l5.008 1.79c.993.355 1.66 1.3 1.66 2.354V22z"/></svg>