<svg width="24" height="24" xmlns="http://www.w3.org/2000/svg"><title>users</title><g fill="#474747" fill-rule="evenodd"><path d="M6.7 12.83v2.61l.332-.47-4.81 1.717A3.38 3.38 0 0 0-.02 19.87v1.81a.5.5 0 0 0 .5.5h18.24a.5.5 0 0 0 .5-.5v-1.81a3.38 3.38 0 0 0-2.243-3.183l-4.81-1.718.333.47v-2.79h-1v2.79c0 .21.133.4.332.47l4.808 1.72a2.38 2.38 0 0 1 1.58 2.24v1.81l.5-.5H.48l.5.5v-1.81a2.38 2.38 0 0 1 1.58-2.25L7.368 15.9a.5.5 0 0 0 .332-.47v-2.61h-1z"/><path d="M13.78 7.76c0 2.923-1.948 5.26-4.3 5.26-2.353 0-4.3-2.337-4.3-5.26 0-2.923 1.947-5.26 4.3-5.26 2.352 0 4.3 2.337 4.3 5.26zm1 0c0-3.44-2.35-6.26-5.3-6.26-2.95 0-5.3 2.82-5.3 6.26s2.35 6.26 5.3 6.26c2.95 0 5.3-2.82 5.3-6.26z"/><path d="M14.176 6.738a2.617 2.617 0 0 1-.15.013c-.02.01-.02.01-.042.01a2.18 2.18 0 0 0-.28.038c-1.385.267-2.24-.184-3.055-1.61a.5.5 0 0 0-.88.017c-.44.83-1.93 1.58-3.17 1.58a3.36 3.36 0 0 1-1.63-.39l-.466.887a4.36 4.36 0 0 0 2.09.504c1.59 0 3.435-.927 4.057-2.12l-.877.016c1.017 1.78 2.284 2.45 4.114 2.094.05-.01.092-.01.16-.02h.037a1.9 1.9 0 0 0 .203-.02l-.116-.99zM21.12 22.18h2.4a.5.5 0 0 0 .5-.5c0-.167-.004-.456-.015-.827a30.894 30.894 0 0 0-.104-1.817c-.08-.887-.19-1.603-.36-2.103-.42-1.26-2.55-2.405-6.56-3.915l.33.467v-1.44l-.237.426c.19-.11.43-.36.655-.76.34-.62.54-1.454.54-2.54l-.5.5c1.63 0 1.63-2.92 0-2.92v.5h.5c0 .07.228-.42.35-.72.24-.566.387-1.083.42-1.592.025-.3.005-.59-.063-.86-.356-1.43-2.692-2.575-4.24-1.54a.5.5 0 0 0 .553.83c.936-.623 2.52.152 2.72.95.04.165.052.348.04.55-.03.382-.15.803-.348 1.28.036-.09-.43.917-.43 1.106a.5.5 0 0 0 .5.5c.294 0 .294.92 0 .92a.5.5 0 0 0-.5.5c0 .92-.16 1.59-.417 2.056-.137.25-.256.37-.305.4a.5.5 0 0 0-.237.425v1.44a.5.5 0 0 0 .328.47c3.605 1.36 5.694 2.477 5.965 3.295.136.41.242 1.06.315 1.877a33.032 33.032 0 0 1 .116 2.555l.5-.5h-2.4a.5.5 0 1 0 0 1z"/></g></svg>