<svg xmlns="http://www.w3.org/2000/svg" width="24" height="24" viewBox="0 0 24 24" class="icon"><path d="M23.5 0H.5a.5.5 0 0 0-.5.5v8a.5.5 0 0 0 .5.5H5v3a.5.5 0 0 0 .807.395L10.17 9H23.5a.5.5 0 0 0 .5-.5v-8a.5.5 0 0 0-.5-.5zM23 8H10c-.11 0-.22.037-.307.105L6 10.978V8.5a.5.5 0 0 0-.5-.5H1V1h22v7z"/><path d="M23.5 11h-13a.5.5 0 0 0 0 1H23v6h-4.5a.5.5 0 0 0-.5.5v2.887l-3.668-3.26A.495.495 0 0 0 14 18H1v-6h2a.5.5 0 0 0 0-1H.5a.5.5 0 0 0-.5.5v7a.5.5 0 0 0 .5.5h13.31l4.358 3.874A.498.498 0 0 0 19 22.5V19h4.5a.5.5 0 0 0 .5-.5v-7a.5.5 0 0 0-.5-.5z"/></svg>