<svg xmlns="http://www.w3.org/2000/svg" width="24" height="24" viewBox="0 0 24 24" class="icon"><path d="M6.25 14.457c-1.654 0-3 1.346-3 3s1.346 3 3 3 3-1.346 3-3-1.346-3-3-3zm0 5c-1.103 0-2-.897-2-2s.897-2 2-2 2 .897 2 2-.897 2-2 2z"/><path d="M23.604 7.103l-2.146-2.146 1.146-1.146a1.9 1.9 0 0 0 .562-1.35c0-.513-.2-.994-.562-1.357-.724-.722-1.982-.722-2.707 0L8.914 12.086a5.98 5.98 0 0 0-2.664-.63c-3.31 0-6 2.692-6 6s2.69 6 6 6 6-2.69 6-6c0-.92-.216-1.834-.63-2.663l4.63-4.628 1.646 1.646a.5.5 0 0 0 .707 0l1.5-1.5a.5.5 0 0 0 0-.706l-1.646-1.646.793-.793 2.146 2.146a.5.5 0 0 0 .707 0l1.5-1.5a.5.5 0 0 0 0-.707zM21.75 8.25l-2.146-2.146a.5.5 0 0 0-.707 0l-1.5 1.5a.5.5 0 0 0 0 .707l1.646 1.647-.793.793-1.646-1.646a.5.5 0 0 0-.707 0l-5.245 5.244a.5.5 0 0 0-.08.605c.444.763.68 1.628.68 2.503 0 2.758-2.244 5-5 5s-5-2.242-5-5c0-2.757 2.242-5 5-5 .874 0 1.74.234 2.503.678a.5.5 0 0 0 .604-.08L20.602 1.812a.938.938 0 0 1 1.293 0 .91.91 0 0 1 .268.648.905.905 0 0 1-.268.646l-1.5 1.5a.5.5 0 0 0 0 .707l2.146 2.147-.792.793z"/></svg>