<svg xmlns="http://www.w3.org/2000/svg" width="24" height="24" viewBox="0 0 24 24" class="icon"><path d="M1 1h10v4.5a.5.5 0 0 0 .5.5H16v3.5h1V5.502 5.5a.5.5 0 0 0-.03-.15c-.004-.013-.003-.027-.008-.04a.502.502 0 0 0-.115-.168L11.854.147A.495.495 0 0 0 11.5 0H.5a.5.5 0 0 0-.5.5v21a.5.5 0 0 0 .5.5h10v-1H1V1zm11 .708L15.29 5H12V1.708z"/><path d="M17.5 11c-3.584 0-6.5 2.916-6.5 6.5s2.916 6.5 6.5 6.5 6.5-2.916 6.5-6.5-2.916-6.5-6.5-6.5zm0 12c-3.033 0-5.5-2.467-5.5-5.5s2.467-5.5 5.5-5.5 5.5 2.467 5.5 5.5-2.467 5.5-5.5 5.5z"/><path d="M17.858 14.425a.496.496 0 0 0-.716 0l-2.177 2.177a.5.5 0 0 0 .707.707L17 15.98v4.246a.5.5 0 0 0 1 0V15.98l1.328 1.33a.498.498 0 0 0 .708 0 .5.5 0 0 0 0-.708l-2.178-2.177z"/></svg>