<svg xmlns="http://www.w3.org/2000/svg" width="24" height="24" viewBox="0 0 24 24" class="icon"><path d="M22.383 7.805a5.223 5.223 0 0 0-3.53-1.473A7.23 7.23 0 0 0 12.5 2.5a7.197 7.197 0 0 0-7.122 6.228 4.097 4.097 0 0 0-2.87.907A4.067 4.067 0 0 0 1 12.805c0 3.45 3.03 3.987 3.958 4.07a.52.52 0 0 0 .542-.455.5.5 0 0 0-.454-.542C3.908 15.778 2 15.243 2 12.805a3.09 3.09 0 0 1 3.723-3.022.5.5 0 0 0 .6-.46A6.195 6.195 0 0 1 12.5 3.5a6.223 6.223 0 0 1 5.594 3.548c.086.18.228.296.47.285a4.23 4.23 0 0 1 3.126 1.19A4.256 4.256 0 0 1 23 11.61c0 3.72-3.713 4.264-3.87 4.286a.5.5 0 0 0 .13.992c.047-.006 4.74-.67 4.74-5.278 0-1.45-.574-2.8-1.617-3.805z"/><path d="M12 11.195c-3.032 0-5.5 2.467-5.5 5.5s2.468 5.5 5.5 5.5 5.5-2.467 5.5-5.5-2.468-5.5-5.5-5.5zm0 10c-2.48 0-4.5-2.02-4.5-4.5s2.02-4.5 4.5-4.5 4.5 2.02 4.5 4.5-2.02 4.5-4.5 4.5z"/><path d="M13.646 15.342L11.5 17.488l-1.146-1.146a.5.5 0 0 0-.707.707l1.5 1.5a.498.498 0 0 0 .708 0l2.5-2.5a.5.5 0 1 0-.71-.708z"/></svg>