<svg xmlns="http://www.w3.org/2000/svg" width="24" height="24" viewBox="0 0 24 24" class="icon"><path d="M23.892 11.69c-.065-.082-1.614-2.023-4.082-3.807a.5.5 0 1 0-.586.81A22.364 22.364 0 0 1 22.844 12c-1.11 1.27-5.597 6-10.845 6a9.77 9.77 0 0 1-2.857-.443.5.5 0 0 0-.29.958C9.91 18.835 10.97 19 12 19c6.52 0 11.676-6.417 11.892-6.69a.5.5 0 0 0 0-.62zM4.467 16.2a.5.5 0 0 0 .294-.905A22.385 22.385 0 0 1 1.154 12C2.264 10.73 6.752 6 12 6c.776 0 1.577.104 2.38.31a.498.498 0 1 0 .248-.968A10.59 10.59 0 0 0 12 5C5.48 5 .324 11.417.108 11.69a.5.5 0 0 0 0 .62c.064.083 1.608 2.016 4.066 3.796.09.064.192.095.293.095z"/><path d="M7.5 12a.5.5 0 0 0 1 0c0-1.93 1.57-3.5 3.5-3.5a.5.5 0 0 0 0-1c-2.48 0-4.5 2.02-4.5 4.5zM15.5 12c0 1.93-1.57 3.5-3.5 3.5a.5.5 0 0 0 0 1c2.48 0 4.5-2.018 4.5-4.5a.5.5 0 0 0-1 0zM22.104 1.896a.5.5 0 0 0-.707 0l-19.5 19.5a.5.5 0 0 0 .708.707l19.5-19.5a.5.5 0 0 0 0-.707z"/></svg>