<svg xmlns="http://www.w3.org/2000/svg" width="24" height="24" viewBox="0 0 24 24" class="icon"><path d="M1 1h10v4.5a.5.5 0 0 0 .5.5H16v3.5h1V5.502 5.5a.5.5 0 0 0-.03-.15c-.004-.013-.003-.027-.008-.04a.502.502 0 0 0-.115-.168L11.854.147A.495.495 0 0 0 11.5 0H.5a.5.5 0 0 0-.5.5v21a.5.5 0 0 0 .5.5h10v-1H1V1zm11 .708L15.29 5H12V1.708z"/><path d="M17.5 11c-3.584 0-6.5 2.916-6.5 6.5s2.916 6.5 6.5 6.5 6.5-2.916 6.5-6.5-2.916-6.5-6.5-6.5zm0 12c-3.033 0-5.5-2.467-5.5-5.5s2.467-5.5 5.5-5.5 5.5 2.467 5.5 5.5-2.467 5.5-5.5 5.5z"/><path d="M20.403 15.528l-3.465 3.797-2.357-2.357a.5.5 0 0 0-.706.707l2.728 2.728a.5.5 0 0 0 .354.146h.01a.5.5 0 0 0 .36-.164l3.817-4.184a.5.5 0 0 0-.032-.706.5.5 0 0 0-.707.032z"/></svg>