<svg xmlns="http://www.w3.org/2000/svg" width="24" height="24" viewBox="0 0 24 24" class="icon"><path d="M20.93 4.01a.504.504 0 0 0-.16-.174A12 12 0 0 0 15.484.52l-.04-.01A11.953 11.953 0 0 0 12 0C5.383 0 0 5.383 0 12s5.383 12 12 12 12-5.383 12-12c0-3.07-1.168-5.865-3.07-7.99zm-.983.406c-.16.62-.7 2.294-2.02 3.056-1.772-.346-3.476.622-3.844 1.07-.237.29-.155.547-.11.644.067.14.24.257.406.298.166.188.46.938.635 1.638a.503.503 0 0 0 .13.232c.486.485 1.178.4 1.63.266.064.535-.695 1.383-1.44 2.158-.556.577-.835.867-.835 1.222 0 .415.304.68.526.873.075.064.205.172.217.15 0 0-.016.043-.097.124-.648.648-1.3.878-1.305.88a.5.5 0 0 0-.34.473c0 1.308-.817 1.98-2.43 2-.336-.25-1.05-1.632-1.07-2 0-.132.1-.333.197-.526.142-.284.303-.606.303-.974 0-.562-.62-1.304-1.005-1.708-.03-.618-.208-1.07-.537-1.382-.564-.532-1.407-.484-2.222-.438-.24.013-.488.028-.736.028-.98 0-1-1.44-1-1.5 0-.03.024-3.095 2.098-3.51C8.545 7.2 8.97 7.47 9 7.5c0 .133.053.26.146.354.894.894 2.25.58 3.34.325.395-.093.768-.18 1.014-.18a.5.5 0 0 0 .495-.43c.19-1.326.28-3.006-.372-3.476-.242-.174-.55-.19-.847-.042-.362.182-.7.212-.926.086-.252-.14-.33-.45-.353-.686-.06-.643 1.948-1.52 3.837-1.934a11.03 11.03 0 0 1 4.613 2.898zM12 23C5.935 23 1 18.066 1 12 1 5.935 5.935 1 12 1c.425 0 .842.03 1.254.077-1.366.493-2.86 1.3-2.752 2.47.062.67.37 1.19.863 1.466.476.265 1.085.266 1.698.008.087.357.084 1.173-.008 2.02-.25.038-.518.1-.795.165-.84.195-1.783.413-2.31.025a1.095 1.095 0 0 0-.346-.484c-.51-.42-1.395-.497-2.702-.236C4.032 7.083 4 10.84 4 11c0 .865.418 2.5 2 2.5.267 0 .534-.015.793-.03.63-.036 1.227-.07 1.478.167.153.143.23.434.23.863 0 .132.053.26.146.354.424.424.832.975.854 1.146 0 .132-.1.333-.197.526-.142.284-.303.606-.303.974 0 .507 1.025 3 2 3 2.09 0 3.343-.966 3.486-2.665.326-.158.85-.463 1.367-.98.266-.267.396-.547.386-.834-.016-.43-.33-.703-.558-.902-.04-.035-.09-.08-.128-.104.117-.144.333-.368.5-.542.94-.977 2.512-2.612 1.3-3.825a.5.5 0 0 0-.578-.094c-.21.105-.626.22-.838.145-.246-.928-.503-1.464-.733-1.774.547-.312 1.617-.703 2.674-.438.113.03.237.015.344-.038 1.418-.71 2.147-2.157 2.494-3.13A10.928 10.928 0 0 1 23 12c0 6.066-4.935 11-11 11z"/></svg>