<svg xmlns="http://www.w3.org/2000/svg" width="24" height="24" viewBox="0 0 24 24" class="icon"><path d="M11.5 1C5.16 1 0 6.16 0 12.5S5.16 24 11.5 24 23 18.84 23 12.5 17.84 1 11.5 1zm0 22C5.71 23 1 18.29 1 12.5S5.71 2 11.5 2 22 6.71 22 12.5 17.29 23 11.5 23z"/><path d="M11.5 6.5C9.57 6.5 8 8.07 8 10a.5.5 0 0 0 1 0c0-1.378 1.12-2.5 2.5-2.5S14 8.622 14 10s-1.12 2.5-2.5 2.5a.5.5 0 0 0-.5.5v3a.5.5 0 0 0 1 0v-2.535A3.506 3.506 0 0 0 15 10c0-1.93-1.57-3.5-3.5-3.5z"/><circle cx="11.5" cy="18.5" r="1"/></svg>