<svg xmlns="http://www.w3.org/2000/svg" width="24" height="24" viewBox="0 0 24 24" class="icon"><path d="M23.5 0H.5a.5.5 0 0 0-.5.5v23a.5.5 0 0 0 .5.5h23a.5.5 0 0 0 .5-.5V.5a.5.5 0 0 0-.5-.5zM23 1v16h-.69l-3.4-6.795A2.163 2.163 0 0 0 16.964 9c-.77 0-1.492.414-1.88 1.08l-2.638 4.522C11.668 13.664 10.007 12 8 12c-2.465 0-4.31 3.8-4.832 5H1V1h22zm-1.81 16H4.27c.726-1.532 2.216-4 3.732-4 2.2 0 4.065 2.75 4.084 2.778.095.143.246.21.43.222a.5.5 0 0 0 .418-.248l3.015-5.168c.21-.36.6-.584 1.016-.584.45 0 .853.25 1.053.65L21.19 17zM1 23v-5h22v5H1z"/><path d="M6.5 9h3c1.654 0 3-1.346 3-3s-1.346-3-3-3a2.976 2.976 0 0 0-2.824 2.008A2.01 2.01 0 0 0 4.5 7c0 1.103.897 2 2 2zm0-3c.118 0 .236.023.36.07.14.054.3.043.43-.032a.503.503 0 0 0 .244-.354A1.986 1.986 0 0 1 9.5 4c1.103 0 2 .897 2 2s-.897 2-2 2h-3c-.55 0-1-.45-1-1s.45-1 1-1z"/></svg>