<svg xmlns="http://www.w3.org/2000/svg" width="24" height="24" viewBox="0 0 24 24" class="icon"><path d="M12 16.243l-3.182 3.18c-.944.946-2.592.946-3.536 0l-.707-.706a2.482 2.482 0 0 1-.73-1.767c0-.668.26-1.296.73-1.768l4.597-4.597a2.503 2.503 0 0 1 3.536 0l.707.708a.5.5 0 0 0 .707-.708l-.707-.708a3.504 3.504 0 0 0-4.95 0l-4.597 4.597a3.473 3.473 0 0 0-1.024 2.475 3.48 3.48 0 0 0 1.024 2.473l.707.707c.66.66 1.54 1.025 2.476 1.025s1.815-.364 2.476-1.025l3.183-3.182a.5.5 0 1 0-.71-.705z"/><path d="M20.132 4.575l-.707-.707a3.504 3.504 0 0 0-4.95 0l-3.18 3.18a.5.5 0 0 0 .706.708l3.183-3.18a2.504 2.504 0 0 1 3.535 0l.707.707c.472.472.732 1.1.732 1.767 0 .668-.26 1.296-.732 1.77l-4.596 4.594c-.474.473-1.1.733-1.77.733a2.48 2.48 0 0 1-1.765-.732.5.5 0 1 0-.708.707 3.468 3.468 0 0 0 2.474 1.026c.936 0 1.815-.364 2.476-1.025l4.596-4.596a3.475 3.475 0 0 0 1.025-2.475c0-.937-.364-1.816-1.025-2.477z"/></svg>