<svg xmlns="http://www.w3.org/2000/svg" width="24" height="24" viewBox="0 0 24 24" class="icon"><path d="M2.5 2C1.12 2 0 3.12 0 4.5S1.12 7 2.5 7 5 5.88 5 4.5 3.88 2 2.5 2zm0 4C1.673 6 1 5.327 1 4.5S1.673 3 2.5 3 4 3.673 4 4.5 3.327 6 2.5 6zM8.57 4.928H23.5a.5.5 0 0 0 0-1H8.57a.5.5 0 0 0 0 1zM2.5 10C1.12 10 0 11.12 0 12.5S1.12 15 2.5 15 5 13.88 5 12.5 3.88 10 2.5 10zm0 4c-.827 0-1.5-.673-1.5-1.5S1.673 11 2.5 11s1.5.673 1.5 1.5S3.327 14 2.5 14zM23.5 11.928H8.57a.5.5 0 0 0 0 1H23.5a.5.5 0 0 0 0-1zM2.5 18C1.12 18 0 19.12 0 20.5S1.12 23 2.5 23 5 21.88 5 20.5 3.88 18 2.5 18zm0 4c-.827 0-1.5-.673-1.5-1.5S1.673 19 2.5 19s1.5.673 1.5 1.5S3.327 22 2.5 22zM23.5 19.927H8.57a.5.5 0 0 0 0 1H23.5a.5.5 0 0 0 0-1z"/></svg>