<svg xmlns="http://www.w3.org/2000/svg" width="24" height="24" viewBox="0 0 24 24" class="icon"><path d="M6.5 5h17a.5.5 0 0 0 0-1h-17a.5.5 0 0 0 0 1zM23.5 12h-17a.5.5 0 0 0 0 1h17a.5.5 0 0 0 0-1zM23.5 20h-17a.5.5 0 0 0 0 1h17a.5.5 0 0 0 0-1zM.85 4.395l.65-.635V6.5a.5.5 0 0 0 1 0V2.573a.5.5 0 0 0-.85-.357L.15 3.68a.5.5 0 0 0 .7.715zM2.57 14H1.532c.254-.298.465-.52.64-.703.515-.54.827-.868.827-1.76 0-.817-.673-1.482-1.5-1.482-.82 0-1.465.647-1.465 1.474a.5.5 0 0 0 1 0c0-.28.19-.475.465-.475.28 0 .5.212.5.482 0 .49-.084.58-.55 1.07-.322.336-.762.798-1.353 1.595A.5.5 0 0 0 .5 15h2.07a.5.5 0 0 0 0-1zM2.24 19.71l.61-.938A.5.5 0 0 0 2.43 18H.5a.5.5 0 0 0 0 1h1.01l-.498.765a.5.5 0 0 0 .418.773c.428 0 .5.12.5.48s-.072.482-.5.482H.5a.5.5 0 0 0 0 1h.93c.954 0 1.5-.54 1.5-1.48 0-.63-.243-1.08-.69-1.31z"/></svg>