<svg xmlns="http://www.w3.org/2000/svg" width="24" height="24" viewBox="0 0 24 24" class="icon"><path d="M22.176 17.516l-2.453-2.453c-1.06-1.062-2.915-1.064-3.98 0l-.495.496A54.3 54.3 0 0 1 8.442 8.75l.497-.496a2.817 2.817 0 0 0 0-3.978L6.484 1.824C5.423.762 3.57.762 2.505 1.824L1.163 3.17A3.98 3.98 0 0 0 .66 8.164 54.187 54.187 0 0 0 15.835 23.34c.652.432 1.41.66 2.19.66 1.062 0 2.057-.413 2.805-1.16l1.346-1.347c.53-.53.824-1.237.824-1.99 0-.75-.293-1.457-.824-1.987zm-.707 3.27l-1.347 1.346c-.97.972-2.584 1.134-3.736.374A53.187 53.187 0 0 1 1.494 7.613a2.98 2.98 0 0 1 .375-3.736L3.213 2.53C3.556 2.19 4.012 2 4.496 2s.94.188 1.282.53l2.454 2.455a1.815 1.815 0 0 1 0 2.563l-.818.818a.5.5 0 0 0-.033.67 55.01 55.01 0 0 0 7.584 7.584.5.5 0 0 0 .67-.033l.817-.817c.687-.686 1.88-.686 2.565 0l2.453 2.453a1.806 1.806 0 0 1 0 2.563z"/></svg>