<svg xmlns="http://www.w3.org/2000/svg" class="icon icon" viewBox="0 0 24 24"><path d="M11.366 12.928c-.729-.516-1.393-1.273-1.404-1.505 0-.425.038-.627.988-1.368 1.229-.962 1.906-2.228 1.906-3.564 0-1.212-.37-2.289-1.001-3.044h.488c.102 0 .2-.033.282-.091l1.364-.989a.478.478 0 0 0-.28-.867H7.608c-.667 0-1.345.118-2.011.347-2.225.766-3.778 2.66-3.778 4.605 0 2.755 2.134 4.845 4.987 4.91-.056.22-.084.434-.084.645 0 .425.108.827.33 1.216h-.079c-2.72 0-5.175 1.334-6.107 3.32A3.642 3.642 0 0 0 .5 18.098c0 .501.129.984.382 1.438.585 1.046 1.843 1.861 3.544 2.289.877.223 1.82.335 2.8.335a8.99 8.99 0 0 0 2.494-.338c2.419-.702 3.981-2.482 3.981-4.538 0-1.972-.633-3.152-2.335-4.356zM3.66 17.443c0-1.435 1.823-2.693 3.899-2.693h.057c.451.005.892.072 1.309.2l.412.282c.962.656 1.597 1.088 1.774 1.783.041.175.063.35.063.519 0 1.787-1.333 2.693-3.961 2.693-1.992-.002-3.553-1.225-3.553-2.784zM5.551 3.89c.324-.371.75-.566 1.227-.566h.055c1.349.041 2.639 1.543 2.876 3.349.133 1.013-.092 1.964-.601 2.544a1.593 1.593 0 0 1-1.242.566h-.022c-1.321-.04-2.639-1.6-2.875-3.405-.133-1.008.08-1.916.582-2.488zM23.5 9.5h-3v-3h-2v3h-3v2h3v3h2v-3h3z"/></svg>