<svg xmlns="http://www.w3.org/2000/svg" width="24" height="24" viewBox="0 0 24 24" class="icon"><path d="M23.79 4.512a.5.5 0 0 0-.586-.134c-.346.153-.653.23-.94.235.324-.382.453-.797.625-1.348l.087-.282a.5.5 0 0 0-.732-.58c-.77.456-1.6.788-2.468.986A5.072 5.072 0 0 0 16.297 2a5.05 5.05 0 0 0-5.02 5.535 12.452 12.452 0 0 1-8.384-4.52.523.523 0 0 0-.427-.183.505.505 0 0 0-.393.248 5.053 5.053 0 0 0 .215 5.413 2.916 2.916 0 0 1-.192-.1c-.155-.086-.344-.055-.496.035a.55.55 0 0 0-.247.46 5.06 5.06 0 0 0 2.024 4.04.502.502 0 0 0-.408.648 5.046 5.046 0 0 0 3.39 3.3 8.637 8.637 0 0 1-5.337 1.087.502.502 0 0 0-.327.918A13.38 13.38 0 0 0 7.93 21c8.404 0 13.427-6.828 13.427-13.43 0-.11 0-.223-.003-.334l.347-.24c.78-.532 1.588-1.083 2.124-1.884a.502.502 0 0 0-.034-.6zm-2.654 1.66c-.2.135-.395.27-.583.406a.502.502 0 0 0-.207.428c.008.188.01.375.01.565C20.357 13.68 15.71 20 7.93 20c-1.708 0-3.383-.35-4.934-1.022A9.54 9.54 0 0 0 8 16.972a.5.5 0 0 0-.3-.893 4.046 4.046 0 0 1-3.46-2.076c.467.003.937-.054 1.39-.176a.5.5 0 0 0-.033-.974A4.054 4.054 0 0 1 2.425 9.63a5.1 5.1 0 0 0 1.47.268c.24.016.423-.133.492-.346s-.012-.445-.198-.57a4.042 4.042 0 0 1-1.56-4.74 13.442 13.442 0 0 0 9.217 4.338.5.5 0 0 0 .513-.613A4.048 4.048 0 0 1 16.3 3c1.114 0 2.19.466 2.952 1.278.12.125.293.182.46.15a9.6 9.6 0 0 0 1.877-.576c-.136.208-.324.365-.666.57a.502.502 0 0 0 .035.877c.33.163.657.26.988.298-.262.198-.54.388-.812.574z"/></svg>