<svg width="24" height="24" viewBox="0 0 24 24" xmlns="http://www.w3.org/2000/svg" class="icon"><path d="M19.976 10.134a.5.5 0 0 0-.404-.34l-4.892-.708-2.188-4.405c-.17-.34-.728-.338-.896 0L9.41 9.087l-4.892.707a.5.5 0 0 0-.277.854l3.54 3.43-.836 4.838a.5.5 0 0 0 .724.53l4.375-2.288 4.377 2.287a.5.5 0 0 0 .725-.53l-.835-4.838 3.537-3.43a.5.5 0 0 0 .13-.512zm-4.55 3.408a.503.503 0 0 0-.147.444l.707 4.104-3.712-1.94a.496.496 0 0 0-.462 0l-3.71 1.94.708-4.104a.5.5 0 0 0-.145-.444l-2.997-2.904 4.145-.598a.5.5 0 0 0 .377-.273l1.854-3.737L13.9 9.767a.5.5 0 0 0 .377.272l4.144.598-2.995 2.904z" fill="#000" fill-rule="evenodd"/></svg>