<svg xmlns="http://www.w3.org/2000/svg" width="24" height="24" viewBox="0 0 24 24" class="icon"><path d="M7.24 10.128a.5.5 0 0 0-.705.063L4.01 13.217a8.024 8.024 0 0 1 1.08-5.242C6.27 6 8.194 4.572 10.373 4.058a7.998 7.998 0 0 1 7.835 2.486.5.5 0 0 0 .748-.664 8.988 8.988 0 0 0-8.813-2.796c-2.44.577-4.594 2.172-5.91 4.377A9.06 9.06 0 0 0 2.94 12.3l-1.6-2.38a.5.5 0 1 0-.83.557l2.788 4.15c.088.13.23.213.39.222h.025a.5.5 0 0 0 .384-.18l3.205-3.84a.498.498 0 0 0-.063-.702zM23.915 14.22l-2.786-4.15a.5.5 0 0 0-.39-.22.51.51 0 0 0-.32.113c-.018.01-.03.02-.046.033-.013.013-.03.02-.044.033l-.053.062c-.005.007-.012.012-.017.02l-3.137 3.754a.502.502 0 0 0 .063.705.5.5 0 0 0 .704-.062l2.405-2.88c.086 3.62-2.554 7.13-6.244 8a7.965 7.965 0 0 1-7.464-2.092.5.5 0 1 0-.7.71 8.96 8.96 0 0 0 8.396 2.356c4.04-.954 6.893-4.552 7.02-8.476l1.78 2.653c.1.142.258.22.418.22a.5.5 0 0 0 .415-.78z"/></svg>