<svg xmlns="http://www.w3.org/2000/svg" width="24" height="24" viewBox="0 0 24 24" class="icon"><path d="M22.834 12.237a11.922 11.922 0 0 0-4.865-7.79A12.04 12.04 0 0 0 8.974 2.36 11.92 11.92 0 0 0 2 6.146V.5a.5.5 0 0 0-1 0v7c0 .25.186.45.426.485.005 0 .01.002.014.003.02.002.038.012.06.012h7a.5.5 0 0 0 0-1H2.572c1.675-1.943 3.97-3.23 6.562-3.652 2.928-.474 5.858.204 8.254 1.914a10.925 10.925 0 0 1 4.46 7.14c.482 2.898-.19 5.812-1.897 8.204-.686.96-1.514 1.8-2.458 2.49a.498.498 0 1 0 .59.807 12.016 12.016 0 0 0 2.682-2.718 11.924 11.924 0 0 0 2.067-8.948z"/></svg>