<svg class="icon icon" width="25" viewBox="0 0 25 24" xmlns="http://www.w3.org/2000/svg"><path d="M7.5 13.281v2.72l-5.009 1.788A3 3 0 0 0 .5 20.614V22.5h19v-1.886a3 3 0 0 0-1.991-2.825L12.5 16v-2.906"/><path d="M14.875 8c0 3.313-2.239 6-5 6-2.762 0-5-2.687-5-6s2.238-6 5-6c2.761 0 5 2.687 5 6z"/><path d="M14.828 7.453c-.168.02-.284.014-.453.047-1.703.328-2.797-.289-3.735-1.93-.562 1.078-2.32 1.93-3.765 1.93a4.02 4.02 0 0 1-1.936-.466M22 22.5h2.5s0-3.352-.474-4.781c-.413-1.243-3.396-2.575-6.526-3.755v-1.5s1-.619 1-3c1 0 1-2 0-2 0-.234 1.078-1.862.75-3.184-.222-.89-2.125-2.298-3.625-1.298"/></svg>