<svg width="24" height="24" viewBox="0 0 24 24" xmlns="http://www.w3.org/2000/svg" class="icon"><g fill="#474747" fill-rule="evenodd"><path d="M6.7 12.83v2.61l.332-.47-4.81 1.717A3.38 3.38 0 0 0-.02 19.87v1.81a.5.5 0 0 0 .5.5h18.24a.5.5 0 0 0 .5-.5v-1.81a3.38 3.38 0 0 0-2.243-3.183l-4.81-1.718.333.47v-2.79h-1v2.79c0 .21.133.4.332.47l4.808 1.72a2.38 2.38 0 0 1 1.58 2.24v1.81l.5-.5H.48l.5.5v-1.81a2.38 2.38 0 0 1 1.58-2.242l4.808-1.717a.5.5 0 0 0 .332-.47v-2.61h-1z"/><path d="M13.78 7.76c0 2.923-1.948 5.26-4.3 5.26-2.353 0-4.3-2.337-4.3-5.26 0-2.923 1.947-5.26 4.3-5.26 2.352 0 4.3 2.337 4.3 5.26zm1 0c0-3.44-2.35-6.26-5.3-6.26-2.95 0-5.3 2.82-5.3 6.26s2.35 6.26 5.3 6.26c2.95 0 5.3-2.82 5.3-6.26z"/><path d="M14.176 6.738a2.617 2.617 0 0 1-.15.013c-.02.003-.02.003-.042.004a2.18 2.18 0 0 0-.28.035c-1.385.266-2.24-.185-3.055-1.61a.5.5 0 0 0-.88.016C9.338 6.03 7.846 6.78 6.6 6.78a3.36 3.36 0 0 1-1.627-.39l-.463.886c.66.344 1.326.504 2.09.504 1.592 0 3.436-.928 4.058-2.122l-.878.017c1.018 1.78 2.285 2.45 4.115 2.096.05-.01.092-.014.16-.02h.037c.096-.007.138-.01.202-.02l-.118-.992zM21.12 22.18h2.4a.5.5 0 0 0 .5-.5c0-.167-.004-.456-.015-.827a30.894 30.894 0 0 0-.104-1.817c-.08-.887-.195-1.603-.36-2.103-.42-1.26-2.557-2.405-6.564-3.915l.324.467v-1.44l-.237.426c.19-.117.432-.362.655-.766.342-.62.542-1.457.542-2.54l-.5.5c1.627 0 1.627-2.92 0-2.92v.5h.5c0 .068.226-.42.35-.722.238-.567.385-1.084.42-1.593.023-.302.003-.59-.065-.862-.357-1.43-2.693-2.574-4.242-1.54a.5.5 0 0 0 .554.83c.935-.622 2.52.153 2.718.952.04.164.053.347.04.548-.028.383-.148.804-.347 1.28.037-.088-.428.918-.428 1.107a.5.5 0 0 0 .5.5c.293 0 .293.92 0 .92a.5.5 0 0 0-.5.5c0 .92-.16 1.59-.418 2.056-.137.25-.256.37-.305.4a.5.5 0 0 0-.237.425v1.44a.5.5 0 0 0 .324.468c3.606 1.36 5.695 2.477 5.966 3.295.136.41.242 1.06.315 1.878.05.557.083 1.157.1 1.757.01.36.015.64.015.797l.5-.5h-2.4a.5.5 0 1 0 0 1z"/></g></svg>