<svg xmlns="http://www.w3.org/2000/svg" width="24" height="24" viewBox="0 0 24 24" class="icon"><path d="M23.5 8H.5a.5.5 0 0 0-.5.5v12.6C0 22.147.87 23 1.938 23h20.125C23.13 23 24 22.147 24 21.1V8.5a.5.5 0 0 0-.5-.5zM23 21.1c0 .497-.42.9-.938.9H1.938C1.42 22 1 21.596 1 21.1V9h22v12.1z"/><path d="M8.5 20a.505.505 0 0 0 .224-.053l8-4a.5.5 0 0 0 0-.894l-8-4A.5.5 0 0 0 8 11.5v8a.5.5 0 0 0 .5.5zm.5-7.69l6.382 3.19L9 18.69v-6.38zM22.5 1h-21C.673 1 0 1.673 0 2.5v4a.5.5 0 0 0 .5.5h23a.5.5 0 0 0 .5-.5v-4c0-.827-.673-1.5-1.5-1.5zm.465 1.328L19.293 6h-2.585l4-4H22.5c.215 0 .395.138.465.328zM8.707 2h2.586l-4 4H4.707l4-4zM3.293 6H1.208l4-4h2.085l-4 4zm9.414-4h2.586l-4 4H8.707l4-4zm4 0h2.586l-4 4h-2.586l4-4zM1.5 2h2.294L1 4.794V2.5a.5.5 0 0 1 .5-.5zm19.207 4L23 3.707V6h-2.293z"/></svg>