<svg xmlns="http://www.w3.org/2000/svg" width="24" height="24" viewBox="0 0 24 24" class="icon"><path d="M11.696 1l-.205.002c-3.08.053-5.978 1.3-8.162 3.505C1.13 6.73-.052 9.64.002 12.7c.11 6.34 5.075 11.303 11.305 11.303h.202c6.444-.113 11.6-5.363 11.488-11.702C22.888 5.965 17.924 1 11.696 1zm-.205 22.002h-.184c-5.678 0-10.204-4.53-10.305-10.318C.953 9.894 2.03 7.24 4.04 5.21c2-2.02 4.65-3.16 7.47-3.208L11.696 2c5.677 0 10.2 4.532 10.302 10.318.1 5.788-4.613 10.58-10.507 10.684z"/><path d="M11.5 14.5a.5.5 0 0 0 .5-.5V7a.5.5 0 0 0-1 0v7a.5.5 0 0 0 .5.5z"/><circle cx="11.5" cy="17.5" r="1"/></svg>