<svg xmlns="http://www.w3.org/2000/svg" width="24" height="24" viewBox="0 0 24 24" class="icon"><path d="M23.634 12.324l-3.11-7.31h.706a.5.5 0 0 0 0-1h-8.033A1.955 1.955 0 0 0 11.5 3.02c-.737 0-1.373.415-1.708 1.02H2.72a.5.5 0 0 0 0 1h.73L.34 12.323s0 .002-.002.003a.483.483 0 0 0-.032.158c0 .01-.007.022-.007.034l-.002.003c0 2.324 1.716 4.145 3.905 4.145s3.905-1.82 3.905-4.145a.49.49 0 0 0-.07-.242L4.953 5.04h4.593c.027.88.635 1.61 1.453 1.827V21.02H8.58a.5.5 0 0 0 0 1h5.812a.5.5 0 0 0 0-1H12V6.865c.826-.22 1.44-.96 1.456-1.85h5.562l-3.116 7.31a.488.488 0 0 0-.033.23c.016 2.31 1.723 4.113 3.9 4.113 2.19 0 3.906-1.82 3.906-4.145a.506.506 0 0 0-.042-.2zm-19.432-6.5l2.64 6.2H1.554l2.647-6.2zm0 9.843c-1.497 0-2.662-1.106-2.87-2.645h5.743c-.21 1.54-1.374 2.645-2.872 2.645zm7.298-9.73c-.528 0-.96-.43-.96-.958s.432-.96.96-.96a.96.96 0 0 1 0 1.918zm10.92 6.085h-5.303L19.77 5.8l2.65 6.222zm-2.65 3.645c-1.497 0-2.662-1.106-2.87-2.645h5.743c-.21 1.54-1.374 2.645-2.872 2.645z"/></svg>